<?xml version="1.0" encoding="UTF-8"?>
<!DOCTYPE svg PUBLIC "-//W3C//DTD SVG 1.1//EN" "http://www.w3.org/Graphics/SVG/1.1/DTD/svg11.dtd">
<!-- Creator: CorelDRAW 2021 (64-Bit) -->
<svg xmlns="http://www.w3.org/2000/svg" xml:space="preserve" width="6.6279mm" height="9.8194mm" version="1.1" shape-rendering="geometricPrecision" text-rendering="geometricPrecision" image-rendering="optimizeQuality" fill-rule="evenodd" clip-rule="evenodd"
viewBox="0 0 27.42 40.63"
 xmlns:xlink="http://www.w3.org/1999/xlink"
 xmlns:xodm="http://www.corel.com/coreldraw/odm/2003">
 <g id="Слой_x0020_1">
  <metadata id="CorelCorpID_0Corel-Layer"/>
  <rect fill="red" stroke="white" stroke-width="2.8" stroke-miterlimit="22.9256" x="1.4" y="1.4" width="24.62" height="37.83" rx="3.5" ry="4.01"/>
  <rect fill="black" x="1.4" y="1.4" width="24.62" height="37.83" rx="3.5" ry="4.01"/>
  <path fill="white" d="M13.79 20.84c0.01,0.54 0.08,1.11 0.19,1.53 0.16,0.64 0.4,0.99 0.85,1.42 0.21,0.2 0.57,0.39 0.85,0.5 0.36,0.14 1.02,0.3 1.51,0.3 0,0.07 0.04,0.3 0.07,0.35l-7.12 0c0.01,-0.12 0.06,-0.23 0.07,-0.35 1.62,0 2.77,-0.67 3.25,-2.22 0.12,-0.4 0.19,-0.98 0.19,-1.52 -0,-0.02 -0.02,-0.04 -0.02,-0.06 -0.04,0.05 -0.1,0.2 -0.14,0.27 -0.32,0.59 -0.89,1.1 -1.55,1.29 -1.54,0.43 -2.7,-0.74 -2.55,-2.15 0.04,-0.35 0.15,-0.63 0.32,-0.91 0.03,-0.04 0.05,-0.07 0.08,-0.12 0.42,-0.53 1.18,-0.8 1.91,-0.59 0.31,0.09 0.38,0.2 0.52,0.28 -0.03,-0.06 -0.09,-0.15 -0.14,-0.22 -0.36,-0.59 -0.46,-1.28 -0.13,-1.91 0.66,-1.25 2.36,-1.32 3.15,-0.49 0.04,0.04 0.06,0.05 0.09,0.09 0.37,0.43 0.58,0.95 0.45,1.58 -0.09,0.48 -0.26,0.63 -0.43,0.96 0.04,-0.02 0.07,-0.05 0.12,-0.09 0.32,-0.23 0.73,-0.3 1.13,-0.26 0.89,0.09 1.5,0.8 1.59,1.67 0.16,1.38 -0.99,2.58 -2.55,2.15 -0.31,-0.09 -0.57,-0.23 -0.81,-0.42 -0.15,-0.12 -0.19,-0.17 -0.32,-0.29 -0.04,-0.03 -0.06,-0.07 -0.09,-0.11 -0.06,-0.07 -0.12,-0.15 -0.17,-0.23 -0.06,-0.08 -0.11,-0.16 -0.16,-0.25 -0.03,-0.06 -0.1,-0.22 -0.14,-0.26 -0,0.02 -0.02,0.04 -0.02,0.05z"/>
  <path fill="white" d="M5.75 7.05c0,0.27 0.04,0.56 0.1,0.77 0.08,0.32 0.2,0.5 0.43,0.72 0.11,0.1 0.29,0.2 0.43,0.25 0.18,0.07 0.52,0.15 0.76,0.15 0,0.04 0.02,0.15 0.03,0.18l-3.6 0c0,-0.06 0.03,-0.12 0.03,-0.18 0.82,0 1.4,-0.34 1.64,-1.12 0.06,-0.2 0.09,-0.5 0.1,-0.77 0,-0.01 -0.01,-0.02 -0.01,-0.03 -0.02,0.03 -0.05,0.1 -0.07,0.14 -0.16,0.3 -0.45,0.56 -0.78,0.65 -0.78,0.22 -1.37,-0.38 -1.29,-1.08 0.02,-0.18 0.07,-0.32 0.16,-0.46 0.01,-0.02 0.02,-0.04 0.04,-0.06 0.21,-0.27 0.6,-0.4 0.97,-0.3 0.16,0.05 0.19,0.1 0.26,0.14 -0.01,-0.03 -0.05,-0.08 -0.07,-0.11 -0.18,-0.3 -0.23,-0.65 -0.07,-0.96 0.33,-0.63 1.19,-0.67 1.59,-0.25 0.02,0.02 0.03,0.03 0.04,0.04 0.19,0.22 0.29,0.48 0.23,0.8 -0.05,0.24 -0.13,0.32 -0.22,0.49 0.02,-0.01 0.04,-0.03 0.06,-0.04 0.16,-0.12 0.37,-0.15 0.57,-0.13 0.45,0.04 0.76,0.4 0.81,0.84 0.08,0.7 -0.5,1.3 -1.29,1.08 -0.16,-0.04 -0.29,-0.12 -0.41,-0.21 -0.08,-0.06 -0.1,-0.09 -0.16,-0.15 -0.02,-0.02 -0.03,-0.04 -0.05,-0.05 -0.03,-0.04 -0.06,-0.08 -0.09,-0.11 -0.03,-0.04 -0.05,-0.08 -0.08,-0.13 -0.02,-0.03 -0.05,-0.11 -0.07,-0.13 0,0.01 -0.01,0.02 -0.01,0.03z"/>
  <path fill="white" d="M21.75 33.56c0,-0.27 0.04,-0.56 0.1,-0.77 0.08,-0.32 0.2,-0.5 0.43,-0.72 0.11,-0.1 0.29,-0.2 0.43,-0.25 0.18,-0.07 0.52,-0.15 0.76,-0.15 0,-0.04 0.02,-0.15 0.03,-0.18l-3.6 0c0,0.06 0.03,0.12 0.03,0.18 0.82,0 1.4,0.34 1.64,1.12 0.06,0.2 0.09,0.5 0.1,0.77 0,0.01 -0.01,0.02 -0.01,0.03 -0.02,-0.03 -0.05,-0.1 -0.07,-0.14 -0.16,-0.3 -0.45,-0.56 -0.78,-0.65 -0.78,-0.22 -1.37,0.38 -1.29,1.08 0.02,0.18 0.07,0.32 0.16,0.46 0.01,0.02 0.02,0.04 0.04,0.06 0.21,0.27 0.6,0.4 0.97,0.3 0.16,-0.05 0.19,-0.1 0.26,-0.14 -0.01,0.03 -0.05,0.08 -0.07,0.11 -0.18,0.3 -0.23,0.65 -0.07,0.96 0.33,0.63 1.19,0.67 1.59,0.25 0.02,-0.02 0.03,-0.03 0.04,-0.04 0.19,-0.22 0.29,-0.48 0.23,-0.8 -0.05,-0.24 -0.13,-0.32 -0.22,-0.49 0.02,0.01 0.04,0.03 0.06,0.04 0.16,0.12 0.37,0.15 0.57,0.13 0.45,-0.04 0.76,-0.4 0.81,-0.84 0.08,-0.7 -0.5,-1.3 -1.29,-1.08 -0.16,0.04 -0.29,0.12 -0.41,0.21 -0.08,0.06 -0.1,0.09 -0.16,0.15 -0.02,0.02 -0.03,0.04 -0.05,0.05 -0.03,0.04 -0.06,0.08 -0.09,0.11 -0.03,0.04 -0.05,0.08 -0.08,0.13 -0.02,0.03 -0.05,0.11 -0.07,0.13 0,-0.01 -0.01,-0.02 -0.01,-0.03z"/>
 </g>
</svg>
