<?xml version="1.0" encoding="UTF-8"?>
<!DOCTYPE svg PUBLIC "-//W3C//DTD SVG 1.1//EN" "http://www.w3.org/Graphics/SVG/1.1/DTD/svg11.dtd">
<!-- Creator: CorelDRAW 2021 (64-Bit) -->
<svg xmlns="http://www.w3.org/2000/svg" xml:space="preserve" width="6.6279mm" height="9.8194mm" version="1.1" shape-rendering="geometricPrecision" text-rendering="geometricPrecision" image-rendering="optimizeQuality" fill-rule="evenodd" clip-rule="evenodd"
viewBox="0 0 23.8 35.25"
 xmlns:xlink="http://www.w3.org/1999/xlink"
 xmlns:xodm="http://www.corel.com/coreldraw/odm/2003">
 <g id="Слой_x0020_1">
  <metadata id="CorelCorpID_0Corel-Layer"/>
  <g id="_2488830513296">
   <rect fill="aqua" stroke="black" stroke-width="2.43" stroke-miterlimit="22.9256" x="1.22" y="1.22" width="21.36" height="32.82" rx="3.04" ry="3.48"/>
   <g>
    <rect fill="white" x="1.22" y="1.22" width="21.36" height="32.82" rx="3.04" ry="3.48"/>
    <path fill="black" d="M8.12 18.45c0,0.45 0.05,0.77 0.32,1.13 0.11,0.15 0.17,0.21 0.3,0.32 0.05,0.04 0.06,0.06 0.11,0.09 0.09,0.06 0.16,0.11 0.26,0.15 0.9,0.4 1.89,-0.02 2.41,-0.77l0.17 -0.26c0.03,-0.06 0.05,-0.09 0.08,-0.15l0.08 -0.15c0,0.49 -0.05,1.03 -0.17,1.4 -0.42,1.34 -1.41,1.92 -2.82,1.92 -0.01,0.1 -0.05,0.2 -0.06,0.3l6.18 0c-0.02,-0.04 -0.06,-0.24 -0.06,-0.3 -0.42,0 -1,-0.13 -1.31,-0.26 -0.24,-0.1 -0.55,-0.26 -0.73,-0.44 -0.39,-0.37 -0.59,-0.67 -0.74,-1.23 -0.1,-0.38 -0.17,-0.92 -0.17,-1.4 0,0 0.01,0 0.01,0.01l0.15 0.25c0.06,0.09 0.11,0.17 0.17,0.26l0.19 0.23c0.05,0.05 0.05,0.06 0.1,0.11 0.04,0.05 0.07,0.06 0.12,0.11 1.06,1.06 2.95,0.36 2.95,-1.19 0,-0.48 -0.06,-0.68 -0.25,-1.07 -0.09,-0.18 -0.34,-0.53 -0.49,-0.68l-0.58 -0.59c-0.06,-0.06 -0.1,-0.08 -0.15,-0.13l-1.32 -1.34c-0.48,-0.57 -0.8,-1.24 -0.97,-1.98 -0.05,0.06 -0.11,0.37 -0.14,0.45 -0.19,0.67 -0.62,1.36 -1.09,1.86l-0.43 0.45c-0.06,0.06 -0.1,0.08 -0.16,0.14 -0.1,0.1 -0.2,0.18 -0.31,0.28l-0.15 0.13c-0.16,0.15 -0.31,0.26 -0.47,0.42 -0.27,0.27 -0.34,0.34 -0.56,0.63 -0.27,0.36 -0.48,0.82 -0.48,1.29z"/>
    <path fill="black" d="M16.93 29.35c0,-0.23 0.03,-0.39 0.16,-0.57 0.06,-0.07 0.08,-0.11 0.15,-0.16 0.02,-0.02 0.03,-0.03 0.06,-0.05 0.05,-0.03 0.08,-0.06 0.13,-0.08 0.45,-0.2 0.95,0.01 1.22,0.39l0.09 0.13c0.02,0.03 0.03,0.04 0.04,0.07l0.04 0.07c0,-0.25 -0.03,-0.52 -0.08,-0.71 -0.21,-0.68 -0.71,-0.97 -1.42,-0.97 -0,-0.05 -0.02,-0.1 -0.03,-0.15l3.12 0c-0.01,0.02 -0.03,0.12 -0.03,0.15 -0.21,0 -0.51,0.07 -0.66,0.13 -0.12,0.05 -0.28,0.13 -0.37,0.22 -0.19,0.19 -0.3,0.34 -0.37,0.62 -0.05,0.19 -0.08,0.46 -0.08,0.71 0,-0 0,-0 0,-0.01l0.07 -0.13c0.03,-0.05 0.05,-0.08 0.09,-0.13l0.09 -0.12c0.02,-0.02 0.03,-0.03 0.05,-0.06 0.02,-0.03 0.04,-0.03 0.06,-0.05 0.54,-0.54 1.49,-0.18 1.49,0.6 0,0.24 -0.03,0.34 -0.13,0.54 -0.05,0.09 -0.17,0.27 -0.25,0.34l-0.29 0.3c-0.03,0.03 -0.05,0.04 -0.08,0.07l-0.67 0.68c-0.24,0.29 -0.4,0.63 -0.49,1 -0.03,-0.03 -0.06,-0.19 -0.07,-0.23 -0.09,-0.34 -0.31,-0.69 -0.55,-0.94l-0.22 -0.23c-0.03,-0.03 -0.05,-0.04 -0.08,-0.07 -0.05,-0.05 -0.1,-0.09 -0.16,-0.14l-0.08 -0.07c-0.08,-0.07 -0.16,-0.13 -0.24,-0.21 -0.14,-0.14 -0.17,-0.17 -0.28,-0.32 -0.14,-0.18 -0.24,-0.41 -0.24,-0.65z"/>
    <path fill="black" d="M3.04 5.89c0,0.23 0.03,0.39 0.16,0.57 0.06,0.07 0.08,0.11 0.15,0.16 0.02,0.02 0.03,0.03 0.06,0.05 0.05,0.03 0.08,0.06 0.13,0.08 0.45,0.2 0.95,-0.01 1.22,-0.39l0.09 -0.13c0.02,-0.03 0.03,-0.04 0.04,-0.07l0.04 -0.07c0,0.25 -0.03,0.52 -0.08,0.71 -0.21,0.68 -0.71,0.97 -1.42,0.97 -0,0.05 -0.02,0.1 -0.03,0.15l3.12 0c-0.01,-0.02 -0.03,-0.12 -0.03,-0.15 -0.21,0 -0.51,-0.07 -0.66,-0.13 -0.12,-0.05 -0.28,-0.13 -0.37,-0.22 -0.19,-0.19 -0.3,-0.34 -0.37,-0.62 -0.05,-0.19 -0.08,-0.46 -0.08,-0.71 0,0 0,0 0,0.01l0.07 0.13c0.03,0.05 0.05,0.08 0.09,0.13l0.09 0.12c0.02,0.02 0.03,0.03 0.05,0.06 0.02,0.03 0.04,0.03 0.06,0.05 0.54,0.54 1.49,0.18 1.49,-0.6 0,-0.24 -0.03,-0.34 -0.13,-0.54 -0.05,-0.09 -0.17,-0.27 -0.25,-0.34l-0.29 -0.3c-0.03,-0.03 -0.05,-0.04 -0.08,-0.07l-0.67 -0.68c-0.24,-0.29 -0.4,-0.63 -0.49,-1 -0.03,0.03 -0.06,0.19 -0.07,0.23 -0.09,0.34 -0.31,0.69 -0.55,0.94l-0.22 0.23c-0.03,0.03 -0.05,0.04 -0.08,0.07 -0.05,0.05 -0.1,0.09 -0.16,0.14l-0.08 0.07c-0.08,0.07 -0.16,0.13 -0.24,0.21 -0.14,0.14 -0.17,0.17 -0.28,0.32 -0.14,0.18 -0.24,0.41 -0.24,0.65z"/>
   </g>
  </g>
 </g>
</svg>
