<?xml version="1.0" encoding="UTF-8"?>
<!DOCTYPE svg PUBLIC "-//W3C//DTD SVG 1.1//EN" "http://www.w3.org/Graphics/SVG/1.1/DTD/svg11.dtd">
<!-- Creator: CorelDRAW 2021 (64-Bit) -->
<svg xmlns="http://www.w3.org/2000/svg" xml:space="preserve" width="8.4667mm" height="12.7mm" version="1.1" shape-rendering="geometricPrecision" text-rendering="geometricPrecision" image-rendering="optimizeQuality" fill-rule="evenodd" clip-rule="evenodd"
viewBox="0 0 121.71 182.57"
 xmlns:xlink="http://www.w3.org/1999/xlink"
 xmlns:xodm="http://www.corel.com/coreldraw/odm/2003">
 <defs>
    <mask id="id0">
      <linearGradient id="id1" gradientUnits="userSpaceOnUse" x1="60.06" y1="86.63" x2="60.21" y2="120.8">
       <stop offset="0" stop-opacity="1" stop-color="white"/>
       <stop offset="1" stop-opacity="0" stop-color="white"/>
      </linearGradient>
     <rect fill="url(#id1)" x="13.36" y="13.48" width="93.56" height="149.69"/>
    </mask>
 </defs>
 <g id="Слой_x0020_1">
  <metadata id="CorelCorpID_0Corel-Layer"/>
  <g id="_2489017414176">
   <g>
    <rect fill="white" x="-0" y="-0" width="121.71" height="182.57"/>
    <rect fill="black" x="7.91" y="6.09" width="105.89" height="170.4" rx="9.11" ry="9.41"/>
   </g>
   <polygon fill="white" points="13.96,80.26 58.02,81.11 106.45,80.74 106.43,146.51 60.28,170.89 14.02,146.46 "/>
   <polygon fill="black" mask="url(#id0)" points="23.25,33.99 60,14.92 97.16,33.95 97.21,125.51 105.48,133.44 96.93,140.36 61.11,161.73 23.2,140.98 23.2,139.83 14.8,133.34 23.2,125.82 "/>
   <path fill="black" fill-rule="nonzero" d="M93.2 76.49l0 29.85 0 7.05 0 12.26c2.35,0.62 5.19,1.59 7.92,3.35l0 -58.85 -6.51 -3.8c1.31,3.63 -0.64,6.18 -0.64,10.15l-0.77 0z"/>
   <path fill="black" fill-rule="nonzero" d="M27.21 113.39l0 -7.02 0 -29.88 -0.77 0c0,-3.97 -1.19,-7.76 0.11,-11.39l-7.26 5.03 0 58.85c2.73,-1.75 5.57,-2.73 7.92,-3.35l0 -12.26z"/>
   <path fill="black" fill-rule="nonzero" d="M96.2 140.89l-3 -3.58 0 1.34 -17.8 9.96c-0.01,0.13 -0.05,0.27 -0.15,0.43l0.72 0.6c0.3,0.25 0.34,0.71 0.09,1.01l-2.49 2.97c-0.26,0.3 -0.71,0.34 -1.01,0.09l-2.51 -2.1 -9.84 5.51 -9.85 -5.51 -2.51 2.1c-0.3,0.26 -0.76,0.22 -1.01,-0.09l-2.49 -2.97c-0.25,-0.3 -0.22,-0.76 0.09,-1.01l0.72 -0.6c-0.1,-0.16 -0.14,-0.3 -0.14,-0.43l-17.8 -9.96 0 -1.34 -3 3.58c-0.26,0.3 -0.71,0.35 -1.01,0.09l-3.9 -3.27 0 5.59 40.91 22.9 40.91 -22.9 0 -5.59 -3.9 3.27c-0.3,0.26 -0.76,0.22 -1.01,-0.09z"/>
   <g>
    <path fill="white" fill-rule="nonzero" d="M39.93 109.97c-0.45,4.11 -1.8,6.15 -4.02,6.14 -0.67,-0 -1.17,-0.33 -1.51,-1 -0.29,-0.53 -0.43,-1.14 -0.43,-1.87l0.04 -10.91c0.01,-2.07 0.86,-3.12 2.55,-3.11 1.31,0.01 2.3,1.06 2.9,3.19 0.29,0.99 0.49,2.07 0.57,3.27l-2.17 2.18 2.06 2.11zm5.47 -4.27c-0.28,-2.66 -1.15,-4.73 -2.63,-6.23 -1.54,-1.55 -3.61,-2.35 -6.23,-2.36l-9.6 -0.1 -0.01 2.16c1.49,-0.2 2.21,0.91 2.2,3.36l-0.01 3.06 -0.05 4.46 0.01 3.94c-0.01,1.37 -0.89,2.51 -2.2,2.76l-0.01 1.87c0.26,0.03 0.52,0.06 0.79,0.06l9.02 0.04c3,0.01 5.29,-1.09 6.84,-3.33 0.97,-1.43 1.59,-3.17 1.86,-5.3l2.11 -2.24 -2.09 -2.17zm17.49 4.51l0.06 -0.03c-0.19,4.43 -1.25,6.65 -3.21,6.64 -1.25,-0 -2.21,-1.12 -2.87,-3.37 -0.32,-1.08 -0.55,-2.19 -0.66,-3.27l2.14 -2.27 -2.09 -2.17c0.43,-4.05 1.6,-6.09 3.56,-6.08 1.23,0 2.12,1.26 2.67,3.77 0.17,0.79 0.28,1.58 0.37,2.36l-2.17 2.15 2.21 2.26zm5.88 -4.44c-0.31,-1.96 -1.06,-3.71 -2.2,-5.26 -1.74,-2.4 -3.98,-3.61 -6.76,-3.62 -2.83,-0.01 -5.17,1.17 -6.99,3.56 -1.2,1.6 -2,3.38 -2.33,5.36l-2.08 2.09 2.01 2.05c0.28,2.1 1.06,4 2.31,5.7 1.77,2.4 4.04,3.61 6.78,3.62 2.83,0.01 5.17,-1.18 6.96,-3.56 1.2,-1.6 1.97,-3.44 2.3,-5.51l2.11 -2.24 -2.12 -2.2zm21.23 -3.91c0,-1.2 0.91,-2.07 2.11,-2.09l0.01 -2.45c-0.23,-0.03 -1.49,-0.03 -3.73,-0.01 -2.25,-0.01 -3.47,0.01 -3.68,0.04l-0.01 2.33c1.46,0.01 2.19,0.94 2.18,2.84l-0.03 6.89 -10.45 -12.15 -4.99 -0.02 -0.01 2.6c1.05,-0.03 1.87,0.36 2.45,1.09 0.52,0.67 0.78,1.52 0.78,2.6l-0.01 2.28 -0.06 -0.06 -2.23 2.24 2.21 2.26 0.06 -0.03 -0.02 4.12c-0,1.26 -0.86,2.25 -2.05,2.36l-0.01 2.16c0.15,0.03 1.43,0.04 3.79,0.04 2.36,0.04 3.71,-0.01 4,-0.13l0.01 -2.1c-1.58,0.05 -2.36,-0.86 -2.35,-2.72l0.03 -6.59 9.79 11.36 2.16 0.01 0.03 -8.43 2.11 -2.24 -2.09 -2.17 0.02 -4.03z"/>
    <path fill="black" fill-rule="nonzero" d="M40.68 110.35c-0.45,4.11 -1.81,6.15 -4.02,6.14 -0.67,-0 -1.17,-0.32 -1.51,-1 -0.29,-0.53 -0.43,-1.14 -0.43,-1.87l0.04 -10.91c0.01,-2.07 0.86,-3.12 2.55,-3.11 1.31,0.01 2.3,1.06 2.91,3.19 0.29,0.99 0.49,2.07 0.57,3.27l-2.17 2.18 2.06 2.11zm5.47 -4.27c-0.28,-2.66 -1.15,-4.73 -2.63,-6.22 -1.54,-1.55 -3.61,-2.35 -6.23,-2.36l-9.6 -0.1 -0.01 2.16c1.49,-0.2 2.21,0.91 2.2,3.36l-0.01 3.06 -0.05 4.46 0.01 3.94c-0.01,1.37 -0.89,2.51 -2.2,2.76l-0.01 1.87c0.26,0.03 0.52,0.06 0.79,0.06l9.01 0.04c3.01,0.01 5.29,-1.09 6.84,-3.33 0.97,-1.43 1.59,-3.17 1.86,-5.3l2.11 -2.24 -2.09 -2.17zm17.49 4.51l0.06 -0.03c-0.19,4.43 -1.25,6.65 -3.21,6.64 -1.25,-0 -2.21,-1.12 -2.88,-3.37 -0.32,-1.08 -0.54,-2.19 -0.66,-3.27l2.14 -2.27 -2.09 -2.17c0.43,-4.05 1.6,-6.09 3.56,-6.08 1.23,0 2.12,1.26 2.67,3.77 0.17,0.79 0.29,1.58 0.37,2.36l-2.17 2.15 2.21 2.26zm5.88 -4.44c-0.31,-1.96 -1.07,-3.71 -2.2,-5.26 -1.74,-2.4 -3.98,-3.61 -6.75,-3.62 -2.83,-0.01 -5.17,1.17 -6.99,3.56 -1.2,1.6 -2,3.38 -2.33,5.36l-2.08 2.09 2.01 2.05c0.28,2.1 1.06,4 2.31,5.7 1.77,2.4 4.04,3.6 6.78,3.62 2.83,0.01 5.17,-1.18 6.96,-3.56 1.2,-1.6 1.97,-3.44 2.3,-5.51l2.11 -2.24 -2.12 -2.2zm21.23 -3.91c0.01,-1.2 0.91,-2.07 2.11,-2.09l0.01 -2.45c-0.23,-0.03 -1.49,-0.04 -3.73,-0.02 -2.25,-0.01 -3.47,0.02 -3.68,0.04l-0.01 2.33c1.46,0.01 2.18,0.94 2.18,2.84l-0.03 6.89 -10.45 -12.15 -4.99 -0.02 -0.01 2.6c1.05,-0.02 1.87,0.36 2.45,1.09 0.52,0.67 0.78,1.52 0.78,2.6l-0.01 2.28 -0.06 -0.06 -2.23 2.24 2.21 2.26 0.06 -0.03 -0.02 4.12c-0.01,1.26 -0.86,2.25 -2.05,2.36l-0.01 2.16c0.15,0.03 1.43,0.03 3.79,0.04 2.36,0.04 3.71,-0.01 4,-0.13l0.01 -2.1c-1.58,0.05 -2.36,-0.86 -2.35,-2.72l0.03 -6.59 9.79 11.36 2.16 0.01 0.03 -8.43 2.11 -2.24 -2.09 -2.17 0.02 -4.03z"/>
   </g>
   <g>
    <path fill="black" fill-rule="nonzero" d="M43.7 30.38c0.54,-3.89 1.03,-5.81 1.59,-6.26 0.73,-0.58 4.24,-2.21 5.67,-2.64 3.21,-0.94 7.6,-1.56 11.35,-1.6 1.93,-0.02 2.11,-0.05 1.36,-0.21 -0.48,-0.1 -2.36,-0.14 -4.17,-0.09 -3.76,0.11 -6.96,0.6 -10.38,1.58 -4.46,1.29 -5.4,1.82 -5.8,3.31 -0.36,1.36 -0.6,5.33 -0.58,9.49l0.02 4.07 0.26 -2.33c0.14,-1.28 0.45,-3.68 0.67,-5.33z"/>
    <path fill="black" fill-rule="nonzero" d="M39.38 38.96l-0.06 -0.53 -3.59 -0.04c-3.36,-0.03 -3.54,-0.02 -2.81,0.25 0.85,0.32 4.12,0.81 5.59,0.84 0.91,0.02 0.93,0 0.87,-0.51z"/>
    <path fill="black" fill-rule="nonzero" d="M85.46 43.84c1.09,-0.37 1.53,-0.98 0.98,-1.38 -0.2,-0.14 -0.71,-0.36 -1.14,-0.47 -0.43,-0.11 -1.62,-0.59 -2.65,-1.06 -1.03,-0.47 -2.64,-1.04 -3.59,-1.27 -0.95,-0.23 -2.03,-0.58 -2.41,-0.77l-0.69 -0.34 -0.33 -3.85c-0.38,-4.37 -0.82,-7.1 -1.78,-11.07 -0.73,-3.01 -1.18,-4.09 -1.9,-4.56 -1.26,-0.83 -7.54,-1.59 -11.87,-1.44 -2.83,0.1 -6.59,0.6 -8.15,1.08 -0.85,0.26 -0.54,0.25 1.69,-0.08 5.91,-0.87 11.72,-0.64 15.49,0.59 1.03,0.34 1.58,0.86 2.01,1.88 0.64,1.53 0.41,2.52 -1.77,7.62 -0.73,1.71 -0.74,1.79 -0.74,4.17 -0,2.39 0.01,2.45 0.7,3.91l0.7 1.48 -1.87 0.13c-3.8,0.26 -7.05,0.79 -9.21,1.51 -0.97,0.32 -1.91,0.42 -5.07,0.52l-3.88 0.12 4.85 0.54c2.67,0.3 7.07,0.79 9.8,1.1 4.24,0.48 9.72,1.05 16.78,1.73 2.65,0.26 3.06,0.25 4.04,-0.09z"/>
    <path fill="black" fill-rule="nonzero" d="M78.45 52.45c0,-0.37 -0.28,-1.23 -0.63,-1.92 -0.75,-1.51 -0.75,-1.5 -0.97,-1.14 -0.32,0.5 -0.2,1.14 0.42,2.24 0.47,0.84 0.58,1.21 0.48,1.69l-0.13 0.62 0.41 -0.41c0.26,-0.26 0.41,-0.66 0.41,-1.08z"/>
    <path fill="black" fill-rule="nonzero" d="M75.11 56.64c0,-0.66 0.06,-1.37 0.13,-1.56 0.12,-0.31 0.09,-0.32 -0.19,-0.09 -0.22,0.18 -0.33,0.55 -0.33,1.12 0,1.04 -0.34,1.13 -0.43,0.12l-0.06 -0.73 -0.73 0.95c-0.4,0.52 -0.73,1.02 -0.73,1.12 0,0.09 0.26,0.17 0.58,0.17 0.35,0 0.72,0.16 0.92,0.39 0.31,0.37 0.35,0.37 0.58,0.06 0.13,-0.18 0.24,-0.88 0.24,-1.54z"/>
    <path fill="black" fill-rule="nonzero" d="M74.51 59.7c-0.44,-0.7 -1.41,-0.97 -2.45,-0.69 -0.61,0.16 -0.38,0.41 0.99,1.06 1,0.47 1.23,0.52 1.45,0.3 0.22,-0.22 0.22,-0.33 0.02,-0.66z"/>
    <path fill="black" fill-rule="nonzero" d="M72.4 66.21c0,-0.17 0.05,-0.16 0.18,0.03 0.14,0.22 0.28,0.16 0.7,-0.29 0.49,-0.52 0.51,-0.64 0.38,-1.63 -0.08,-0.59 -0.15,-1.48 -0.15,-1.99 0,-0.88 -0.16,-1.16 -0.43,-0.72 -0.07,0.11 -0.62,0.46 -1.22,0.77 -0.61,0.31 -1.28,0.71 -1.49,0.88 -0.38,0.3 -0.37,0.33 0.53,1.12 0.61,0.54 0.96,1.02 1.04,1.44 0.12,0.61 0.46,0.89 0.47,0.39z"/>
    <path fill="black" fill-rule="nonzero" d="M62.22 74.03c-0.61,-1.45 -0.61,-1.69 -0.01,-3.12 0.48,-1.14 0.69,-3.21 0.3,-3.07 -0.33,0.12 -3.12,3.89 -3.12,4.21 0,0.18 0.34,0.78 0.76,1.34 0.89,1.18 1.58,2.58 2.08,4.21l0.36 1.16 0.06 -1.78c0.05,-1.55 -0.01,-1.94 -0.44,-2.95z"/>
    <path fill="black" fill-rule="nonzero" d="M61.55 92.23c0.42,-0.59 0.45,-1.43 0.06,-2.4 -0.14,-0.35 -0.12,-0.36 0.17,-0.12 0.3,0.25 0.33,0.16 0.33,-1.14 0,-1.71 -0.37,-3.19 -1.39,-5.58 -0.95,-2.23 -1.38,-4.83 -1.29,-7.91 0.04,-1.3 -0.02,-2.16 -0.13,-2.22 -0.11,-0.04 -0.39,0.3 -0.64,0.78 -0.5,0.96 -0.5,1.3 -0.05,6.87 0.19,2.41 0.35,3.24 0.89,4.82 0.59,1.72 0.62,1.88 0.25,1.55l-0.4 -0.36 0.12 0.87c0.06,0.48 0.17,1.92 0.23,3.2 0.06,1.28 0.21,2.76 0.32,3.29l0.21 0.96 0.45 -1.02c0.25,-0.56 0.64,-1.28 0.87,-1.6z"/>
    <path fill="black" fill-rule="nonzero" d="M84.19 96.7c1.83,-4.91 2.96,-9.16 3.68,-13.86l0.36 -2.33 0.35 1.45c0.51,2.16 0.59,5.24 0.22,8.78 -0.18,1.68 -0.27,3.15 -0.2,3.25 0.06,0.1 0.31,0.19 0.55,0.19 0.63,0 1.64,0.6 2.05,1.23 0.24,0.36 0.41,0.47 0.5,0.33 0.54,-0.87 0.1,-10.47 -0.6,-13.2 -0.57,-2.22 -1.49,-3.64 -2.7,-4.16 -0.32,-0.14 -1.96,-1.04 -3.64,-2 -1.68,-0.96 -6.48,-3.48 -10.67,-5.59l-7.61 -3.84 -1.55 -0.01c-0.85,-0.01 -1.68,0.04 -1.84,0.11 -0.25,0.1 -0.27,0.56 -0.14,3.3 0.08,1.75 0.1,5.71 0.05,8.8 -0.05,3.09 -0.12,7.37 -0.14,9.51l-0.04 3.88 4.84 2.76c2.66,1.52 4.89,2.76 4.95,2.76 0.18,0 2.41,-3.47 3.31,-5.16l0.84 -1.57 -0.26 -1.05c-0.67,-2.71 -2.14,-4.83 -6.43,-9.21 -2.34,-2.39 -2.77,-2.93 -3.46,-4.36 -0.98,-2.05 -1.3,-3.32 -0.37,-1.53 1.12,2.18 1.87,3.11 4.94,6.13l2.98 2.94 0.58 -1.14c0.32,-0.63 0.58,-1.3 0.58,-1.5 0,-0.97 -3.33,-6.99 -5.35,-9.67 -0.69,-0.92 -1.22,-1.71 -1.18,-1.75 0.2,-0.2 2.91,2.75 3.82,4.14 1.46,2.24 3.31,6.05 3.42,7.06 0.08,0.72 -0.02,1.08 -0.6,2.18l-0.7 1.32 0.59 0.85c0.65,0.95 1.74,3.16 1.74,3.53 0,0.13 0.08,0.24 0.17,0.24 0.19,0 0.75,-2.19 0.85,-3.3l0.06 -0.68 0.45 0.97c2.29,4.99 3.27,8.25 3.57,11.91l0.23 2.79 0.42 -0.96c0.23,-0.53 0.86,-2.13 1.39,-3.57z"/>
    <path fill="#FEFEFE" fill-rule="nonzero" d="M42.81 28.29c0.54,-3.89 1.03,-5.81 1.59,-6.26 0.73,-0.58 4.24,-2.21 5.67,-2.64 3.21,-0.94 7.6,-1.56 11.35,-1.6 1.93,-0.02 2.11,-0.05 1.36,-0.21 -0.48,-0.1 -2.36,-0.14 -4.17,-0.09 -3.76,0.11 -6.96,0.6 -10.38,1.58 -4.46,1.29 -5.4,1.82 -5.79,3.31 -0.36,1.36 -0.6,5.33 -0.58,9.49l0.02 4.07 0.26 -2.33c0.14,-1.28 0.45,-3.68 0.68,-5.33z"/>
    <path fill="#FEFEFE" fill-rule="nonzero" d="M38.49 36.87l-0.06 -0.53 -3.59 -0.04c-3.36,-0.04 -3.54,-0.02 -2.81,0.25 0.85,0.32 4.12,0.8 5.59,0.84 0.91,0.02 0.93,0.01 0.87,-0.51z"/>
    <path fill="#FEFEFE" fill-rule="nonzero" d="M84.56 41.75c1.09,-0.37 1.53,-0.98 0.98,-1.38 -0.2,-0.14 -0.71,-0.35 -1.14,-0.47 -0.43,-0.11 -1.62,-0.59 -2.65,-1.06 -1.03,-0.47 -2.64,-1.04 -3.59,-1.27 -0.95,-0.23 -2.03,-0.58 -2.41,-0.77l-0.69 -0.34 -0.34 -3.85c-0.38,-4.37 -0.82,-7.1 -1.78,-11.07 -0.73,-3.01 -1.18,-4.09 -1.9,-4.56 -1.26,-0.83 -7.54,-1.59 -11.87,-1.44 -2.83,0.1 -6.59,0.6 -8.15,1.08 -0.85,0.26 -0.54,0.25 1.69,-0.08 5.91,-0.87 11.72,-0.65 15.5,0.59 1.02,0.34 1.58,0.85 2.01,1.88 0.64,1.53 0.41,2.52 -1.77,7.62 -0.73,1.71 -0.74,1.79 -0.74,4.17 -0,2.39 0.01,2.45 0.7,3.9l0.71 1.48 -1.87 0.13c-3.81,0.26 -7.05,0.79 -9.21,1.51 -0.97,0.32 -1.91,0.42 -5.07,0.52l-3.88 0.12 4.85 0.54c2.67,0.3 7.08,0.79 9.8,1.1 4.25,0.48 9.72,1.05 16.78,1.73 2.65,0.26 3.06,0.25 4.04,-0.09z"/>
    <path fill="#FEFEFE" fill-rule="nonzero" d="M77.55 50.36c0,-0.37 -0.28,-1.23 -0.62,-1.91 -0.75,-1.51 -0.75,-1.5 -0.97,-1.14 -0.32,0.5 -0.2,1.14 0.42,2.24 0.47,0.84 0.58,1.21 0.48,1.69l-0.13 0.62 0.41 -0.41c0.26,-0.26 0.41,-0.66 0.41,-1.08z"/>
    <path fill="#FEFEFE" fill-rule="nonzero" d="M74.22 54.55c0,-0.67 0.06,-1.37 0.13,-1.56 0.12,-0.31 0.09,-0.32 -0.19,-0.09 -0.22,0.18 -0.33,0.55 -0.33,1.12 0,1.04 -0.34,1.13 -0.43,0.12l-0.06 -0.73 -0.73 0.95c-0.4,0.52 -0.73,1.02 -0.73,1.12 0,0.09 0.26,0.17 0.59,0.17 0.35,0 0.72,0.16 0.92,0.39 0.31,0.37 0.35,0.37 0.58,0.06 0.13,-0.18 0.24,-0.88 0.24,-1.54z"/>
    <path fill="#FEFEFE" fill-rule="nonzero" d="M73.61 57.62c-0.44,-0.7 -1.41,-0.97 -2.45,-0.69 -0.61,0.16 -0.38,0.42 0.99,1.06 1,0.47 1.23,0.52 1.45,0.3 0.22,-0.22 0.22,-0.34 0.02,-0.66z"/>
    <path fill="#FEFEFE" fill-rule="nonzero" d="M71.5 64.13c0,-0.17 0.05,-0.16 0.17,0.03 0.14,0.22 0.28,0.16 0.7,-0.29 0.49,-0.52 0.51,-0.64 0.38,-1.63 -0.08,-0.59 -0.15,-1.48 -0.15,-1.99 0,-0.88 -0.16,-1.15 -0.43,-0.72 -0.07,0.11 -0.62,0.46 -1.22,0.77 -0.61,0.32 -1.28,0.71 -1.49,0.88 -0.38,0.3 -0.37,0.33 0.53,1.12 0.61,0.54 0.96,1.02 1.04,1.44 0.12,0.61 0.46,0.89 0.47,0.39z"/>
    <path fill="#FEFEFE" fill-rule="nonzero" d="M61.33 71.95c-0.61,-1.45 -0.61,-1.69 -0.01,-3.12 0.48,-1.14 0.68,-3.21 0.3,-3.07 -0.33,0.12 -3.12,3.89 -3.12,4.21 0,0.18 0.34,0.78 0.76,1.34 0.89,1.18 1.58,2.58 2.08,4.21l0.36 1.16 0.05 -1.78c0.05,-1.55 -0.01,-1.94 -0.44,-2.95z"/>
    <path fill="#FEFEFE" fill-rule="nonzero" d="M60.66 90.14c0.42,-0.59 0.44,-1.43 0.06,-2.4 -0.14,-0.35 -0.12,-0.36 0.18,-0.12 0.3,0.25 0.33,0.16 0.33,-1.14 0,-1.71 -0.37,-3.19 -1.39,-5.58 -0.95,-2.23 -1.38,-4.83 -1.29,-7.9 0.04,-1.3 -0.02,-2.17 -0.13,-2.22 -0.11,-0.04 -0.4,0.3 -0.64,0.77 -0.5,0.96 -0.5,1.3 -0.05,6.87 0.19,2.41 0.35,3.24 0.89,4.82 0.59,1.72 0.62,1.88 0.25,1.55l-0.41 -0.36 0.12 0.87c0.06,0.48 0.17,1.92 0.23,3.2 0.06,1.28 0.21,2.76 0.32,3.29l0.21 0.96 0.45 -1.02c0.25,-0.56 0.64,-1.28 0.87,-1.61z"/>
    <path fill="white" fill-rule="nonzero" d="M83.29 94.62c1.83,-4.91 2.96,-9.16 3.68,-13.86l0.36 -2.33 0.35 1.45c0.51,2.16 0.59,5.24 0.22,8.78 -0.18,1.68 -0.27,3.14 -0.2,3.25 0.06,0.1 0.31,0.19 0.54,0.19 0.63,0 1.64,0.6 2.05,1.23 0.24,0.36 0.41,0.47 0.5,0.33 0.54,-0.87 0.1,-10.47 -0.6,-13.2 -0.57,-2.23 -1.49,-3.65 -2.7,-4.16 -0.32,-0.14 -1.96,-1.04 -3.64,-2 -1.68,-0.96 -6.48,-3.48 -10.67,-5.59l-7.61 -3.84 -1.55 -0.01c-0.85,-0.01 -1.68,0.04 -1.84,0.11 -0.25,0.1 -0.27,0.56 -0.14,3.3 0.08,1.75 0.1,5.71 0.05,8.8 -0.06,3.09 -0.12,7.37 -0.14,9.51l-0.04 3.88 4.84 2.76c2.66,1.52 4.89,2.76 4.95,2.76 0.18,0 2.41,-3.47 3.31,-5.16l0.84 -1.57 -0.26 -1.05c-0.67,-2.71 -2.14,-4.83 -6.43,-9.21 -2.34,-2.39 -2.77,-2.94 -3.46,-4.36 -0.98,-2.05 -1.3,-3.32 -0.37,-1.53 1.12,2.18 1.87,3.11 4.94,6.13l2.98 2.94 0.58 -1.14c0.32,-0.63 0.57,-1.3 0.57,-1.5 0,-0.97 -3.33,-6.99 -5.35,-9.67 -0.69,-0.92 -1.22,-1.71 -1.18,-1.75 0.19,-0.19 2.91,2.75 3.82,4.14 1.46,2.24 3.31,6.05 3.42,7.06 0.08,0.71 -0.02,1.08 -0.6,2.18l-0.69 1.32 0.59 0.85c0.65,0.95 1.74,3.15 1.74,3.53 0,0.13 0.08,0.24 0.17,0.24 0.19,0 0.75,-2.19 0.85,-3.3l0.06 -0.68 0.45 0.97c2.3,4.99 3.27,8.25 3.57,11.91l0.23 2.79 0.42 -0.96c0.23,-0.53 0.86,-2.13 1.39,-3.57z"/>
   </g>
   <polygon fill="black" points="9.64,78.9 21.93,78.9 21.97,127.96 17.7,130.36 14.9,133.6 20.69,138.16 20.76,142.36 13.48,146.74 9.81,135.35 "/>
   <polygon fill="black" points="110.99,79.09 98.69,79.09 98.66,128.16 102.93,130.55 105.72,133.79 99.94,138.35 99.87,142.56 107.15,146.93 110.81,135.54 "/>
   <path fill="black" fill-rule="nonzero" d="M43.46 125.32c-0.15,0.02 -0.32,0.04 -0.5,0.07 -0.18,0.03 -0.38,0.05 -0.59,0.07 -0.21,0.02 -0.43,0.05 -0.65,0.07 -0.45,0.04 -0.93,0.07 -1.42,0.08 -0.24,0.01 -0.48,0.02 -0.72,0.01 -0.24,0 -0.47,-0 -0.7,-0.01 -0.23,-0.01 -0.45,-0.01 -0.66,-0.02 -0.21,-0.01 -0.41,-0.02 -0.59,-0.03 -0.73,-0.05 -1.22,-0.1 -1.22,-0.1 0,0 0.46,0.21 1.18,0.37 0.18,0.04 0.38,0.08 0.59,0.12 0.21,0.03 0.43,0.07 0.67,0.09 0.23,0.02 0.47,0.05 0.72,0.05 0.25,0.01 0.49,0.01 0.74,0 0.25,-0 0.5,-0.03 0.74,-0.05 0.25,-0.01 0.48,-0.06 0.71,-0.09 0.23,-0.03 0.45,-0.09 0.66,-0.13 0.1,-0.03 0.21,-0.04 0.3,-0.07 0.1,-0.03 0.19,-0.06 0.28,-0.08 0.18,-0.05 0.34,-0.1 0.48,-0.16 0.14,-0.05 0.26,-0.11 0.36,-0.15 0.2,-0.08 0.31,-0.14 0.31,-0.14 0,0 -0.13,0.02 -0.34,0.05 -0.1,0.02 -0.23,0.04 -0.38,0.06z"/>
   <path fill="black" fill-rule="nonzero" d="M19.83 133.03c0.8,-0.16 1.72,-0.35 2.71,-0.57 0.49,-0.11 1.01,-0.22 1.52,-0.34 0.52,-0.12 1.05,-0.24 1.57,-0.37 0.52,-0.13 1.05,-0.26 1.57,-0.38 0.52,-0.12 1.02,-0.26 1.52,-0.38 0.98,-0.25 1.89,-0.49 2.68,-0.71 0.78,-0.21 1.43,-0.41 1.88,-0.54 0.45,-0.13 0.71,-0.22 0.71,-0.22 0,0 -0.27,0.04 -0.73,0.13 -0.47,0.09 -1.13,0.2 -1.93,0.37 -0.8,0.16 -1.72,0.35 -2.71,0.57 -0.49,0.11 -1.01,0.22 -1.53,0.34 -0.52,0.12 -1.04,0.24 -1.57,0.37 -0.52,0.13 -1.05,0.26 -1.57,0.38 -0.52,0.13 -1.02,0.26 -1.52,0.38 -0.98,0.25 -1.9,0.5 -2.68,0.71 -0.78,0.21 -1.43,0.41 -1.88,0.54 -0.45,0.13 -0.71,0.22 -0.71,0.22 0,0 0.27,-0.04 0.73,-0.13 0.46,-0.09 1.13,-0.2 1.93,-0.37z"/>
   <path fill="black" fill-rule="nonzero" d="M23.25 133.67c0.47,-0.1 0.95,-0.21 1.44,-0.32 0.49,-0.11 0.99,-0.23 1.49,-0.35 0.5,-0.12 0.99,-0.24 1.48,-0.36 0.49,-0.12 0.97,-0.25 1.43,-0.36 0.93,-0.24 1.79,-0.47 2.53,-0.68 0.74,-0.2 1.35,-0.39 1.78,-0.52 0.43,-0.13 0.67,-0.21 0.67,-0.21 0,0 -0.25,0.04 -0.69,0.12 -0.44,0.08 -1.07,0.19 -1.83,0.34 -0.75,0.15 -1.63,0.33 -2.57,0.54 -0.47,0.1 -0.95,0.21 -1.44,0.32 -0.49,0.11 -0.99,0.23 -1.49,0.35 -0.5,0.12 -0.99,0.24 -1.48,0.36 -0.49,0.12 -0.97,0.25 -1.43,0.36 -0.93,0.24 -1.79,0.47 -2.53,0.68 -0.74,0.2 -1.35,0.4 -1.78,0.52 -0.43,0.13 -0.67,0.21 -0.67,0.21 0,0 0.25,-0.04 0.7,-0.12 0.44,-0.08 1.07,-0.19 1.82,-0.34 0.75,-0.15 1.63,-0.33 2.57,-0.54z"/>
   <path fill="black" fill-rule="nonzero" d="M21.14 131.34c0.7,-0.14 1.51,-0.3 2.38,-0.49 0.43,-0.1 0.88,-0.19 1.34,-0.3 0.46,-0.11 0.92,-0.21 1.38,-0.32 0.46,-0.11 0.92,-0.23 1.38,-0.34 0.45,-0.11 0.9,-0.23 1.33,-0.34 0.86,-0.22 1.66,-0.44 2.35,-0.63 1.37,-0.38 2.28,-0.68 2.28,-0.68 0,0 -0.94,0.14 -2.34,0.42 -0.7,0.14 -1.51,0.3 -2.38,0.49 -0.43,0.1 -0.88,0.19 -1.34,0.3 -0.46,0.1 -0.92,0.21 -1.38,0.32 -0.46,0.11 -0.92,0.23 -1.38,0.34 -0.45,0.11 -0.9,0.23 -1.33,0.34 -0.86,0.22 -1.66,0.44 -2.35,0.63 -1.37,0.39 -2.28,0.68 -2.28,0.68 0,0 0.94,-0.14 2.34,-0.42z"/>
   <path fill="black" fill-rule="nonzero" d="M25 129.12c0.36,-0.08 0.73,-0.15 1.11,-0.24 0.38,-0.09 0.76,-0.18 1.14,-0.26 0.38,-0.09 0.76,-0.19 1.14,-0.28 0.38,-0.09 0.74,-0.19 1.1,-0.28 0.71,-0.19 1.38,-0.37 1.94,-0.54 1.14,-0.33 1.88,-0.59 1.88,-0.59 0,0 -0.78,0.1 -1.95,0.32 -0.58,0.11 -1.26,0.24 -1.98,0.4 -0.36,0.08 -0.73,0.16 -1.11,0.24 -0.38,0.09 -0.76,0.18 -1.14,0.26 -0.38,0.09 -0.76,0.19 -1.14,0.28 -0.38,0.09 -0.74,0.19 -1.1,0.28 -0.71,0.19 -1.38,0.37 -1.94,0.54 -1.14,0.33 -1.88,0.59 -1.88,0.59 0,0 0.78,-0.1 1.94,-0.32 0.58,-0.11 1.26,-0.24 1.98,-0.4z"/>
   <path fill="black" fill-rule="nonzero" d="M32.02 132.61c-0.69,0.13 -1.5,0.3 -2.35,0.49 -0.43,0.09 -0.87,0.19 -1.32,0.29 -0.45,0.1 -0.91,0.21 -1.36,0.32 -0.46,0.11 -0.91,0.22 -1.36,0.33 -0.45,0.11 -0.89,0.23 -1.31,0.33 -0.85,0.22 -1.64,0.44 -2.32,0.63 -1.35,0.38 -2.25,0.68 -2.25,0.68 0,0 0.93,-0.14 2.31,-0.41 0.69,-0.13 1.49,-0.3 2.35,-0.49 0.43,-0.1 0.87,-0.19 1.32,-0.29 0.45,-0.1 0.91,-0.21 1.36,-0.32 0.45,-0.11 0.91,-0.22 1.36,-0.33 0.45,-0.11 0.89,-0.23 1.31,-0.33 0.85,-0.22 1.64,-0.43 2.32,-0.63 1.35,-0.38 2.25,-0.68 2.25,-0.68 0,0 -0.93,0.14 -2.31,0.41z"/>
   <path fill="black" fill-rule="nonzero" d="M24.97 135.65c-0.34,0.06 -0.7,0.15 -1.06,0.23 -0.36,0.09 -0.72,0.18 -1.05,0.27 -0.33,0.09 -0.64,0.19 -0.91,0.27 -0.53,0.17 -0.87,0.31 -0.87,0.31 0,0 0.37,-0.03 0.92,-0.11 0.27,-0.04 0.59,-0.1 0.93,-0.17 0.34,-0.06 0.7,-0.15 1.06,-0.23 0.36,-0.09 0.72,-0.18 1.05,-0.27 0.33,-0.09 0.64,-0.19 0.91,-0.27 0.53,-0.17 0.87,-0.31 0.87,-0.31 0,0 -0.37,0.03 -0.92,0.11 -0.27,0.04 -0.59,0.1 -0.93,0.17z"/>
   <path fill="black" fill-rule="nonzero" d="M23.78 137.36c-0.33,0.08 -0.67,0.18 -0.91,0.27 -0.24,0.09 -0.4,0.17 -0.4,0.17 0,0 0.18,-0 0.43,-0.03 0.26,-0.03 0.6,-0.09 0.93,-0.17 0.33,-0.08 0.67,-0.18 0.91,-0.27 0.24,-0.09 0.4,-0.17 0.4,-0.17 0,0 -0.18,0 -0.43,0.03 -0.26,0.03 -0.6,0.09 -0.93,0.17z"/>
   <path fill="white" fill-rule="nonzero" d="M102.77 135c0.03,-0.03 0.06,-0.06 0.09,-0.09 0.32,-0.29 0.63,-0.6 0.94,-0.9 0.31,-0.3 0.62,-0.61 0.92,-0.92 -0.36,0.24 -0.71,0.49 -1.06,0.75 -0.35,0.26 -0.7,0.51 -1.05,0.77 -0.34,0.26 -0.69,0.52 -1.03,0.78l-1.02 0.8c-0.67,0.54 -1.35,1.08 -2.01,1.63l-1 0.83 -0.72 0.62c-0.34,-0.39 -0.68,-0.78 -1.02,-1.17 -0.42,-0.48 -0.85,-0.95 -1.27,-1.42 -0.21,-0.24 -0.43,-0.47 -0.65,-0.7 -0.22,-0.23 -0.43,-0.47 -0.66,-0.7 -0.44,-0.46 -0.89,-0.92 -1.34,-1.36 0.36,0.53 0.73,1.05 1.11,1.56 0.19,0.26 0.38,0.51 0.57,0.77 0.19,0.25 0.38,0.51 0.58,0.76 0.1,0.12 0.19,0.25 0.29,0.37 -1.02,-1.22 -2.16,-2.58 -2.88,-3.44 -1.27,-1.51 -4.29,-0.19 -5.43,0.39l-0.94 -1.12 1.71 -9.84c0.15,0.2 0.33,0.43 0.53,0.68 0.12,0.16 0.25,0.32 0.39,0.5 0.07,0.09 0.14,0.18 0.21,0.27 0.04,0.05 0.12,0.11 0.17,0.14 0.06,0.04 0.12,0.07 0.18,0.09 0.47,0.22 0.99,0.36 1.53,0.52 0.37,0.11 0.75,0.22 1.14,0.33 -0.16,-0.03 -0.32,-0.07 -0.48,-0.1 -0.58,-0.12 -1.13,-0.23 -1.6,-0.31 -0.94,-0.17 -1.57,-0.23 -1.57,-0.23 0,0 0.6,0.23 1.51,0.5 0.46,0.14 0.99,0.29 1.56,0.45 0.29,0.07 0.58,0.16 0.89,0.23 0.3,0.07 0.61,0.15 0.92,0.23 0.31,0.07 0.62,0.14 0.92,0.21 0.3,0.07 0.61,0.13 0.9,0.19 0.46,0.1 0.9,0.18 1.3,0.25 0.55,0.22 1.1,0.44 1.64,0.68 0.58,0.26 1.14,0.54 1.68,0.83 1.07,0.57 2.03,1.19 2.81,1.76 0.39,0.29 0.74,0.57 1.05,0.82 0.3,0.25 0.56,0.49 0.78,0.68 0.42,0.39 0.66,0.62 0.66,0.62 0,0 -0.05,-0.07 -0.14,-0.19 -0.09,-0.13 -0.22,-0.31 -0.41,-0.53 -0.36,-0.45 -0.92,-1.07 -1.66,-1.74 -0.75,-0.66 -1.69,-1.36 -2.77,-2 -0.01,-0.01 -0.02,-0.01 -0.03,-0.02 2.14,1.12 4.27,2.65 6.09,4.81l-2.29 1.92zm-17.33 2.47c-0.05,0.2 -0.15,0.38 -0.31,0.52 -0.2,0.18 -0.41,0.36 -0.61,0.54 -0.42,0.36 -0.84,0.73 -1.28,1.08 -0.22,0.18 -0.43,0.36 -0.65,0.54l-0.33 0.26 -0.04 0.03 0 0 -0 0 -0.02 0.01 -0.09 0.06 -0.09 0.06c-0.03,0.01 -0.05,0.02 -0.07,0.03 -0.08,0.04 -0.19,0.07 -0.29,0.09 -0.11,0.01 -0.22,0.03 -0.33,0.01 -0.06,-0.01 -0.11,-0.01 -0.17,-0.01l-0.17 -0.04c-0.11,-0.01 -0.22,-0.07 -0.33,-0.1 -0.44,-0.16 -0.84,-0.44 -1.17,-0.75 -0.16,-0.16 -0.32,-0.31 -0.46,-0.49 -0.14,-0.17 -0.26,-0.34 -0.37,-0.52 -0.23,-0.33 -0.39,-0.7 -0.53,-1.01 -0.03,-0.07 -0.05,-0.15 -0.08,-0.22l2.55 -2.14c0.55,0.2 1.11,0.49 1.47,0.92 0.91,1.08 -0.35,2.56 0.06,2.77 0.41,0.21 1.18,-1.09 1.14,-1.9 -0.04,-0.81 -0.27,-1.28 -0.75,-1.85 -0.19,-0.23 -0.37,-0.52 -0.49,-0.84 0.94,-0.23 2,0.1 2.65,0.37 0.03,0.05 0.06,0.1 0.09,0.15 0.2,0.34 0.4,0.73 0.54,1.14 0.14,0.41 0.22,0.87 0.11,1.27zm-8.79 0.5c-0.63,0.53 -1.23,1 -1.75,1.42 -0.51,0.42 -0.95,0.75 -1.25,0.99 -0.3,0.24 -0.48,0.37 -0.48,0.37 0,0 0.16,-0.15 0.45,-0.41 0.29,-0.25 0.69,-0.62 1.19,-1.06 0.5,-0.43 1.07,-0.94 1.7,-1.47 0.63,-0.53 1.3,-1.1 1.96,-1.67 0.67,-0.56 1.35,-1.12 1.98,-1.64 0.08,-0.07 0.15,-0.13 0.24,-0.2 0.08,-0.06 0.16,-0.12 0.25,-0.17 0.18,-0.11 0.36,-0.19 0.54,-0.26 0.37,-0.13 0.74,-0.17 1.07,-0.17 0.67,0 1.21,0.16 1.58,0.26 0.18,0.06 0.33,0.1 0.42,0.14 0.1,0.03 0.15,0.05 0.15,0.05 0,0 -0.05,-0.01 -0.15,-0.04 -0.1,-0.03 -0.25,-0.06 -0.43,-0.11 -0.37,-0.08 -0.91,-0.19 -1.56,-0.17 -0.32,0.01 -0.67,0.07 -1.01,0.2 -0.34,0.13 -0.65,0.36 -0.96,0.63 -0.63,0.53 -1.3,1.1 -1.96,1.67 -0.68,0.56 -1.35,1.12 -1.98,1.64zm-4.43 -2.58c-0.28,0.22 -0.53,0.4 -0.69,0.52 -0.17,0.12 -0.27,0.19 -0.27,0.19 0,0 0.09,-0.08 0.24,-0.23 0.16,-0.14 0.37,-0.35 0.64,-0.59 0.27,-0.24 0.58,-0.52 0.92,-0.82 0.34,-0.3 0.7,-0.61 1.07,-0.92l0.03 -0.03 0.04 -0.03 0.07 -0.05c0.06,-0.04 0.12,-0.07 0.18,-0.1 0.12,-0.05 0.25,-0.09 0.38,-0.1 0.26,-0.03 0.52,0.03 0.73,0.16 0.11,0.06 0.2,0.14 0.28,0.23 0.08,0.09 0.14,0.17 0.2,0.25 0.04,0.05 0.06,0.08 0.09,0.13 0.03,0.05 0.06,0.09 0.08,0.14 0.05,0.09 0.07,0.19 0.09,0.28 0.07,0.38 -0.08,0.69 -0.2,0.86 -0.05,0.07 -0.1,0.12 -0.14,0.15l-0.1 0.08 0 0c0,0 0.02,-0.02 0.06,-0.06 0.04,-0.04 0.09,-0.11 0.14,-0.2 0.1,-0.18 0.19,-0.47 0.11,-0.81 -0.02,-0.08 -0.05,-0.16 -0.1,-0.24 -0.02,-0.04 -0.05,-0.07 -0.07,-0.11 -0.03,-0.04 -0.07,-0.08 -0.1,-0.11 -0.14,-0.16 -0.27,-0.32 -0.45,-0.41 -0.18,-0.1 -0.39,-0.14 -0.6,-0.12 -0.1,0.01 -0.21,0.04 -0.3,0.09 -0.05,0.02 -0.09,0.05 -0.14,0.07l-0.07 0.05 -0.03 0.02 -0.03 0.03c-0.37,0.31 -0.74,0.61 -1.09,0.89 -0.35,0.28 -0.68,0.54 -0.97,0.76zm1.72 -3.6c-0.03,-0.08 -0.07,-0.15 -0.11,-0.21 -0.02,-0.03 -0.06,-0.08 -0.08,-0.1l-0.09 -0.1c-0.12,-0.15 -0.22,-0.26 -0.36,-0.34 -0.14,-0.08 -0.3,-0.13 -0.46,-0.13 -0.16,-0.01 -0.32,0.03 -0.46,0.09 -0.07,0.03 -0.13,0.07 -0.2,0.13 -0.06,0.05 -0.13,0.11 -0.19,0.16 -0.52,0.43 -1.02,0.82 -1.44,1.16 -0.42,0.34 -0.78,0.61 -1.03,0.81 -0.25,0.19 -0.4,0.3 -0.4,0.3 0,0 0.13,-0.12 0.36,-0.33l-0.19 -0.23c-0.06,0.04 -0.12,0.08 -0.16,0.12 -0.15,0.11 -0.24,0.17 -0.24,0.17 0,0 0.07,-0.07 0.21,-0.2 0.13,-0.13 0.32,-0.31 0.55,-0.52 0.23,-0.21 0.5,-0.46 0.8,-0.72 0.29,-0.26 0.61,-0.53 0.93,-0.8 0.16,-0.13 0.33,-0.27 0.47,-0.4 0.14,-0.12 0.23,-0.28 0.29,-0.45 0.05,-0.17 0.06,-0.35 0.02,-0.51 -0.01,-0.08 -0.04,-0.16 -0.07,-0.23 -0.03,-0.07 -0.07,-0.13 -0.12,-0.2 -0.09,-0.12 -0.18,-0.24 -0.26,-0.33 -0.08,-0.09 -0.17,-0.15 -0.25,-0.2 -0.16,-0.09 -0.26,-0.11 -0.26,-0.11 0,0 0.03,0 0.07,0.01 0.05,0.01 0.12,0.02 0.21,0.06 0.05,0.02 0.12,0.06 0.18,0.1l3.12 -2.62 0.18 0.21 -3.09 2.59c0.06,0.06 0.13,0.13 0.2,0.21 0.05,0.06 0.1,0.13 0.15,0.21 0,0.01 0.01,0.02 0.01,0.02l3.09 -2.6 1.05 1.25 -3.19 2.68c0.08,0.02 0.17,0.06 0.24,0.1 0.09,0.05 0.17,0.11 0.24,0.18 0.07,0.07 0.14,0.14 0.19,0.21l0.09 0.1c0.04,0.05 0.06,0.07 0.09,0.12 0.06,0.09 0.1,0.18 0.13,0.27 0.01,0.02 0.01,0.04 0.02,0.06l3.12 -2.62 0.26 0.31 -0.82 0.69 -2.52 2.11c0,0.01 0,0.02 -0,0.02 -0.03,0.2 -0.1,0.38 -0.22,0.53 -0.05,0.08 -0.12,0.15 -0.19,0.21 -0.07,0.05 -0.13,0.11 -0.2,0.17 -0.52,0.43 -1.02,0.82 -1.44,1.16 -0.42,0.34 -0.78,0.61 -1.03,0.81 -0.25,0.19 -0.4,0.3 -0.4,0.3 0,0 0.13,-0.12 0.37,-0.34 0.24,-0.21 0.57,-0.52 0.98,-0.88 0.41,-0.36 0.88,-0.78 1.4,-1.22 0.06,-0.05 0.13,-0.11 0.19,-0.17 0.06,-0.05 0.11,-0.11 0.16,-0.17 0.09,-0.13 0.15,-0.28 0.17,-0.44 0.02,-0.16 0.01,-0.32 -0.05,-0.47zm-2.23 7.21l-0.44 -0.52 0.24 -1.09 -0.68 0.57c0,0 -0.44,0.21 -0.86,0.22l1.44 -1.21c-0.21,-0.23 -0.44,-0.49 -0.67,-0.76 -0.17,-0.19 -0.34,-0.39 -0.52,-0.6l-1.56 1.31 -0.85 -1.01 1.56 -1.31c-0.24,-0.29 -0.47,-0.57 -0.69,-0.84 -0.1,-0.12 -0.19,-0.24 -0.29,-0.36l-1.57 1.32 -0.18 -0.21 1.58 -1.32c-0.13,-0.16 -0.24,-0.31 -0.36,-0.45l-1.59 1.34 -1.27 -1.52c0.03,-0.25 0.15,-0.61 0.58,-0.97 0.79,-0.67 4.04,-3.39 4.04,-3.39l4.77 -4 -4.15 2.84c0.13,-0.16 0.28,-0.32 0.47,-0.47 0.87,-0.73 3.41,-2.86 3.41,-2.86 0,0 7.29,2.83 11.9,-0.27 -0.5,1.78 -1.42,3.39 -2.37,4.71 0.11,-0.21 0.21,-0.43 0.31,-0.63 0.11,-0.22 0.2,-0.45 0.3,-0.66 0.1,-0.21 0.17,-0.43 0.26,-0.63 0.08,-0.2 0.15,-0.39 0.21,-0.57 0.06,-0.18 0.12,-0.34 0.17,-0.48 0.05,-0.15 0.08,-0.27 0.12,-0.38 0.07,-0.21 0.1,-0.32 0.1,-0.32 0,0 -0.05,0.11 -0.15,0.31 -0.05,0.1 -0.1,0.22 -0.17,0.35 -0.07,0.14 -0.15,0.28 -0.24,0.45 -0.09,0.16 -0.18,0.34 -0.29,0.52 -0.11,0.18 -0.22,0.38 -0.34,0.57 -0.13,0.19 -0.25,0.4 -0.39,0.6 -0.14,0.2 -0.27,0.4 -0.42,0.6 -0.29,0.4 -0.59,0.78 -0.88,1.13 -0.29,0.35 -0.58,0.67 -0.83,0.93 -0.11,0.12 -0.22,0.22 -0.31,0.32 -0.01,-0.02 -0.02,-0.04 -0.03,-0.06 -0.09,-0.22 -0.22,-0.43 -0.35,-0.67 -0.14,-0.23 -0.28,-0.47 -0.45,-0.7 -0.08,-0.12 -0.17,-0.24 -0.26,-0.36 -0.09,-0.12 -0.19,-0.23 -0.28,-0.35 -0.18,-0.24 -0.4,-0.45 -0.61,-0.67 -0.1,-0.11 -0.22,-0.21 -0.33,-0.31 -0.11,-0.1 -0.23,-0.2 -0.34,-0.29 -0.23,-0.19 -0.47,-0.35 -0.69,-0.52 -0.23,-0.16 -0.47,-0.29 -0.68,-0.42 -0.21,-0.14 -0.44,-0.23 -0.63,-0.33 -0.2,-0.09 -0.37,-0.19 -0.54,-0.25 -0.17,-0.06 -0.31,-0.12 -0.43,-0.16 -0.24,-0.09 -0.37,-0.14 -0.37,-0.14 0,0 0.12,0.07 0.34,0.2 0.11,0.06 0.24,0.14 0.39,0.23 0.15,0.08 0.31,0.21 0.48,0.33 0.17,0.13 0.37,0.25 0.55,0.42 0.18,0.16 0.38,0.32 0.57,0.51 0.18,0.2 0.38,0.38 0.55,0.6 0.09,0.11 0.17,0.22 0.26,0.32 0.09,0.11 0.17,0.22 0.25,0.33 0.15,0.23 0.31,0.45 0.44,0.69 0.06,0.12 0.13,0.23 0.19,0.35 0.06,0.12 0.11,0.24 0.17,0.35 0.11,0.23 0.19,0.46 0.28,0.68 0.07,0.22 0.15,0.43 0.19,0.62 0.01,0.05 0.03,0.1 0.04,0.15l-3.62 -4.31 -0.37 -0.44 -0.93 -1.11 -4.62 3.87 -2.99 2.51 -0.27 0.22c0,0 0.09,0.1 0.26,0.27 0.16,0.18 0.4,0.42 0.67,0.73 0.27,0.31 0.59,0.66 0.93,1.05 0.34,0.39 0.69,0.8 1.04,1.21 0.35,0.42 0.7,0.84 1.02,1.23 0.32,0.4 0.61,0.77 0.87,1.09 0.25,0.32 0.45,0.6 0.6,0.78 0.14,0.19 0.22,0.3 0.22,0.3l-0.89 0.74zm-10.67 4.32l0 0c-0.58,-0.17 -1.26,-0.29 -1.84,-0.18l8.07 -6.77 0.85 1.01 -7.08 5.94zm14.41 6.54l-0.15 0.17 -9.62 -8.07 0.18 -0.15 9.59 8.05zm-1.09 1.29l-9.82 -8.24 0.81 -0.68 9.68 8.12 -0.67 0.79zm-0.54 0.65l-9.93 -8.33 0.21 -0.18 9.89 8.3 -0.18 0.21zm-1.39 0.73c-0.3,-0.24 -0.72,-0.56 -1.23,-0.97 -0.5,-0.41 -1.1,-0.88 -1.72,-1.39 -0.62,-0.52 -1.29,-1.07 -1.96,-1.62 -0.66,-0.56 -1.32,-1.12 -1.93,-1.64 -0.62,-0.52 -1.18,-1.03 -1.67,-1.45 -0.49,-0.43 -0.89,-0.79 -1.17,-1.04 0,0 -0,-0 -0,-0 0.01,-0.01 0.03,-0.02 0.04,-0.03 0.29,0.23 0.72,0.56 1.22,0.96 0.5,0.41 1.1,0.88 1.72,1.4 0.62,0.52 1.29,1.07 1.96,1.62 0.66,0.56 1.32,1.12 1.93,1.64 0.62,0.52 1.18,1.03 1.67,1.45 0.49,0.42 0.89,0.79 1.17,1.04 0.28,0.25 0.44,0.4 0.44,0.4 0,0 -0.17,-0.13 -0.47,-0.36zm-16.07 -7.08c-0.49,0.42 -1.06,0.93 -1.67,1.45 -0.62,0.52 -1.28,1.08 -1.93,1.64 -0.66,0.55 -1.33,1.1 -1.95,1.62 -0.62,0.52 -1.22,0.99 -1.72,1.39 -0.5,0.41 -0.93,0.74 -1.23,0.97 -0.3,0.23 -0.47,0.36 -0.47,0.36 0,0 0.16,-0.15 0.44,-0.4 0.28,-0.25 0.68,-0.62 1.17,-1.04 0.49,-0.43 1.05,-0.93 1.67,-1.45 0.62,-0.52 1.28,-1.08 1.93,-1.64 0.67,-0.55 1.33,-1.1 1.96,-1.62 0.62,-0.52 1.22,-0.99 1.72,-1.4 0.5,-0.41 0.93,-0.74 1.23,-0.97 0.3,-0.23 0.47,-0.37 0.47,-0.37 0,0 -0.16,0.15 -0.44,0.4 -0.28,0.25 -0.68,0.62 -1.17,1.04zm-9.89 6.35l-0.18 -0.21 19.81 -16.62 0.18 0.21 -19.81 16.62zm-1.21 -1.44l19.81 -16.62 0.67 0.79 -19.81 16.62 -0.67 -0.79zm-0.42 -0.5l19.81 -16.62 0.14 0.17 -19.81 16.62 -0.14 -0.17zm7.33 -12.48l0.85 -1.01 3.39 2.84 -1.02 0.86 -3.21 -2.7zm-2.11 -1.77c-0.18,0.2 -0.35,0.41 -0.52,0.6 -0.23,0.27 -0.46,0.52 -0.67,0.76l1.44 1.21c-0.43,-0.01 -0.86,-0.22 -0.86,-0.22l-0.68 -0.57 0.24 1.09 -0.44 0.52 -0.89 -0.74c0,0 0.08,-0.11 0.22,-0.3 0.15,-0.19 0.35,-0.46 0.6,-0.78 0.25,-0.32 0.54,-0.7 0.87,-1.09 0.32,-0.4 0.67,-0.82 1.02,-1.23 0.35,-0.42 0.7,-0.83 1.04,-1.21 0.33,-0.39 0.66,-0.74 0.93,-1.05 0.27,-0.3 0.51,-0.55 0.67,-0.73 0.16,-0.17 0.26,-0.27 0.26,-0.27l-0.27 -0.22 -2.99 -2.51 -4.62 -3.87 -0.93 1.11 -0.37 0.44 -3.62 4.31c0.01,-0.05 0.02,-0.1 0.04,-0.15 0.05,-0.19 0.12,-0.4 0.19,-0.62 0.09,-0.21 0.17,-0.45 0.28,-0.68 0.05,-0.12 0.11,-0.23 0.17,-0.35 0.06,-0.12 0.13,-0.23 0.19,-0.35 0.13,-0.24 0.28,-0.46 0.44,-0.69 0.07,-0.12 0.16,-0.23 0.25,-0.33 0.09,-0.11 0.17,-0.22 0.26,-0.32 0.18,-0.21 0.37,-0.4 0.55,-0.6 0.19,-0.19 0.39,-0.35 0.57,-0.51 0.18,-0.17 0.38,-0.29 0.55,-0.42 0.17,-0.12 0.33,-0.25 0.48,-0.33 0.15,-0.09 0.28,-0.17 0.39,-0.23 0.22,-0.13 0.34,-0.2 0.34,-0.2 0,0 -0.14,0.05 -0.37,0.14 -0.12,0.04 -0.26,0.1 -0.43,0.16 -0.17,0.05 -0.35,0.16 -0.54,0.25 -0.19,0.1 -0.42,0.19 -0.63,0.33 -0.21,0.13 -0.45,0.26 -0.68,0.42 -0.22,0.17 -0.47,0.33 -0.69,0.52 -0.11,0.1 -0.22,0.2 -0.34,0.29 -0.12,0.1 -0.23,0.2 -0.33,0.31 -0.21,0.22 -0.43,0.43 -0.61,0.67 -0.09,0.12 -0.19,0.23 -0.28,0.35 -0.09,0.12 -0.17,0.24 -0.26,0.36 -0.17,0.23 -0.31,0.48 -0.45,0.7 -0.12,0.23 -0.25,0.45 -0.35,0.67 -0.01,0.02 -0.02,0.04 -0.03,0.06 -0.09,-0.09 -0.2,-0.2 -0.31,-0.32 -0.25,-0.26 -0.53,-0.58 -0.83,-0.93 -0.29,-0.35 -0.59,-0.74 -0.88,-1.13 -0.15,-0.2 -0.28,-0.4 -0.42,-0.6 -0.14,-0.2 -0.26,-0.4 -0.39,-0.6 -0.13,-0.2 -0.23,-0.39 -0.34,-0.57 -0.11,-0.18 -0.2,-0.36 -0.29,-0.52 -0.09,-0.16 -0.17,-0.31 -0.24,-0.45 -0.07,-0.14 -0.12,-0.25 -0.17,-0.35 -0.1,-0.2 -0.15,-0.31 -0.15,-0.31 0,0 0.04,0.12 0.1,0.32 0.03,0.1 0.07,0.23 0.12,0.38 0.04,0.15 0.11,0.3 0.17,0.48 0.06,0.18 0.13,0.37 0.21,0.57 0.08,0.2 0.16,0.41 0.26,0.63 0.1,0.21 0.19,0.44 0.3,0.66 0.1,0.21 0.2,0.42 0.31,0.63 -0.95,-1.32 -1.88,-2.93 -2.37,-4.71 4.61,3.1 11.9,0.27 11.9,0.27 0,0 2.54,2.13 3.41,2.86 0.18,0.15 0.34,0.31 0.47,0.47l-4.15 -2.84 4.77 4c0,0 3.24,2.72 4.04,3.39 0.43,0.36 0.56,0.71 0.58,0.97l-1.27 1.52 -1.59 -1.34c-0.11,0.14 -0.23,0.29 -0.36,0.45l1.58 1.32 -0.18 0.21 -1.57 -1.32c-0.09,0.12 -0.19,0.24 -0.29,0.36 -0.22,0.27 -0.45,0.56 -0.69,0.84l1.56 1.31 -0.85 1.01 -1.56 -1.31zm-2.95 -0.99c-0.35,-0.28 -0.72,-0.59 -1.09,-0.89l-0.03 -0.03 -0.03 -0.02 -0.07 -0.05c-0.04,-0.03 -0.08,-0.05 -0.14,-0.07 -0.1,-0.04 -0.2,-0.08 -0.3,-0.09 -0.21,-0.02 -0.43,0.01 -0.6,0.12 -0.18,0.09 -0.31,0.25 -0.45,0.41 -0.03,0.03 -0.06,0.08 -0.09,0.11 -0.02,0.04 -0.05,0.07 -0.07,0.11 -0.04,0.08 -0.07,0.16 -0.09,0.24 -0.08,0.33 0.01,0.63 0.11,0.81 0.05,0.09 0.1,0.15 0.14,0.2 0.04,0.04 0.06,0.06 0.06,0.06l0 0 -0.1 -0.08c-0.04,-0.04 -0.09,-0.08 -0.14,-0.15 -0.12,-0.17 -0.27,-0.48 -0.2,-0.86 0.02,-0.09 0.04,-0.19 0.09,-0.28 0.02,-0.05 0.05,-0.09 0.08,-0.14 0.03,-0.04 0.05,-0.08 0.09,-0.13 0.07,-0.08 0.12,-0.16 0.2,-0.25 0.08,-0.09 0.17,-0.17 0.28,-0.23 0.21,-0.13 0.47,-0.19 0.73,-0.16 0.13,0.01 0.26,0.05 0.38,0.1 0.06,0.03 0.12,0.06 0.18,0.1l0.07 0.05 0.04 0.03 0.03 0.03c0.37,0.31 0.73,0.62 1.07,0.92 0.34,0.3 0.65,0.58 0.92,0.82 0.27,0.24 0.48,0.45 0.64,0.59 0.15,0.15 0.24,0.23 0.24,0.23 0,0 -0.1,-0.07 -0.27,-0.19 -0.17,-0.13 -0.41,-0.3 -0.69,-0.52 -0.28,-0.22 -0.62,-0.48 -0.97,-0.76zm-3.18 -6.57l1.05 -1.25 3.1 2.6c0,-0.01 0.01,-0.02 0.01,-0.02 0.05,-0.08 0.1,-0.15 0.15,-0.21 0.07,-0.08 0.13,-0.15 0.2,-0.21l-3.09 -2.59 0.18 -0.21 3.13 2.62c0.06,-0.04 0.13,-0.08 0.18,-0.1 0.09,-0.04 0.16,-0.05 0.21,-0.06 0.05,-0.01 0.07,-0.01 0.07,-0.01 0,0 -0.1,0.02 -0.26,0.11 -0.08,0.04 -0.17,0.11 -0.25,0.2 -0.08,0.09 -0.16,0.21 -0.26,0.33 -0.05,0.06 -0.09,0.13 -0.12,0.2 -0.03,0.07 -0.06,0.15 -0.07,0.23 -0.03,0.16 -0.02,0.34 0.02,0.51 0.05,0.17 0.15,0.33 0.29,0.45 0.14,0.13 0.31,0.26 0.47,0.4 0.32,0.27 0.64,0.54 0.93,0.8 0.29,0.26 0.56,0.51 0.8,0.72 0.23,0.21 0.42,0.4 0.55,0.52 0.13,0.13 0.2,0.2 0.2,0.2 0,0 -0.08,-0.06 -0.23,-0.17 -0.05,-0.04 -0.1,-0.08 -0.16,-0.12l-0.19 0.23c0.23,0.21 0.36,0.33 0.36,0.33 0,0 -0.14,-0.11 -0.4,-0.3 -0.25,-0.2 -0.61,-0.47 -1.03,-0.81 -0.42,-0.34 -0.92,-0.73 -1.44,-1.16 -0.06,-0.05 -0.13,-0.1 -0.19,-0.16 -0.07,-0.06 -0.13,-0.09 -0.2,-0.13 -0.14,-0.07 -0.3,-0.1 -0.46,-0.09 -0.16,0.01 -0.32,0.05 -0.46,0.13 -0.15,0.08 -0.25,0.19 -0.36,0.34l-0.09 0.1c-0.02,0.03 -0.06,0.07 -0.08,0.1 -0.04,0.06 -0.08,0.13 -0.11,0.21 -0.06,0.15 -0.07,0.32 -0.05,0.47 0.02,0.16 0.08,0.31 0.17,0.44 0.04,0.07 0.1,0.12 0.16,0.17 0.06,0.06 0.13,0.11 0.19,0.17 0.52,0.44 0.99,0.86 1.4,1.22 0.41,0.36 0.74,0.67 0.98,0.88 0.23,0.21 0.37,0.34 0.37,0.34 0,0 -0.15,-0.11 -0.4,-0.3 -0.25,-0.2 -0.61,-0.47 -1.03,-0.81 -0.42,-0.34 -0.92,-0.73 -1.44,-1.16 -0.07,-0.05 -0.13,-0.11 -0.2,-0.17 -0.07,-0.06 -0.14,-0.13 -0.19,-0.21 -0.11,-0.15 -0.19,-0.34 -0.22,-0.53 -0,-0.01 -0,-0.02 -0,-0.02l-2.52 -2.11 -0.82 -0.69 0.26 -0.31 3.12 2.62c0.01,-0.02 0.01,-0.04 0.02,-0.06 0.03,-0.09 0.08,-0.18 0.13,-0.27 0.03,-0.04 0.05,-0.07 0.08,-0.12l0.09 -0.1c0.06,-0.07 0.12,-0.14 0.19,-0.21 0.07,-0.07 0.15,-0.13 0.24,-0.18 0.08,-0.04 0.16,-0.08 0.24,-0.1l-3.19 -2.68zm2.71 12.32c-0.3,-0.24 -0.73,-0.57 -1.24,-0.99 -0.51,-0.41 -1.11,-0.89 -1.75,-1.42 -0.63,-0.52 -1.31,-1.08 -1.98,-1.64 -0.67,-0.57 -1.34,-1.14 -1.96,-1.67 -0.31,-0.27 -0.62,-0.5 -0.96,-0.63 -0.34,-0.13 -0.69,-0.19 -1.01,-0.2 -0.65,-0.02 -1.19,0.09 -1.56,0.17 -0.19,0.05 -0.33,0.08 -0.43,0.11 -0.1,0.03 -0.15,0.04 -0.15,0.04 0,0 0.05,-0.02 0.15,-0.05 0.1,-0.04 0.24,-0.08 0.42,-0.14 0.37,-0.1 0.91,-0.26 1.58,-0.26 0.33,0 0.7,0.05 1.07,0.17 0.18,0.07 0.36,0.15 0.54,0.26 0.09,0.05 0.17,0.11 0.25,0.17 0.09,0.07 0.16,0.13 0.24,0.2 0.63,0.52 1.31,1.08 1.98,1.64 0.67,0.57 1.34,1.14 1.96,1.67 0.63,0.53 1.2,1.04 1.7,1.47 0.5,0.43 0.9,0.8 1.19,1.06 0.28,0.26 0.45,0.41 0.45,0.41 0,0 -0.17,-0.13 -0.48,-0.37zm-4.49 -2.58c-0.14,0.31 -0.3,0.67 -0.53,1.01 -0.11,0.18 -0.23,0.35 -0.37,0.52 -0.14,0.18 -0.29,0.33 -0.46,0.49 -0.33,0.3 -0.73,0.59 -1.17,0.75 -0.11,0.03 -0.22,0.09 -0.33,0.1l-0.17 0.04c-0.06,0.01 -0.11,0.01 -0.17,0.01 -0.11,0.02 -0.22,-0 -0.33,-0.01 -0.1,-0.03 -0.21,-0.05 -0.29,-0.09 -0.02,-0.01 -0.04,-0.01 -0.07,-0.03l-0.09 -0.06 -0.09 -0.06 -0.02 -0.01 -0.01 -0c0,0 0,0 0,0l-0.03 -0.03 -0.33 -0.26c-0.22,-0.18 -0.43,-0.36 -0.65,-0.54 -0.43,-0.36 -0.86,-0.73 -1.28,-1.08 -0.21,-0.18 -0.41,-0.36 -0.61,-0.54 -0.16,-0.14 -0.26,-0.32 -0.31,-0.52 -0.1,-0.4 -0.03,-0.86 0.11,-1.27 0.14,-0.42 0.34,-0.8 0.54,-1.14 0.03,-0.05 0.06,-0.1 0.09,-0.15 0.65,-0.27 1.71,-0.6 2.65,-0.37 -0.13,0.31 -0.3,0.61 -0.49,0.84 -0.48,0.57 -0.72,1.04 -0.75,1.85 -0.04,0.81 0.74,2.11 1.14,1.9 0.41,-0.21 -0.85,-1.69 0.06,-2.77 0.36,-0.43 0.92,-0.72 1.47,-0.92l2.55 2.14c-0.03,0.07 -0.05,0.14 -0.08,0.22zm-7.96 -3.46c-1.14,-0.58 -4.16,-1.9 -5.43,-0.39 -0.72,0.86 -1.86,2.22 -2.88,3.44 0.09,-0.12 0.19,-0.25 0.29,-0.37 0.2,-0.25 0.39,-0.51 0.58,-0.76 0.19,-0.25 0.38,-0.51 0.57,-0.77 0.38,-0.51 0.75,-1.03 1.11,-1.56 -0.46,0.44 -0.9,0.9 -1.34,1.36 -0.22,0.23 -0.44,0.46 -0.65,0.7 -0.22,0.23 -0.44,0.46 -0.65,0.7 -0.43,0.47 -0.86,0.94 -1.27,1.42 -0.34,0.39 -0.68,0.78 -1.02,1.17l-0.72 -0.62 -1 -0.83c-0.66,-0.55 -1.34,-1.09 -2.01,-1.63l-1.02 -0.8c-0.34,-0.27 -0.69,-0.52 -1.03,-0.78 -0.34,-0.26 -0.7,-0.51 -1.04,-0.77 -0.35,-0.25 -0.71,-0.5 -1.07,-0.75 0.3,0.31 0.61,0.62 0.92,0.92 0.31,0.3 0.62,0.6 0.94,0.9 0.03,0.03 0.06,0.06 0.09,0.09l-2.29 -1.92c1.81,-2.16 3.95,-3.7 6.09,-4.81 -0.01,0.01 -0.02,0.01 -0.03,0.02 -1.08,0.63 -2.02,1.33 -2.77,2 -0.75,0.66 -1.3,1.28 -1.66,1.74 -0.18,0.22 -0.32,0.41 -0.41,0.53 -0.09,0.13 -0.14,0.19 -0.14,0.19 0,0 0.23,-0.23 0.65,-0.62 0.21,-0.19 0.47,-0.43 0.78,-0.68 0.31,-0.25 0.66,-0.53 1.05,-0.82 0.78,-0.58 1.74,-1.19 2.81,-1.76 0.54,-0.28 1.1,-0.56 1.68,-0.83 0.53,-0.24 1.08,-0.46 1.63,-0.68 0.4,-0.07 0.83,-0.16 1.3,-0.25 0.29,-0.06 0.59,-0.12 0.9,-0.19 0.3,-0.07 0.61,-0.14 0.92,-0.21 0.31,-0.08 0.62,-0.15 0.92,-0.23 0.3,-0.07 0.6,-0.16 0.89,-0.23 0.58,-0.15 1.11,-0.31 1.57,-0.45 0.91,-0.27 1.51,-0.5 1.51,-0.5 0,0 -0.64,0.07 -1.58,0.23 -0.47,0.08 -1.02,0.18 -1.6,0.31 -0.16,0.03 -0.32,0.07 -0.48,0.1 0.39,-0.11 0.77,-0.22 1.14,-0.33 0.54,-0.16 1.06,-0.3 1.53,-0.52 0.06,-0.03 0.12,-0.06 0.18,-0.09 0.05,-0.03 0.13,-0.09 0.17,-0.14 0.07,-0.09 0.14,-0.18 0.21,-0.27 0.14,-0.18 0.27,-0.35 0.39,-0.5 0.2,-0.26 0.37,-0.48 0.53,-0.68l1.71 9.84 -0.94 1.12zm-0.18 -10.52c0.05,0.26 0.13,0.62 0.21,1.06 0.08,0.44 0.18,0.95 0.28,1.51 0.1,0.55 0.19,1.14 0.29,1.73 0.09,0.59 0.18,1.18 0.26,1.74 0.08,0.55 0.14,1.08 0.2,1.52 0.06,0.45 0.1,0.82 0.13,1.08 0.03,0.26 0.04,0.41 0.04,0.41 0,0 -0.03,-0.15 -0.09,-0.4 -0.05,-0.26 -0.13,-0.62 -0.21,-1.06 -0.08,-0.44 -0.18,-0.95 -0.28,-1.51 -0.1,-0.55 -0.19,-1.14 -0.29,-1.73 -0.09,-0.59 -0.18,-1.18 -0.26,-1.74 -0.08,-0.55 -0.14,-1.07 -0.2,-1.52 -0.06,-0.44 -0.1,-0.82 -0.13,-1.08 -0.03,-0.26 -0.04,-0.41 -0.04,-0.41 0,0 0.03,0.15 0.09,0.4zm23.81 14.21l-0.21 0.18 -3.6 -3.02 0.18 -0.21 3.64 3.05zm1.25 -1.05l-0.81 0.68 -3.71 -3.12 0.67 -0.79 3.85 3.23zm-3.43 -3.73l3.94 3.31 -0.18 0.15 -3.91 -3.28 0.14 -0.17zm30.63 -9.42c0.06,-0.26 0.09,-0.4 0.09,-0.4 0,0 -0.02,0.15 -0.04,0.41 -0.03,0.26 -0.07,0.63 -0.13,1.08 -0.06,0.45 -0.12,0.97 -0.21,1.52 -0.08,0.56 -0.17,1.15 -0.26,1.74 -0.1,0.59 -0.19,1.18 -0.29,1.73 -0.1,0.55 -0.2,1.07 -0.28,1.51 -0.08,0.44 -0.16,0.81 -0.21,1.06 -0.06,0.26 -0.09,0.4 -0.09,0.4 0,0 0.02,-0.15 0.04,-0.41 0.03,-0.26 0.07,-0.63 0.13,-1.08 0.06,-0.44 0.12,-0.96 0.21,-1.52 0.08,-0.55 0.17,-1.15 0.26,-1.74 0.1,-0.59 0.19,-1.18 0.29,-1.73 0.1,-0.55 0.2,-1.07 0.28,-1.51 0.08,-0.44 0.16,-0.81 0.21,-1.06zm14.78 4.83c-2.73,-1.75 -5.57,-2.73 -7.92,-3.35 -1,-0.26 -1.92,-0.47 -2.69,-0.64 -0.76,-0.17 -1.62,-0.36 -1.86,-0.48l-1.4 -1.67c-0.25,-0.3 -0.71,-0.34 -1.01,-0.09 -1.59,1.34 -3.68,1.74 -5.66,1.73 0,-0.01 0,-0.02 0.01,-0.03 0.11,-0.58 0.2,-1.17 0.26,-1.76l2.07 -1.73c0.15,-0.13 0.17,-0.36 0.05,-0.51 -0.13,-0.15 -0.36,-0.17 -0.51,-0.04l-2.17 1.82 -0.07 0.06 -0.05 0.14c-0.21,0.58 -0.39,1.16 -0.55,1.75 -0.46,-0.09 -1.57,-0.34 -2.65,-1.23l-1.03 0.86c-0.89,-0.24 -1.46,-0.45 -1.48,-0.46 -0.24,-0.09 -0.52,-0.05 -0.72,0.12l-3.41 2.86c-0.76,0.64 -1.11,1.39 -1.24,1.77l-3.88 3.25c-0.63,0.53 -0.83,1.11 -0.85,1.57l-4.14 3.47 -4.14 -3.47c-0.02,-0.46 -0.22,-1.04 -0.85,-1.57l-3.88 -3.25c-0.14,-0.39 -0.48,-1.13 -1.24,-1.77l-3.41 -2.86c-0.2,-0.17 -0.48,-0.21 -0.72,-0.12 -0.02,0.01 -0.59,0.22 -1.48,0.46l-1.03 -0.86c-1.08,0.89 -2.19,1.13 -2.65,1.23 -0.16,-0.59 -0.34,-1.17 -0.55,-1.75l-0.05 -0.14 -0.07 -0.06 -2.17 -1.82c-0.15,-0.13 -0.38,-0.11 -0.51,0.04 -0.13,0.15 -0.11,0.38 0.04,0.51l2.07 1.73c0.06,0.59 0.15,1.18 0.26,1.76 0,0.01 0,0.02 0.01,0.03 -1.98,0.01 -4.07,-0.4 -5.66,-1.73 -0.3,-0.26 -0.76,-0.22 -1.01,0.09l-1.4 1.67c-0.24,0.13 -1.1,0.31 -1.86,0.48 -0.77,0.17 -1.69,0.37 -2.69,0.64 -2.35,0.62 -5.19,1.59 -7.92,3.35 -1.6,1.03 -3.16,2.32 -4.54,3.97 -0.25,0.3 -0.22,0.76 0.09,1.01l4.45 3.74 3.9 3.27c0.3,0.25 0.76,0.22 1.01,-0.09l3 -3.58 2.16 -2.57c0.97,-1.15 3.99,0.22 4.97,0.79 0,0 0.01,0 0.01,0 -0.07,0.24 -0.14,0.5 -0.19,0.78 -0.05,0.26 -0.08,0.53 -0.08,0.82 0,0.29 0.03,0.6 0.15,0.9 0.11,0.3 0.31,0.59 0.57,0.8 0.21,0.17 0.43,0.34 0.65,0.52 0.43,0.35 0.86,0.7 1.29,1.07 0.21,0.18 0.43,0.36 0.64,0.54l0.31 0.28 0.04 0.04 0.01 0.01 0.03 0.02 0.02 0.02 0.08 0.06 0.08 0.06c0.03,0.02 0.08,0.04 0.12,0.07 0.16,0.1 0.32,0.14 0.48,0.19 0.16,0.02 0.32,0.07 0.48,0.06 0.08,0 0.16,0 0.24,-0l0.23 -0.03c0.16,-0.01 0.29,-0.06 0.44,-0.1 0.56,-0.17 1.05,-0.42 1.51,-0.65 0.46,-0.25 0.89,-0.48 1.29,-0.69 0.41,-0.22 0.78,-0.42 1.13,-0.59 0.13,-0.07 0.25,-0.13 0.37,-0.18l2.5 2.1c0.3,0.26 0.76,0.22 1.01,-0.09l2.01 -2.4c0.39,0.1 0.81,0.13 1.18,0.01l3.01 2.53 -6.77 5.68c-0.97,0.22 -2.19,0.54 -2.15,1.26 0.01,0.13 0.05,0.27 0.14,0.43l-0.72 0.6c-0.3,0.26 -0.34,0.71 -0.09,1.01l2.49 2.97c0.25,0.3 0.71,0.34 1.01,0.09l2.51 -2.1 8.3 -6.96c0.47,-0.2 1.04,-0.37 1.55,-0.45 0.51,0.08 1.07,0.25 1.55,0.45l8.3 6.96 2.51 2.1c0.3,0.26 0.76,0.22 1.01,-0.09l2.49 -2.97c0.25,-0.3 0.22,-0.76 -0.09,-1.01l-0.72 -0.6c0.1,-0.16 0.14,-0.3 0.14,-0.43 0.03,-0.72 -1.18,-1.04 -2.15,-1.26l-6.76 -5.68 3.01 -2.53c0.37,0.12 0.79,0.09 1.17,-0.01l2.01 2.4c0.26,0.3 0.71,0.34 1.01,0.09l2.5 -2.1c0.12,0.06 0.24,0.12 0.37,0.18 0.35,0.17 0.72,0.37 1.13,0.59 0.4,0.21 0.83,0.45 1.29,0.69 0.46,0.23 0.95,0.48 1.51,0.65 0.15,0.03 0.28,0.08 0.44,0.1l0.23 0.03c0.08,0 0.16,0 0.24,0 0.16,0.01 0.32,-0.03 0.48,-0.06 0.16,-0.05 0.32,-0.09 0.48,-0.19 0.04,-0.02 0.08,-0.04 0.12,-0.07l0.08 -0.06 0.08 -0.06 0.02 -0.02 0.03 -0.02 0.01 -0.01 0.04 -0.04 0.31 -0.28c0.21,-0.18 0.43,-0.36 0.64,-0.54 0.42,-0.37 0.86,-0.72 1.29,-1.07 0.22,-0.17 0.43,-0.35 0.65,-0.52 0.26,-0.21 0.46,-0.5 0.57,-0.8 0.11,-0.3 0.14,-0.61 0.15,-0.9 0,-0.29 -0.03,-0.56 -0.08,-0.82 -0.05,-0.28 -0.12,-0.54 -0.19,-0.78 0,-0 0.01,-0 0.01,-0 0.98,-0.57 4,-1.95 4.97,-0.79l2.16 2.57 3 3.58c0.25,0.3 0.71,0.34 1.01,0.09l3.9 -3.27 4.45 -3.74c0.3,-0.26 0.35,-0.71 0.09,-1.01 -1.39,-1.65 -2.94,-2.94 -4.54,-3.97z"/>
   <path fill="black" fill-rule="nonzero" d="M76.91 125.5c0.14,0.05 0.3,0.1 0.48,0.16 0.09,0.03 0.18,0.06 0.28,0.08 0.1,0.03 0.2,0.05 0.3,0.07 0.21,0.04 0.43,0.1 0.66,0.13 0.23,0.03 0.47,0.08 0.71,0.09 0.24,0.02 0.49,0.04 0.74,0.05 0.25,0.01 0.5,0.01 0.74,-0 0.25,-0 0.49,-0.03 0.72,-0.05 0.23,-0.02 0.46,-0.06 0.67,-0.09 0.21,-0.04 0.41,-0.07 0.59,-0.12 0.73,-0.16 1.18,-0.37 1.18,-0.37 0,0 -0.49,0.05 -1.22,0.1 -0.18,0.01 -0.38,0.02 -0.59,0.03 -0.21,0.01 -0.43,0.01 -0.66,0.02 -0.23,0 -0.46,0.01 -0.7,0.01 -0.24,0 -0.48,0 -0.72,-0.01 -0.48,-0.01 -0.97,-0.04 -1.42,-0.08 -0.23,-0.02 -0.44,-0.05 -0.65,-0.07 -0.21,-0.02 -0.4,-0.05 -0.58,-0.07 -0.18,-0.03 -0.35,-0.04 -0.5,-0.07 -0.15,-0.02 -0.28,-0.05 -0.38,-0.06 -0.21,-0.03 -0.34,-0.05 -0.34,-0.05 0,0 0.11,0.05 0.31,0.14 0.1,0.04 0.22,0.1 0.36,0.15z"/>
   <path fill="black" fill-rule="nonzero" d="M100.65 132.76c-0.78,-0.22 -1.7,-0.46 -2.68,-0.71 -0.49,-0.12 -1,-0.26 -1.52,-0.38 -0.52,-0.13 -1.04,-0.25 -1.57,-0.38 -0.53,-0.12 -1.05,-0.24 -1.57,-0.37 -0.52,-0.12 -1.03,-0.23 -1.53,-0.34 -0.99,-0.22 -1.91,-0.41 -2.71,-0.57 -0.79,-0.16 -1.46,-0.27 -1.93,-0.37 -0.47,-0.08 -0.73,-0.13 -0.73,-0.13 0,0 0.26,0.08 0.71,0.22 0.45,0.13 1.1,0.33 1.88,0.54 0.78,0.22 1.69,0.46 2.68,0.71 0.49,0.12 1,0.26 1.52,0.38 0.52,0.13 1.04,0.25 1.57,0.38 0.53,0.12 1.05,0.25 1.57,0.37 0.52,0.12 1.03,0.23 1.53,0.34 0.99,0.22 1.91,0.41 2.71,0.57 0.79,0.16 1.46,0.28 1.93,0.37 0.47,0.08 0.73,0.13 0.73,0.13 0,0 -0.26,-0.08 -0.71,-0.22 -0.46,-0.13 -1.1,-0.33 -1.88,-0.54z"/>
   <path fill="black" fill-rule="nonzero" d="M99.8 133.94c-0.74,-0.21 -1.6,-0.44 -2.53,-0.68 -0.47,-0.12 -0.94,-0.25 -1.43,-0.36 -0.49,-0.12 -0.99,-0.24 -1.48,-0.36 -0.5,-0.12 -1,-0.23 -1.49,-0.35 -0.49,-0.12 -0.97,-0.22 -1.44,-0.32 -0.94,-0.21 -1.81,-0.39 -2.57,-0.54 -0.75,-0.15 -1.39,-0.26 -1.83,-0.34 -0.44,-0.08 -0.69,-0.12 -0.69,-0.12 0,0 0.24,0.08 0.67,0.21 0.43,0.13 1.04,0.31 1.78,0.52 0.74,0.21 1.6,0.44 2.53,0.68 0.47,0.12 0.94,0.25 1.43,0.36 0.49,0.12 0.99,0.24 1.48,0.36 0.5,0.12 0.99,0.23 1.49,0.35 0.49,0.12 0.97,0.22 1.44,0.32 0.94,0.21 1.81,0.39 2.57,0.54 0.75,0.15 1.38,0.26 1.82,0.34 0.44,0.08 0.7,0.12 0.7,0.12 0,0 -0.24,-0.08 -0.67,-0.21 -0.43,-0.12 -1.04,-0.31 -1.78,-0.52z"/>
   <path fill="black" fill-rule="nonzero" d="M91.46 129.55c0.43,0.11 0.88,0.23 1.33,0.34 0.45,0.11 0.91,0.22 1.38,0.34 0.46,0.11 0.92,0.21 1.38,0.32 0.45,0.11 0.9,0.2 1.34,0.3 0.87,0.19 1.68,0.36 2.38,0.49 1.4,0.28 2.34,0.42 2.34,0.42 0,0 -0.91,-0.3 -2.28,-0.68 -0.68,-0.19 -1.49,-0.41 -2.35,-0.63 -0.43,-0.11 -0.88,-0.23 -1.33,-0.34 -0.45,-0.11 -0.92,-0.22 -1.38,-0.34 -0.46,-0.11 -0.92,-0.22 -1.38,-0.32 -0.45,-0.11 -0.9,-0.2 -1.34,-0.3 -0.87,-0.19 -1.68,-0.36 -2.38,-0.49 -1.4,-0.28 -2.34,-0.42 -2.34,-0.42 0,0 0.9,0.3 2.28,0.68 0.69,0.19 1.49,0.41 2.35,0.63z"/>
   <path fill="black" fill-rule="nonzero" d="M90.91 128.05c0.36,0.09 0.72,0.19 1.1,0.28 0.38,0.09 0.76,0.19 1.14,0.28 0.38,0.09 0.77,0.18 1.15,0.26 0.38,0.09 0.75,0.16 1.11,0.24 0.72,0.16 1.4,0.29 1.98,0.4 1.16,0.22 1.95,0.32 1.95,0.32 0,0 -0.75,-0.26 -1.88,-0.59 -0.57,-0.17 -1.23,-0.35 -1.94,-0.54 -0.36,-0.09 -0.73,-0.19 -1.1,-0.28 -0.38,-0.09 -0.76,-0.19 -1.14,-0.28 -0.38,-0.09 -0.77,-0.18 -1.14,-0.26 -0.38,-0.09 -0.75,-0.16 -1.11,-0.24 -0.72,-0.16 -1.4,-0.29 -1.98,-0.4 -1.16,-0.22 -1.95,-0.32 -1.95,-0.32 0,0 0.75,0.26 1.88,0.59 0.57,0.17 1.23,0.35 1.94,0.54z"/>
   <path fill="black" fill-rule="nonzero" d="M96.1 134.37c-0.43,-0.11 -0.87,-0.23 -1.31,-0.33 -0.45,-0.11 -0.9,-0.22 -1.36,-0.33 -0.46,-0.11 -0.91,-0.21 -1.36,-0.32 -0.45,-0.11 -0.89,-0.2 -1.32,-0.29 -0.86,-0.19 -1.66,-0.35 -2.35,-0.49 -1.38,-0.27 -2.31,-0.41 -2.31,-0.41 0,0 0.89,0.3 2.25,0.68 0.68,0.19 1.47,0.41 2.32,0.63 0.43,0.11 0.86,0.23 1.31,0.33 0.45,0.11 0.9,0.22 1.36,0.33 0.46,0.1 0.91,0.21 1.36,0.32 0.45,0.1 0.89,0.2 1.32,0.29 0.86,0.19 1.66,0.35 2.35,0.49 1.38,0.27 2.31,0.41 2.31,0.41 0,0 -0.89,-0.3 -2.25,-0.68 -0.68,-0.19 -1.47,-0.41 -2.32,-0.63z"/>
   <path fill="black" fill-rule="nonzero" d="M97.55 136.16c-0.33,-0.1 -0.69,-0.18 -1.05,-0.27 -0.36,-0.08 -0.72,-0.17 -1.06,-0.23 -0.34,-0.07 -0.66,-0.12 -0.93,-0.17 -0.55,-0.09 -0.92,-0.11 -0.92,-0.11 0,0 0.35,0.14 0.87,0.31 0.26,0.09 0.57,0.18 0.91,0.27 0.33,0.09 0.69,0.18 1.05,0.27 0.36,0.08 0.72,0.17 1.06,0.23 0.34,0.07 0.66,0.12 0.93,0.17 0.55,0.09 0.92,0.11 0.92,0.11 0,0 -0.35,-0.14 -0.87,-0.31 -0.26,-0.09 -0.57,-0.18 -0.91,-0.27z"/>
   <path fill="black" fill-rule="nonzero" d="M96.63 137.36c-0.33,-0.08 -0.67,-0.14 -0.93,-0.17 -0.26,-0.03 -0.43,-0.03 -0.43,-0.03 0,0 0.16,0.08 0.4,0.17 0.24,0.09 0.57,0.19 0.91,0.27 0.33,0.08 0.68,0.14 0.93,0.17 0.26,0.03 0.43,0.03 0.43,0.03 0,0 -0.16,-0.08 -0.4,-0.17 -0.24,-0.09 -0.57,-0.19 -0.91,-0.27z"/>
   <polygon fill="black" fill-rule="nonzero" points="66.34,150.98 54.07,150.98 60.21,154.43 "/>
   <path fill="black" fill-rule="nonzero" d="M66.22 120.19c-0.96,-0.02 -1.95,-0.06 -2.96,-0.06 -1.01,-0.01 -2.03,-0.02 -3.06,-0.02 -1.02,0.01 -2.05,0.02 -3.06,0.02 -1.01,0 -2,0.04 -2.96,0.06 -0.96,0.02 -1.89,0.06 -2.77,0.09 -0.88,0.03 -1.71,0.08 -2.48,0.12 -3.07,0.17 -5.12,0.4 -5.12,0.4 0,0 2.05,0.23 5.12,0.4 0.77,0.04 1.6,0.09 2.48,0.12 0.88,0.03 1.81,0.08 2.77,0.09 0.96,0.02 1.95,0.06 2.96,0.06 1.01,0.01 2.03,0.02 3.06,0.02 1.02,-0.01 2.05,-0.01 3.06,-0.02 1.01,0 2,-0.04 2.96,-0.06 1.92,-0.05 3.71,-0.12 5.25,-0.21 3.07,-0.17 5.12,-0.4 5.12,-0.4 0,0 -2.05,-0.24 -5.12,-0.4 -1.54,-0.09 -3.33,-0.17 -5.25,-0.21z"/>
   <path fill="black" fill-rule="nonzero" d="M102.82 135.34c0.03,-0.03 0.06,-0.06 0.09,-0.09 0.32,-0.29 0.63,-0.6 0.94,-0.9 0.31,-0.3 0.62,-0.61 0.92,-0.92 -0.36,0.24 -0.71,0.49 -1.06,0.75 -0.35,0.26 -0.7,0.51 -1.05,0.77 -0.34,0.26 -0.69,0.52 -1.03,0.78l-1.02 0.8c-0.67,0.54 -1.35,1.08 -2.01,1.63l-1 0.83 -0.72 0.62c-0.34,-0.39 -0.68,-0.78 -1.02,-1.17 -0.42,-0.48 -0.85,-0.95 -1.28,-1.42 -0.21,-0.24 -0.43,-0.47 -0.65,-0.7 -0.22,-0.23 -0.43,-0.47 -0.66,-0.69 -0.44,-0.46 -0.89,-0.92 -1.34,-1.36 0.36,0.53 0.73,1.05 1.11,1.56 0.19,0.26 0.38,0.51 0.57,0.77 0.19,0.25 0.38,0.51 0.58,0.76 0.1,0.12 0.19,0.25 0.29,0.37 -1.02,-1.22 -2.16,-2.58 -2.88,-3.44 -1.27,-1.51 -4.29,-0.19 -5.43,0.39l-0.94 -1.12 1.71 -9.84c0.15,0.2 0.33,0.43 0.53,0.68 0.12,0.16 0.25,0.32 0.39,0.5 0.07,0.09 0.14,0.18 0.21,0.27 0.04,0.05 0.12,0.11 0.17,0.14 0.06,0.04 0.12,0.07 0.18,0.09 0.47,0.22 0.99,0.36 1.53,0.52 0.37,0.11 0.75,0.22 1.14,0.33 -0.16,-0.03 -0.32,-0.07 -0.48,-0.1 -0.58,-0.12 -1.13,-0.23 -1.6,-0.31 -0.94,-0.17 -1.57,-0.23 -1.57,-0.23 0,0 0.6,0.23 1.51,0.5 0.46,0.14 0.99,0.29 1.56,0.45 0.29,0.07 0.58,0.16 0.89,0.23 0.3,0.07 0.61,0.15 0.92,0.23 0.31,0.07 0.62,0.14 0.92,0.21 0.3,0.07 0.61,0.13 0.9,0.19 0.46,0.1 0.9,0.18 1.3,0.25 0.55,0.22 1.1,0.44 1.63,0.68 0.58,0.26 1.14,0.54 1.68,0.83 1.07,0.57 2.03,1.19 2.81,1.76 0.39,0.29 0.74,0.57 1.05,0.82 0.3,0.26 0.56,0.49 0.78,0.68 0.42,0.39 0.66,0.62 0.66,0.62 0,0 -0.05,-0.07 -0.14,-0.19 -0.09,-0.13 -0.22,-0.31 -0.41,-0.53 -0.36,-0.45 -0.92,-1.07 -1.66,-1.74 -0.75,-0.66 -1.69,-1.36 -2.77,-2 -0.01,-0.01 -0.02,-0.01 -0.03,-0.02 2.14,1.12 4.27,2.65 6.09,4.81l-2.29 1.92zm-17.33 2.47c-0.05,0.2 -0.15,0.38 -0.31,0.52 -0.2,0.18 -0.41,0.36 -0.61,0.54 -0.42,0.36 -0.84,0.73 -1.28,1.08 -0.22,0.18 -0.43,0.36 -0.65,0.54l-0.33 0.26 -0.04 0.03 0 0 -0 0 -0.02 0.01 -0.08 0.06 -0.09 0.06c-0.03,0.01 -0.05,0.02 -0.07,0.03 -0.08,0.04 -0.19,0.07 -0.29,0.09 -0.11,0.01 -0.22,0.03 -0.33,0.01 -0.06,-0.01 -0.11,-0.01 -0.17,-0.01l-0.17 -0.04c-0.11,-0.02 -0.22,-0.07 -0.33,-0.1 -0.44,-0.16 -0.84,-0.44 -1.17,-0.75 -0.16,-0.16 -0.32,-0.31 -0.46,-0.49 -0.14,-0.17 -0.26,-0.34 -0.37,-0.52 -0.23,-0.34 -0.39,-0.7 -0.53,-1.01 -0.03,-0.07 -0.05,-0.15 -0.08,-0.22l2.55 -2.14c0.55,0.2 1.11,0.49 1.47,0.92 0.91,1.08 -0.35,2.56 0.06,2.77 0.41,0.21 1.18,-1.09 1.14,-1.9 -0.04,-0.81 -0.27,-1.28 -0.75,-1.85 -0.19,-0.22 -0.37,-0.52 -0.49,-0.84 0.94,-0.23 2,0.1 2.65,0.37 0.03,0.05 0.06,0.1 0.09,0.15 0.2,0.34 0.4,0.72 0.54,1.14 0.14,0.41 0.22,0.87 0.11,1.27zm-8.79 0.5c-0.63,0.52 -1.23,1 -1.75,1.42 -0.51,0.41 -0.95,0.75 -1.25,0.99 -0.3,0.24 -0.48,0.37 -0.48,0.37 0,0 0.16,-0.15 0.45,-0.41 0.29,-0.25 0.69,-0.62 1.19,-1.06 0.5,-0.43 1.07,-0.94 1.7,-1.47 0.63,-0.53 1.3,-1.1 1.96,-1.67 0.67,-0.56 1.35,-1.12 1.98,-1.64 0.08,-0.07 0.15,-0.13 0.24,-0.2 0.08,-0.06 0.16,-0.12 0.25,-0.18 0.18,-0.11 0.36,-0.19 0.54,-0.26 0.37,-0.13 0.74,-0.17 1.07,-0.17 0.67,0 1.21,0.16 1.58,0.26 0.18,0.06 0.33,0.1 0.42,0.14 0.1,0.03 0.15,0.05 0.15,0.05 0,0 -0.05,-0.01 -0.15,-0.04 -0.1,-0.03 -0.25,-0.06 -0.43,-0.11 -0.37,-0.08 -0.91,-0.19 -1.56,-0.17 -0.32,0.01 -0.67,0.07 -1.01,0.2 -0.34,0.13 -0.65,0.36 -0.96,0.63 -0.63,0.53 -1.3,1.1 -1.96,1.67 -0.68,0.56 -1.35,1.12 -1.98,1.64zm-4.43 -2.58c-0.28,0.22 -0.53,0.4 -0.69,0.52 -0.17,0.13 -0.27,0.2 -0.27,0.2 0,0 0.09,-0.08 0.24,-0.23 0.16,-0.14 0.37,-0.35 0.64,-0.59 0.27,-0.24 0.58,-0.52 0.92,-0.82 0.34,-0.3 0.7,-0.61 1.07,-0.92l0.03 -0.03 0.04 -0.03 0.07 -0.05c0.06,-0.04 0.12,-0.07 0.18,-0.1 0.12,-0.05 0.25,-0.09 0.38,-0.1 0.26,-0.03 0.52,0.03 0.73,0.16 0.11,0.06 0.2,0.14 0.28,0.23 0.08,0.09 0.14,0.17 0.2,0.25 0.04,0.05 0.06,0.08 0.09,0.13 0.03,0.05 0.06,0.09 0.08,0.14 0.05,0.09 0.07,0.19 0.09,0.28 0.07,0.38 -0.08,0.69 -0.2,0.86 -0.05,0.07 -0.1,0.11 -0.14,0.15l-0.1 0.08 0 0c0,0 0.02,-0.02 0.06,-0.06 0.04,-0.04 0.09,-0.11 0.14,-0.2 0.1,-0.18 0.19,-0.47 0.11,-0.81 -0.02,-0.08 -0.05,-0.17 -0.1,-0.24 -0.02,-0.04 -0.05,-0.07 -0.07,-0.11 -0.03,-0.04 -0.07,-0.08 -0.1,-0.11 -0.14,-0.16 -0.27,-0.32 -0.45,-0.41 -0.18,-0.1 -0.39,-0.14 -0.6,-0.12 -0.1,0.01 -0.21,0.04 -0.3,0.09 -0.05,0.02 -0.09,0.05 -0.14,0.07l-0.07 0.05 -0.03 0.02 -0.03 0.03c-0.37,0.31 -0.74,0.61 -1.09,0.89 -0.35,0.28 -0.68,0.54 -0.97,0.76zm1.72 -3.6c-0.03,-0.08 -0.07,-0.15 -0.11,-0.21 -0.02,-0.03 -0.06,-0.08 -0.08,-0.1l-0.09 -0.1c-0.12,-0.15 -0.22,-0.26 -0.36,-0.34 -0.14,-0.08 -0.3,-0.13 -0.46,-0.13 -0.16,-0.01 -0.32,0.03 -0.46,0.09 -0.07,0.03 -0.13,0.07 -0.2,0.13 -0.06,0.05 -0.13,0.11 -0.19,0.16 -0.52,0.43 -1.02,0.82 -1.44,1.16 -0.42,0.34 -0.78,0.61 -1.03,0.81 -0.25,0.19 -0.4,0.3 -0.4,0.3 0,0 0.13,-0.12 0.36,-0.33l-0.19 -0.23c-0.06,0.04 -0.12,0.09 -0.16,0.12 -0.15,0.11 -0.24,0.17 -0.24,0.17 0,0 0.07,-0.07 0.21,-0.2 0.13,-0.12 0.32,-0.31 0.55,-0.52 0.23,-0.21 0.5,-0.46 0.8,-0.72 0.29,-0.26 0.61,-0.53 0.93,-0.8 0.16,-0.13 0.33,-0.27 0.47,-0.4 0.14,-0.12 0.23,-0.28 0.29,-0.45 0.05,-0.17 0.06,-0.35 0.02,-0.51 -0.02,-0.08 -0.04,-0.16 -0.07,-0.23 -0.03,-0.07 -0.07,-0.13 -0.12,-0.2 -0.09,-0.12 -0.18,-0.24 -0.26,-0.33 -0.08,-0.09 -0.17,-0.15 -0.25,-0.2 -0.16,-0.09 -0.26,-0.11 -0.26,-0.11 0,0 0.03,0 0.07,0.01 0.05,0.01 0.12,0.02 0.21,0.06 0.05,0.02 0.12,0.06 0.18,0.1l3.12 -2.62 0.18 0.21 -3.09 2.59c0.06,0.06 0.13,0.13 0.2,0.21 0.05,0.06 0.1,0.13 0.15,0.21 0,0.01 0.01,0.02 0.01,0.02l3.09 -2.6 1.05 1.25 -3.19 2.68c0.08,0.03 0.17,0.06 0.24,0.1 0.09,0.05 0.17,0.11 0.24,0.18 0.07,0.07 0.14,0.14 0.19,0.21l0.09 0.1c0.04,0.05 0.06,0.07 0.08,0.12 0.06,0.09 0.1,0.18 0.14,0.27 0.01,0.02 0.01,0.04 0.02,0.06l3.12 -2.62 0.26 0.31 -0.82 0.69 -2.52 2.11c0,0.01 0,0.02 -0,0.02 -0.03,0.19 -0.1,0.38 -0.22,0.53 -0.05,0.08 -0.12,0.15 -0.19,0.21 -0.07,0.05 -0.13,0.11 -0.2,0.17 -0.52,0.43 -1.02,0.82 -1.44,1.16 -0.42,0.34 -0.78,0.61 -1.03,0.81 -0.25,0.19 -0.4,0.3 -0.4,0.3 0,0 0.13,-0.12 0.37,-0.34 0.24,-0.21 0.57,-0.52 0.98,-0.88 0.41,-0.36 0.88,-0.78 1.4,-1.22 0.06,-0.05 0.13,-0.11 0.19,-0.17 0.06,-0.05 0.11,-0.11 0.16,-0.17 0.09,-0.13 0.15,-0.28 0.17,-0.44 0.02,-0.16 0.01,-0.32 -0.05,-0.48zm-2.23 7.21l-0.44 -0.52 0.24 -1.09 -0.68 0.57c0,0 -0.44,0.21 -0.86,0.22l1.44 -1.21c-0.21,-0.23 -0.44,-0.49 -0.67,-0.76 -0.17,-0.19 -0.34,-0.39 -0.52,-0.6l-1.56 1.31 -0.85 -1.01 1.56 -1.31c-0.24,-0.29 -0.47,-0.57 -0.69,-0.84 -0.1,-0.12 -0.2,-0.24 -0.29,-0.36l-1.57 1.32 -0.18 -0.21 1.58 -1.32c-0.13,-0.16 -0.24,-0.31 -0.36,-0.45l-1.59 1.34 -1.27 -1.52c0.03,-0.25 0.15,-0.61 0.58,-0.97 0.8,-0.67 4.04,-3.39 4.04,-3.39l4.77 -4 -4.15 2.84c0.13,-0.16 0.28,-0.32 0.47,-0.47 0.87,-0.73 3.41,-2.86 3.41,-2.86 0,0 7.29,2.83 11.9,-0.27 -0.49,1.78 -1.42,3.39 -2.37,4.71 0.11,-0.21 0.21,-0.43 0.31,-0.63 0.11,-0.22 0.2,-0.45 0.3,-0.66 0.1,-0.21 0.17,-0.43 0.26,-0.63 0.08,-0.2 0.15,-0.39 0.21,-0.57 0.06,-0.18 0.12,-0.34 0.17,-0.48 0.04,-0.15 0.08,-0.27 0.12,-0.38 0.07,-0.21 0.1,-0.33 0.1,-0.33 0,0 -0.05,0.11 -0.15,0.31 -0.05,0.1 -0.1,0.22 -0.17,0.35 -0.07,0.14 -0.15,0.28 -0.24,0.45 -0.09,0.16 -0.18,0.34 -0.29,0.52 -0.11,0.18 -0.22,0.38 -0.34,0.57 -0.13,0.19 -0.25,0.4 -0.39,0.6 -0.14,0.2 -0.27,0.41 -0.42,0.6 -0.29,0.4 -0.59,0.78 -0.88,1.13 -0.29,0.35 -0.58,0.67 -0.83,0.93 -0.11,0.12 -0.21,0.22 -0.31,0.32 -0.01,-0.02 -0.02,-0.04 -0.03,-0.06 -0.09,-0.21 -0.22,-0.43 -0.35,-0.67 -0.14,-0.23 -0.28,-0.47 -0.45,-0.7 -0.08,-0.12 -0.17,-0.24 -0.26,-0.36 -0.09,-0.12 -0.19,-0.23 -0.28,-0.35 -0.18,-0.24 -0.4,-0.45 -0.61,-0.67 -0.1,-0.11 -0.22,-0.21 -0.33,-0.31 -0.11,-0.1 -0.23,-0.2 -0.34,-0.29 -0.23,-0.19 -0.47,-0.35 -0.69,-0.52 -0.23,-0.16 -0.47,-0.29 -0.68,-0.42 -0.21,-0.14 -0.44,-0.23 -0.63,-0.33 -0.2,-0.09 -0.37,-0.19 -0.54,-0.25 -0.17,-0.06 -0.31,-0.12 -0.43,-0.16 -0.24,-0.09 -0.37,-0.14 -0.37,-0.14 0,0 0.13,0.07 0.34,0.2 0.11,0.06 0.24,0.14 0.39,0.23 0.15,0.08 0.31,0.21 0.48,0.33 0.17,0.13 0.37,0.25 0.55,0.42 0.18,0.17 0.38,0.32 0.57,0.51 0.18,0.19 0.38,0.38 0.55,0.59 0.09,0.11 0.17,0.22 0.26,0.32 0.09,0.11 0.17,0.22 0.25,0.33 0.15,0.23 0.31,0.45 0.44,0.69 0.06,0.12 0.13,0.23 0.19,0.35 0.05,0.12 0.11,0.24 0.17,0.35 0.11,0.23 0.19,0.46 0.28,0.68 0.07,0.22 0.15,0.43 0.19,0.62 0.01,0.05 0.03,0.1 0.04,0.15l-3.62 -4.31 -0.37 -0.44 -0.93 -1.11 -4.62 3.87 -2.99 2.51 -0.27 0.22c0,0 0.09,0.1 0.26,0.27 0.16,0.18 0.4,0.42 0.67,0.73 0.27,0.31 0.59,0.66 0.92,1.04 0.34,0.39 0.69,0.8 1.04,1.22 0.35,0.42 0.7,0.84 1.02,1.23 0.32,0.4 0.61,0.77 0.87,1.09 0.25,0.32 0.45,0.6 0.6,0.78 0.14,0.19 0.22,0.3 0.22,0.3l-0.89 0.74zm-10.67 4.32l0 0c-0.58,-0.17 -1.26,-0.29 -1.84,-0.18l8.07 -6.77 0.85 1.01 -7.08 5.94zm14.41 6.54l-0.15 0.17 -9.62 -8.07 0.17 -0.15 9.59 8.05zm-1.09 1.3l-9.82 -8.24 0.81 -0.68 9.68 8.12 -0.67 0.79zm-0.54 0.65l-9.93 -8.33 0.21 -0.18 9.89 8.3 -0.18 0.21zm-1.39 0.73c-0.3,-0.24 -0.72,-0.56 -1.23,-0.97 -0.5,-0.41 -1.1,-0.88 -1.72,-1.39 -0.62,-0.52 -1.29,-1.07 -1.96,-1.62 -0.66,-0.56 -1.32,-1.12 -1.93,-1.64 -0.62,-0.52 -1.18,-1.03 -1.67,-1.45 -0.49,-0.42 -0.89,-0.79 -1.17,-1.04 0,-0 -0,-0 -0,-0 0.01,-0.01 0.03,-0.02 0.04,-0.03 0.29,0.23 0.72,0.56 1.22,0.96 0.5,0.41 1.1,0.88 1.72,1.4 0.62,0.52 1.29,1.07 1.96,1.62 0.66,0.56 1.32,1.12 1.93,1.64 0.62,0.52 1.18,1.03 1.67,1.45 0.49,0.42 0.89,0.79 1.17,1.04 0.28,0.25 0.44,0.4 0.44,0.4 0,0 -0.17,-0.13 -0.47,-0.36zm-16.07 -7.08c-0.49,0.42 -1.06,0.93 -1.67,1.45 -0.62,0.53 -1.28,1.09 -1.93,1.64 -0.66,0.55 -1.33,1.1 -1.95,1.62 -0.62,0.52 -1.22,0.99 -1.72,1.39 -0.5,0.41 -0.93,0.74 -1.23,0.97 -0.3,0.23 -0.47,0.36 -0.47,0.36 0,0 0.16,-0.15 0.44,-0.4 0.28,-0.25 0.68,-0.62 1.17,-1.04 0.49,-0.42 1.05,-0.93 1.67,-1.45 0.62,-0.52 1.28,-1.08 1.93,-1.64 0.67,-0.55 1.33,-1.1 1.96,-1.62 0.62,-0.52 1.22,-0.99 1.72,-1.4 0.5,-0.41 0.93,-0.74 1.23,-0.97 0.3,-0.23 0.47,-0.37 0.47,-0.37 0,0 -0.16,0.15 -0.44,0.4 -0.28,0.25 -0.68,0.62 -1.17,1.04zm-9.89 6.35l-0.18 -0.21 19.81 -16.62 0.18 0.21 -19.81 16.62zm-1.21 -1.44l19.81 -16.62 0.67 0.79 -19.81 16.62 -0.67 -0.79zm-0.42 -0.5l19.81 -16.62 0.14 0.17 -19.81 16.62 -0.15 -0.17zm7.33 -12.48l0.85 -1.01 3.39 2.84 -1.02 0.86 -3.21 -2.7zm-2.11 -1.77c-0.18,0.2 -0.35,0.41 -0.52,0.6 -0.23,0.27 -0.46,0.52 -0.67,0.76l1.44 1.21c-0.43,-0.01 -0.86,-0.22 -0.86,-0.22l-0.68 -0.57 0.24 1.09 -0.44 0.52 -0.89 -0.74c0,0 0.08,-0.11 0.22,-0.3 0.15,-0.19 0.35,-0.46 0.6,-0.78 0.25,-0.32 0.54,-0.7 0.87,-1.09 0.32,-0.4 0.67,-0.82 1.02,-1.23 0.35,-0.42 0.7,-0.83 1.04,-1.22 0.33,-0.39 0.66,-0.74 0.93,-1.04 0.27,-0.31 0.51,-0.55 0.67,-0.73 0.16,-0.17 0.26,-0.27 0.26,-0.27l-0.27 -0.22 -2.99 -2.51 -4.62 -3.87 -0.93 1.11 -0.37 0.44 -3.62 4.31c0.01,-0.05 0.02,-0.1 0.04,-0.15 0.05,-0.2 0.12,-0.4 0.19,-0.62 0.09,-0.21 0.16,-0.45 0.28,-0.68 0.05,-0.12 0.11,-0.23 0.17,-0.35 0.06,-0.12 0.13,-0.23 0.19,-0.35 0.13,-0.24 0.28,-0.46 0.44,-0.69 0.07,-0.12 0.16,-0.23 0.25,-0.33 0.09,-0.11 0.17,-0.22 0.26,-0.32 0.18,-0.21 0.37,-0.4 0.55,-0.59 0.19,-0.19 0.39,-0.35 0.57,-0.51 0.18,-0.17 0.38,-0.29 0.55,-0.42 0.17,-0.12 0.33,-0.25 0.48,-0.33 0.15,-0.09 0.28,-0.17 0.39,-0.23 0.22,-0.13 0.34,-0.2 0.34,-0.2 0,0 -0.14,0.05 -0.37,0.14 -0.12,0.04 -0.26,0.1 -0.43,0.16 -0.17,0.05 -0.35,0.16 -0.54,0.25 -0.19,0.1 -0.42,0.19 -0.63,0.33 -0.21,0.13 -0.45,0.26 -0.68,0.42 -0.22,0.17 -0.47,0.33 -0.69,0.52 -0.11,0.1 -0.23,0.2 -0.34,0.29 -0.12,0.1 -0.23,0.2 -0.33,0.31 -0.21,0.22 -0.43,0.43 -0.61,0.67 -0.09,0.12 -0.19,0.23 -0.28,0.35 -0.09,0.12 -0.17,0.24 -0.26,0.36 -0.17,0.23 -0.31,0.48 -0.45,0.7 -0.12,0.23 -0.25,0.45 -0.35,0.67 -0.01,0.02 -0.02,0.04 -0.03,0.06 -0.09,-0.09 -0.2,-0.2 -0.31,-0.32 -0.25,-0.26 -0.53,-0.58 -0.83,-0.93 -0.29,-0.35 -0.59,-0.74 -0.88,-1.13 -0.15,-0.2 -0.28,-0.4 -0.42,-0.6 -0.14,-0.2 -0.26,-0.4 -0.39,-0.6 -0.13,-0.19 -0.23,-0.39 -0.34,-0.57 -0.11,-0.18 -0.2,-0.36 -0.29,-0.52 -0.09,-0.16 -0.17,-0.31 -0.24,-0.45 -0.07,-0.14 -0.12,-0.25 -0.17,-0.35 -0.09,-0.2 -0.15,-0.31 -0.15,-0.31 0,0 0.04,0.12 0.1,0.33 0.03,0.1 0.07,0.23 0.12,0.38 0.04,0.15 0.11,0.3 0.17,0.48 0.06,0.18 0.13,0.37 0.21,0.57 0.08,0.2 0.16,0.41 0.26,0.63 0.1,0.21 0.19,0.44 0.3,0.66 0.1,0.21 0.2,0.42 0.31,0.63 -0.95,-1.32 -1.88,-2.93 -2.37,-4.71 4.61,3.1 11.9,0.27 11.9,0.27 0,0 2.54,2.13 3.41,2.86 0.18,0.15 0.34,0.31 0.47,0.47l-4.15 -2.84 4.77 4c0,0 3.24,2.72 4.04,3.39 0.43,0.36 0.56,0.71 0.58,0.97l-1.27 1.52 -1.59 -1.34c-0.11,0.14 -0.23,0.29 -0.36,0.45l1.58 1.32 -0.18 0.21 -1.57 -1.32c-0.09,0.12 -0.19,0.24 -0.29,0.36 -0.22,0.27 -0.45,0.56 -0.69,0.84l1.56 1.31 -0.85 1.01 -1.56 -1.31zm-2.95 -0.99c-0.35,-0.28 -0.72,-0.59 -1.09,-0.89l-0.03 -0.03 -0.03 -0.02 -0.07 -0.05c-0.04,-0.03 -0.08,-0.05 -0.13,-0.07 -0.1,-0.04 -0.2,-0.08 -0.31,-0.09 -0.21,-0.02 -0.42,0.01 -0.6,0.12 -0.18,0.09 -0.31,0.25 -0.45,0.41 -0.03,0.03 -0.06,0.08 -0.09,0.11 -0.02,0.04 -0.05,0.07 -0.07,0.11 -0.04,0.08 -0.07,0.16 -0.1,0.24 -0.08,0.33 0.01,0.63 0.11,0.81 0.05,0.09 0.1,0.15 0.14,0.2 0.04,0.04 0.06,0.06 0.06,0.06l0 0 -0.1 -0.08c-0.04,-0.04 -0.09,-0.08 -0.14,-0.15 -0.12,-0.17 -0.27,-0.48 -0.2,-0.86 0.02,-0.09 0.04,-0.19 0.09,-0.28 0.02,-0.05 0.05,-0.09 0.08,-0.14 0.03,-0.04 0.05,-0.08 0.09,-0.13 0.07,-0.08 0.12,-0.16 0.2,-0.25 0.08,-0.09 0.17,-0.17 0.28,-0.23 0.21,-0.13 0.47,-0.19 0.73,-0.16 0.13,0.01 0.26,0.05 0.38,0.1 0.06,0.03 0.12,0.06 0.18,0.1l0.07 0.05 0.04 0.03 0.03 0.03c0.37,0.31 0.73,0.62 1.07,0.92 0.34,0.3 0.65,0.58 0.92,0.82 0.27,0.24 0.48,0.45 0.64,0.59 0.15,0.15 0.24,0.23 0.24,0.23 0,0 -0.1,-0.07 -0.27,-0.2 -0.17,-0.13 -0.41,-0.3 -0.69,-0.52 -0.28,-0.22 -0.62,-0.48 -0.97,-0.76zm-3.18 -6.57l1.05 -1.25 3.09 2.6c0,-0.01 0.01,-0.02 0.01,-0.02 0.05,-0.08 0.1,-0.15 0.15,-0.21 0.07,-0.08 0.14,-0.15 0.2,-0.21l-3.09 -2.59 0.18 -0.21 3.13 2.62c0.06,-0.04 0.13,-0.08 0.18,-0.1 0.09,-0.04 0.16,-0.05 0.21,-0.06 0.05,-0.01 0.07,-0.01 0.07,-0.01 0,0 -0.1,0.02 -0.26,0.11 -0.08,0.04 -0.17,0.11 -0.25,0.2 -0.08,0.09 -0.16,0.21 -0.26,0.33 -0.05,0.06 -0.09,0.13 -0.12,0.2 -0.03,0.07 -0.06,0.15 -0.07,0.23 -0.03,0.16 -0.02,0.34 0.02,0.51 0.05,0.17 0.15,0.33 0.29,0.45 0.14,0.13 0.31,0.26 0.47,0.4 0.32,0.27 0.64,0.54 0.93,0.8 0.29,0.26 0.56,0.51 0.8,0.72 0.23,0.21 0.42,0.4 0.55,0.52 0.13,0.13 0.2,0.2 0.2,0.2 0,0 -0.08,-0.06 -0.23,-0.17 -0.05,-0.03 -0.1,-0.08 -0.16,-0.12l-0.19 0.23c0.23,0.21 0.36,0.33 0.36,0.33 0,0 -0.14,-0.11 -0.4,-0.3 -0.25,-0.2 -0.61,-0.47 -1.03,-0.81 -0.42,-0.34 -0.92,-0.73 -1.44,-1.16 -0.06,-0.05 -0.13,-0.1 -0.19,-0.16 -0.07,-0.06 -0.13,-0.09 -0.2,-0.13 -0.14,-0.07 -0.3,-0.1 -0.46,-0.09 -0.16,0.01 -0.32,0.05 -0.46,0.13 -0.15,0.08 -0.25,0.19 -0.36,0.34l-0.09 0.1c-0.02,0.02 -0.06,0.07 -0.08,0.1 -0.04,0.06 -0.08,0.14 -0.11,0.21 -0.06,0.15 -0.07,0.32 -0.05,0.48 0.02,0.16 0.08,0.31 0.17,0.44 0.04,0.07 0.1,0.12 0.16,0.17 0.06,0.06 0.13,0.11 0.19,0.17 0.52,0.44 0.99,0.86 1.4,1.22 0.41,0.36 0.74,0.67 0.98,0.88 0.23,0.21 0.37,0.34 0.37,0.34 0,0 -0.14,-0.11 -0.4,-0.3 -0.25,-0.2 -0.61,-0.47 -1.03,-0.81 -0.42,-0.34 -0.92,-0.73 -1.44,-1.16 -0.07,-0.05 -0.13,-0.11 -0.2,-0.17 -0.07,-0.06 -0.14,-0.13 -0.19,-0.21 -0.11,-0.15 -0.19,-0.34 -0.22,-0.53 -0,-0.01 -0,-0.02 -0,-0.02l-2.52 -2.11 -0.82 -0.69 0.26 -0.31 3.12 2.62c0.01,-0.02 0.01,-0.04 0.02,-0.06 0.03,-0.09 0.08,-0.18 0.13,-0.27 0.03,-0.04 0.05,-0.07 0.08,-0.12l0.09 -0.1c0.06,-0.07 0.12,-0.14 0.19,-0.21 0.07,-0.07 0.15,-0.13 0.24,-0.18 0.08,-0.04 0.16,-0.08 0.24,-0.1l-3.19 -2.68zm2.71 12.32c-0.3,-0.24 -0.73,-0.57 -1.24,-0.99 -0.51,-0.42 -1.11,-0.89 -1.75,-1.42 -0.63,-0.53 -1.31,-1.09 -1.98,-1.64 -0.67,-0.57 -1.34,-1.14 -1.96,-1.67 -0.31,-0.27 -0.62,-0.5 -0.96,-0.63 -0.34,-0.13 -0.69,-0.19 -1.01,-0.2 -0.65,-0.02 -1.19,0.09 -1.56,0.17 -0.19,0.05 -0.33,0.08 -0.43,0.11 -0.1,0.03 -0.15,0.04 -0.15,0.04 0,0 0.05,-0.02 0.15,-0.05 0.1,-0.04 0.24,-0.08 0.42,-0.14 0.37,-0.1 0.91,-0.26 1.58,-0.26 0.33,0 0.7,0.05 1.07,0.17 0.18,0.07 0.37,0.15 0.54,0.26 0.09,0.05 0.17,0.11 0.25,0.18 0.09,0.06 0.16,0.13 0.24,0.2 0.63,0.52 1.31,1.08 1.98,1.64 0.67,0.57 1.34,1.14 1.96,1.67 0.63,0.53 1.2,1.04 1.7,1.47 0.5,0.43 0.9,0.8 1.19,1.06 0.28,0.26 0.45,0.41 0.45,0.41 0,0 -0.17,-0.14 -0.48,-0.37zm-4.49 -2.58c-0.14,0.31 -0.3,0.67 -0.53,1.01 -0.11,0.18 -0.23,0.35 -0.37,0.52 -0.14,0.18 -0.29,0.33 -0.46,0.49 -0.33,0.3 -0.73,0.59 -1.17,0.75 -0.11,0.03 -0.22,0.09 -0.33,0.1l-0.17 0.04c-0.06,0.01 -0.11,0.01 -0.17,0.01 -0.11,0.02 -0.22,-0 -0.33,-0.01 -0.1,-0.03 -0.21,-0.05 -0.29,-0.09 -0.02,-0.01 -0.04,-0.01 -0.07,-0.03l-0.09 -0.06 -0.09 -0.06 -0.02 -0.01 -0.01 -0c0,0 0,0 0,0l-0.03 -0.03 -0.33 -0.26c-0.22,-0.18 -0.43,-0.36 -0.65,-0.54 -0.44,-0.36 -0.86,-0.73 -1.28,-1.08 -0.21,-0.18 -0.41,-0.36 -0.61,-0.54 -0.16,-0.14 -0.26,-0.32 -0.31,-0.52 -0.1,-0.4 -0.03,-0.86 0.11,-1.27 0.14,-0.42 0.34,-0.8 0.54,-1.14 0.03,-0.05 0.06,-0.1 0.09,-0.15 0.65,-0.27 1.71,-0.6 2.65,-0.37 -0.13,0.31 -0.3,0.61 -0.49,0.84 -0.48,0.57 -0.72,1.04 -0.75,1.85 -0.04,0.81 0.74,2.11 1.14,1.9 0.41,-0.21 -0.85,-1.69 0.06,-2.77 0.36,-0.43 0.92,-0.72 1.47,-0.92l2.55 2.14c-0.03,0.07 -0.05,0.14 -0.08,0.22zm-7.96 -3.46c-1.14,-0.58 -4.16,-1.9 -5.43,-0.39 -0.72,0.86 -1.86,2.22 -2.88,3.44 0.09,-0.12 0.19,-0.25 0.29,-0.37 0.2,-0.25 0.38,-0.51 0.58,-0.76 0.19,-0.25 0.38,-0.51 0.57,-0.77 0.38,-0.51 0.75,-1.03 1.11,-1.56 -0.46,0.45 -0.9,0.9 -1.34,1.36 -0.22,0.23 -0.44,0.46 -0.65,0.69 -0.22,0.23 -0.44,0.46 -0.65,0.7 -0.43,0.47 -0.86,0.94 -1.27,1.42 -0.34,0.39 -0.68,0.78 -1.02,1.17l-0.72 -0.62 -1 -0.83c-0.66,-0.55 -1.34,-1.09 -2.01,-1.63l-1.02 -0.8c-0.34,-0.27 -0.69,-0.52 -1.03,-0.78 -0.34,-0.26 -0.7,-0.51 -1.04,-0.77 -0.35,-0.25 -0.71,-0.5 -1.07,-0.75 0.3,0.31 0.61,0.62 0.92,0.92 0.31,0.3 0.62,0.6 0.94,0.9 0.03,0.03 0.06,0.06 0.09,0.09l-2.29 -1.92c1.81,-2.16 3.95,-3.7 6.09,-4.81 -0.01,0.01 -0.02,0.01 -0.03,0.02 -1.08,0.63 -2.02,1.33 -2.77,2 -0.75,0.66 -1.3,1.29 -1.66,1.74 -0.18,0.22 -0.32,0.41 -0.41,0.53 -0.09,0.13 -0.14,0.19 -0.14,0.19 0,0 0.23,-0.23 0.65,-0.62 0.21,-0.19 0.47,-0.42 0.78,-0.68 0.31,-0.25 0.66,-0.53 1.05,-0.82 0.79,-0.58 1.74,-1.19 2.81,-1.76 0.54,-0.28 1.1,-0.56 1.68,-0.83 0.53,-0.24 1.08,-0.46 1.64,-0.68 0.4,-0.07 0.83,-0.16 1.3,-0.25 0.29,-0.06 0.59,-0.12 0.9,-0.19 0.3,-0.07 0.61,-0.14 0.92,-0.21 0.31,-0.07 0.62,-0.15 0.92,-0.23 0.3,-0.07 0.6,-0.16 0.89,-0.23 0.58,-0.16 1.11,-0.31 1.57,-0.45 0.91,-0.27 1.51,-0.5 1.51,-0.5 0,0 -0.64,0.07 -1.58,0.23 -0.47,0.08 -1.02,0.18 -1.6,0.31 -0.16,0.03 -0.31,0.07 -0.48,0.1 0.39,-0.11 0.77,-0.22 1.14,-0.33 0.54,-0.16 1.06,-0.3 1.53,-0.52 0.06,-0.03 0.12,-0.06 0.18,-0.09 0.05,-0.03 0.13,-0.09 0.17,-0.14 0.07,-0.09 0.14,-0.18 0.21,-0.27 0.14,-0.18 0.27,-0.35 0.39,-0.5 0.2,-0.26 0.37,-0.48 0.53,-0.68l1.71 9.84 -0.94 1.12zm-0.18 -10.52c0.05,0.26 0.13,0.62 0.21,1.06 0.08,0.44 0.18,0.95 0.28,1.51 0.1,0.55 0.19,1.14 0.29,1.73 0.09,0.59 0.18,1.18 0.26,1.74 0.08,0.55 0.14,1.08 0.2,1.52 0.06,0.45 0.1,0.82 0.13,1.08 0.03,0.26 0.04,0.41 0.04,0.41 0,0 -0.03,-0.15 -0.09,-0.4 -0.05,-0.26 -0.13,-0.62 -0.21,-1.06 -0.08,-0.44 -0.18,-0.95 -0.28,-1.51 -0.1,-0.55 -0.19,-1.14 -0.29,-1.73 -0.09,-0.59 -0.18,-1.18 -0.26,-1.74 -0.08,-0.55 -0.14,-1.08 -0.2,-1.52 -0.06,-0.45 -0.1,-0.82 -0.13,-1.08 -0.03,-0.26 -0.04,-0.41 -0.04,-0.41 0,0 0.03,0.15 0.09,0.4zm23.81 14.21l-0.21 0.18 -3.6 -3.02 0.18 -0.21 3.64 3.05zm1.25 -1.05l-0.81 0.68 -3.71 -3.12 0.67 -0.79 3.85 3.23zm-3.43 -3.73l3.94 3.31 -0.18 0.15 -3.91 -3.28 0.14 -0.17zm30.63 -9.42c0.06,-0.26 0.09,-0.4 0.09,-0.4 0,0 -0.02,0.15 -0.04,0.41 -0.03,0.26 -0.07,0.63 -0.13,1.08 -0.06,0.44 -0.12,0.96 -0.21,1.52 -0.08,0.55 -0.17,1.15 -0.26,1.74 -0.1,0.59 -0.19,1.18 -0.29,1.73 -0.1,0.55 -0.2,1.07 -0.28,1.51 -0.08,0.44 -0.16,0.81 -0.21,1.06 -0.06,0.26 -0.09,0.4 -0.09,0.4 0,0 0.02,-0.15 0.04,-0.41 0.03,-0.26 0.07,-0.63 0.13,-1.08 0.06,-0.44 0.12,-0.96 0.21,-1.52 0.08,-0.55 0.17,-1.15 0.26,-1.74 0.1,-0.59 0.19,-1.18 0.29,-1.73 0.1,-0.55 0.2,-1.07 0.28,-1.51 0.08,-0.44 0.16,-0.81 0.21,-1.06zm14.78 4.83c-2.73,-1.75 -5.57,-2.73 -7.92,-3.35 -1,-0.26 -1.92,-0.47 -2.69,-0.64 -0.76,-0.17 -1.62,-0.36 -1.86,-0.48l-1.4 -1.67c-0.25,-0.3 -0.71,-0.35 -1.01,-0.09 -1.59,1.34 -3.68,1.74 -5.66,1.73 0,-0.01 0,-0.02 0.01,-0.03 0.11,-0.58 0.2,-1.17 0.26,-1.76l2.07 -1.73c0.15,-0.13 0.17,-0.36 0.04,-0.51 -0.13,-0.15 -0.35,-0.17 -0.51,-0.05l-2.17 1.82 -0.07 0.06 -0.05 0.14c-0.21,0.58 -0.39,1.16 -0.55,1.75 -0.46,-0.09 -1.57,-0.34 -2.65,-1.23l-1.03 0.86c-0.89,-0.24 -1.46,-0.45 -1.48,-0.46 -0.24,-0.09 -0.52,-0.05 -0.72,0.12l-3.41 2.86c-0.76,0.64 -1.11,1.38 -1.24,1.77l-3.88 3.25c-0.63,0.52 -0.83,1.11 -0.85,1.57l-4.14 3.47 -4.14 -3.47c-0.02,-0.46 -0.22,-1.05 -0.85,-1.57l-3.88 -3.25c-0.14,-0.39 -0.48,-1.13 -1.24,-1.77l-3.41 -2.86c-0.2,-0.17 -0.48,-0.21 -0.72,-0.12 -0.02,0.01 -0.59,0.22 -1.48,0.46l-1.03 -0.86c-1.08,0.89 -2.19,1.13 -2.65,1.23 -0.16,-0.59 -0.34,-1.17 -0.55,-1.75l-0.05 -0.14 -0.07 -0.06 -2.17 -1.82c-0.15,-0.13 -0.38,-0.11 -0.51,0.05 -0.13,0.15 -0.11,0.38 0.04,0.51l2.07 1.73c0.06,0.59 0.15,1.18 0.26,1.76 0,0.01 0,0.02 0.01,0.03 -1.98,0.01 -4.07,-0.39 -5.66,-1.73 -0.3,-0.26 -0.76,-0.22 -1.01,0.09l-1.4 1.67c-0.24,0.13 -1.1,0.31 -1.86,0.48 -0.77,0.17 -1.69,0.37 -2.69,0.64 -2.35,0.62 -5.19,1.59 -7.92,3.35 -1.6,1.03 -3.16,2.32 -4.54,3.97 -0.25,0.3 -0.22,0.76 0.09,1.01l4.45 3.74 3.9 3.27c0.3,0.26 0.76,0.22 1.01,-0.09l3 -3.58 2.16 -2.57c0.97,-1.15 3.99,0.22 4.97,0.79 0,0 0.01,0 0.01,0 -0.07,0.25 -0.14,0.5 -0.19,0.78 -0.05,0.26 -0.08,0.53 -0.08,0.82 0,0.29 0.03,0.6 0.15,0.9 0.11,0.3 0.31,0.59 0.57,0.8 0.21,0.17 0.43,0.34 0.65,0.52 0.43,0.35 0.86,0.7 1.29,1.07 0.21,0.18 0.43,0.36 0.64,0.54l0.31 0.28 0.04 0.04 0.01 0.01 0.03 0.02 0.02 0.02 0.08 0.06 0.08 0.06c0.03,0.02 0.08,0.04 0.12,0.06 0.16,0.1 0.32,0.14 0.48,0.19 0.16,0.02 0.32,0.07 0.48,0.06 0.08,0 0.16,0 0.24,-0l0.23 -0.03c0.16,-0.01 0.29,-0.06 0.44,-0.09 0.56,-0.17 1.05,-0.42 1.51,-0.65 0.46,-0.25 0.89,-0.48 1.29,-0.69 0.41,-0.22 0.78,-0.42 1.13,-0.59 0.13,-0.06 0.25,-0.13 0.37,-0.18l2.5 2.1c0.3,0.26 0.76,0.22 1.01,-0.09l2.01 -2.4c0.39,0.1 0.81,0.13 1.17,0.01l3.01 2.53 -6.76 5.68c-0.97,0.22 -2.19,0.54 -2.15,1.26 0.01,0.13 0.05,0.27 0.14,0.43l-0.72 0.6c-0.3,0.25 -0.34,0.71 -0.09,1.01l2.49 2.97c0.25,0.3 0.71,0.34 1.01,0.09l2.51 -2.1 8.3 -6.96c0.47,-0.2 1.04,-0.37 1.55,-0.45 0.51,0.07 1.07,0.25 1.55,0.45l8.3 6.96 2.51 2.1c0.3,0.26 0.76,0.22 1.01,-0.09l2.49 -2.97c0.25,-0.3 0.22,-0.76 -0.09,-1.01l-0.72 -0.6c0.1,-0.16 0.14,-0.3 0.15,-0.43 0.03,-0.72 -1.18,-1.04 -2.15,-1.26l-6.76 -5.68 3.01 -2.53c0.37,0.12 0.79,0.09 1.17,-0.01l2.01 2.4c0.26,0.3 0.71,0.34 1.01,0.09l2.5 -2.1c0.12,0.06 0.24,0.12 0.37,0.18 0.35,0.17 0.72,0.37 1.13,0.59 0.4,0.21 0.83,0.45 1.29,0.69 0.46,0.23 0.95,0.48 1.51,0.65 0.15,0.03 0.28,0.08 0.44,0.09l0.23 0.03c0.08,0 0.16,0 0.24,0 0.16,0.01 0.32,-0.03 0.48,-0.06 0.16,-0.05 0.32,-0.09 0.48,-0.19 0.04,-0.02 0.08,-0.04 0.12,-0.06l0.08 -0.06 0.08 -0.06 0.02 -0.02 0.03 -0.02 0.01 -0.01 0.04 -0.04 0.31 -0.28c0.21,-0.18 0.43,-0.36 0.64,-0.54 0.42,-0.37 0.86,-0.72 1.29,-1.07 0.22,-0.18 0.43,-0.35 0.65,-0.52 0.26,-0.21 0.46,-0.5 0.57,-0.8 0.11,-0.3 0.14,-0.61 0.15,-0.9 0,-0.29 -0.03,-0.56 -0.08,-0.82 -0.05,-0.28 -0.12,-0.53 -0.19,-0.78 0,-0 0.01,-0 0.01,-0 0.98,-0.57 4,-1.95 4.97,-0.79l2.16 2.57 3 3.58c0.25,0.3 0.71,0.35 1.01,0.09l3.9 -3.27 4.45 -3.74c0.3,-0.25 0.34,-0.71 0.09,-1.01 -1.39,-1.65 -2.94,-2.94 -4.54,-3.97z"/>
  </g>
 </g>
</svg>
