<?xml version="1.0" encoding="UTF-8"?>
<!DOCTYPE svg PUBLIC "-//W3C//DTD SVG 1.1//EN" "http://www.w3.org/Graphics/SVG/1.1/DTD/svg11.dtd">
<!-- Creator: CorelDRAW 2021 (64-Bit) -->
<svg xmlns="http://www.w3.org/2000/svg" xml:space="preserve" width="8.4667mm" height="12.7mm" version="1.1" shape-rendering="geometricPrecision" text-rendering="geometricPrecision" image-rendering="optimizeQuality" fill-rule="evenodd" clip-rule="evenodd"
viewBox="0 0 180.55 270.82"
 xmlns:xlink="http://www.w3.org/1999/xlink"
 xmlns:xodm="http://www.corel.com/coreldraw/odm/2003">
 <g id="Слой_x0020_1">
  <metadata id="CorelCorpID_0Corel-Layer"/>
  <g id="_2488592334384">
   <rect fill="white" x="-0" y="-0" width="180.55" height="270.82"/>
   <rect fill="black" x="11.74" y="9.03" width="157.08" height="252.77" rx="13.51" ry="13.95"/>
   <g>
    <path fill="white" fill-rule="nonzero" d="M60.94 64.14c0,0 -18.04,-1.51 -19.59,-7.34 -1.55,-5.83 15.14,-5.56 21.55,1.41 6.41,6.97 32.01,25.34 56.12,16.11 24.12,-9.23 16.3,-21.69 -2.8,-24.24 -19.09,-2.56 11.96,7.33 1.1,13.17 0,0 -16.79,9.05 -47,-9.3 -30.21,-18.35 -51.79,11.67 -9.38,10.19z"/>
    <path fill="white" fill-rule="nonzero" d="M63.78 49.1c0,0 -1.34,-16.95 7.2,-28.99 0,0 2.28,6.86 9.68,8.16 0,0 -7.6,-5.74 -6.08,-12.35l1.42 -2.36c0,0 9.33,8.63 25.83,1.69 0,0 -5.1,5.23 -9.28,5.94 0,0 9.5,0.78 16.3,-6.3 0,0 3.46,8.41 -11.99,13.78 -15.45,5.37 -5.32,14.06 1.13,12.68 6.45,-1.38 14.17,-12.98 14.17,-12.98 0,0 -2.28,18.84 -16.45,19.06 -14.17,0.22 -26.73,-5.19 -26.73,-5.19 0,0 3.99,7.47 21.82,7.32 17.83,-0.14 21.65,5.02 22.07,8.48 0.42,3.47 -14.22,0.87 -14.22,0.87 0,0 8.75,3.19 14.06,1.9 0,0 -14.59,6.57 -31.08,-4.65 0,0 -8.7,-6.17 -17.86,-7.06z"/>
    <path fill="#FEFEFE" fill-rule="nonzero" d="M116.22 50.08c-18.01,-2.41 8.59,6.24 2.56,12.13 2.86,0.78 5.53,2.21 7.48,4.69 0.77,0.98 1.25,2.02 1.5,3.11 12.78,-8.42 4.7,-17.76 -11.54,-19.93z"/>
    <path fill="white" fill-rule="nonzero" d="M115.23 74.09c0,0 12.49,9.55 15.87,24.15 0,0 -0.67,-9.73 -4.73,-15.63 -4.05,-5.91 -7.6,-12.16 -7.6,-12.16 0,0 11.82,15.46 24.99,19.97 13.17,4.52 27.86,7.12 0,28.31 0,0 -1.52,-7.82 0.84,-13.38 0,0 -5.74,10.6 -27.18,15.11 0,0 13.68,-7.99 16.88,-18.24 0,0 -7.43,-2.95 -12.66,-1.22l4.56 3.47 -14.01 18.76 -9.79 3.47 8.44 -1.04 -13 19.98 0 -14.59c0,0 13,-16.85 14.52,-33.35 1.52,-16.5 9.96,-7.47 9.96,-7.47 0,0 -1.01,-6.95 -7.09,-16.16z"/>
    <path fill="white" fill-rule="nonzero" d="M97.84 93.54c0,0 10.64,-4.63 13.51,-17.86 0,0 1.01,20.81 -7.43,35.93 0,0 1.18,-8.16 -1.52,-12.16 -2.55,-3.77 2.58,-4.76 5.01,-9.4 0.14,-0.27 0.27,-0.55 0.39,-0.85 2.19,-5.38 -4.05,4.86 -9.96,4.34z"/>
    <path fill="white" fill-rule="nonzero" d="M84.5 93.65c0,0 6.67,2.88 12.16,0 0,0 0.34,5.98 -1.86,9.1 0,0 -4.05,-3.3 -8.1,0 0,0 -3.89,-5.18 -2.2,-9.1z"/>
    <path fill="white" fill-rule="nonzero" d="M86.02 105.7c0,0 5.23,-4.86 8.95,0l2.87 10.42 -5.91 30.75 -7.85 -30.92 1.94 -10.25z"/>
    <path fill="white" fill-rule="nonzero" d="M65.32 74.09c0,0 -12.49,9.55 -15.87,24.15 0,0 0.67,-9.73 4.73,-15.63 4.05,-5.91 7.6,-12.16 7.6,-12.16 0,0 -11.82,15.46 -24.99,19.97 -13.17,4.52 -27.86,7.12 0,28.31 0,0 1.52,-7.82 -0.84,-13.38 0,0 5.74,10.6 27.18,15.11 0,0 -13.68,-7.99 -16.88,-18.24 0,0 7.43,-2.95 12.66,-1.22l-4.56 3.47 14.01 18.76 9.79 3.47 -8.44 -1.04 13 19.98 0 -14.59c0,0 -13,-16.85 -14.52,-33.35 -1.52,-16.5 -9.96,-7.47 -9.96,-7.47 0,0 1.01,-6.95 7.09,-16.16z"/>
    <path fill="white" fill-rule="nonzero" d="M82.71 93.54c0,0 -10.64,-4.63 -13.51,-17.86 0,0 -1.01,20.81 7.43,35.93 0,0 -1.18,-8.16 1.52,-12.16 2.55,-3.77 -2.58,-4.76 -5.01,-9.4 -0.14,-0.27 -0.27,-0.55 -0.39,-0.85 -2.19,-5.38 4.05,4.86 9.96,4.34z"/>
    <g>
     <polygon fill="red" points="124.08,129.02 124.76,128.96 125.6,129.61 132.85,130.67 132.38,132.33 131.91,134.15 131.75,136.4 131.89,137.96 132.17,138.14 131.79,139.7 131.53,140.47 133.23,139.82 131.38,142.07 129.81,143.49 128.17,143.98 127.02,143.6 124.81,142.5 123.7,142.82 122.53,142.91 121.71,142.35 120.76,141.31 120.95,140.91 121.45,137.3 121.18,136.5 121.55,136.56 121.92,136.52 122.66,134.96 123.34,132.58 "/>
     <path fill="white" d="M125.37 148.08l-0.25 -0.06c0.29,-1.86 0.14,-2.44 -0.27,-3.29 -0.28,-0.58 -0.35,-0.91 -0.28,-1.3 0.05,-0.33 0.05,-0.33 -0.14,-0.31 -2.09,0.19 -2.52,0.01 -3.7,-1.53 -0.64,-0.84 -0.89,-1.05 -1.3,-1.12 -0.17,-0.03 -0.24,-0.17 -0.1,-0.23 0.13,-0.06 1.28,0.19 1.44,0.31 0.19,0.14 0.21,0.07 0.12,-0.41 -0.11,-0.61 -0.03,-1.39 0.19,-1.94 0.1,-0.24 0.19,-0.49 0.2,-0.57 0.01,-0.08 -0.26,-0.66 -0.6,-1.29 -0.69,-1.28 -0.76,-1.45 -0.66,-1.5 0.22,-0.09 1.58,1.59 1.74,1.57 0.06,-0.01 0.47,-0.96 0.96,-2.2 0.28,-0.72 0.54,-1.91 0.61,-2.82 0.04,-0.45 0.11,-1.11 0.16,-1.46 0.12,-0.79 0.26,-1 0.75,-1.16 0.38,-0.12 0.47,-0.1 1.3,0.36 0.99,0.54 1.82,0.21 2.8,0.58 0.59,0.22 0.93,0.28 1.93,0.3 0.45,0.01 2.76,0.16 2.83,0.77 0.02,0.19 -0.03,0.32 -0.6,1.82 -0.49,1.29 -0.66,2.65 -0.61,4.02 0.02,0.59 0.05,1.1 0.07,1.12 0.08,0.1 1.23,-1 0.57,0.22 -0.32,0.6 -0.45,1.31 -0.65,1.96 -0.05,0.17 -0.08,0.31 -0.06,0.31 0.02,0 0.27,-0.16 0.56,-0.37 0.3,-0.22 0.69,-0.43 0.92,-0.5 0.37,-0.11 1.57,-0.16 0.63,0.25 -0.49,0.22 -0.7,0.54 -1.07,0.91 -1.02,1.04 -1.9,2.43 -3.2,3.1 -0.61,0.32 -1.38,0.52 -1.97,0.51 -0.29,-0 -0.56,0.01 -0.6,0.03 -0.16,0.07 -1.03,1.07 -1.17,1.35 -0.11,0.21 -0.27,0.66 -0.58,2.54zm3.29 -4.46c1.38,-0.44 1.85,-0.78 3.21,-2.36 0.56,-0.65 1.01,-1.21 1,-1.25 -0.02,-0.14 -0.64,0.47 -1.33,1.34 -0.81,1 -0.97,1.15 -1.78,1.53 -0.3,0.14 -1.43,0.73 -1.69,0.75 -0.17,0.02 -0.23,0.12 -0.07,0.15 0.06,0.01 0.35,-0.06 0.65,-0.16zm-5.87 -0.93c0,-0.04 -0.11,-0.12 -0.26,-0.18 -0.36,-0.16 -0.73,-0.46 -1.18,-0.97 -0.2,-0.23 -0.39,-0.4 -0.41,-0.39 -0.07,0.05 0.69,1 0.97,1.2 0.43,0.31 0.86,0.47 0.88,0.34zm4.42 0.2c0.98,-0.9 1.83,-1.98 2.21,-2.81 0.12,-0.26 0.33,-0.85 0.46,-1.31 0.23,-0.78 0.24,-0.9 0.26,-1.62 0.01,-0.88 0.13,-1.77 0.22,-1.69 0.03,0.03 0.04,0.14 0.03,0.25 -0.02,0.11 -0.01,0.44 0.02,0.73 0.24,2.58 -0.69,4.66 -2.55,6.43 -0.24,0.23 -0.43,0.44 -0.41,0.47 0.02,0.03 0.17,0.01 0.34,-0.03 1.04,-0.27 2.21,-1.17 2.9,-2.23 0.81,-1.24 1.07,-2.7 0.87,-4.95 -0.07,-0.84 0.05,-2.1 0.29,-2.89 0.13,-0.44 0.64,-1.75 0.88,-2.25 0.09,-0.18 -0.14,-0.17 -0.62,0.03 -0.24,0.1 -0.86,0.3 -1.38,0.46 -1.36,0.4 -1.63,0.61 -2.76,2.16 -1.12,1.55 -1.34,1.75 -2.39,2.3 -1.28,0.67 -1.69,1.17 -1.87,2.28 -0.18,1.11 0.13,2.65 0.68,3.38 0.29,0.38 1.26,1.15 1.51,1.19 0.21,0.03 0.7,-0.75 1.04,-1.66 0.2,-0.53 0.39,-1.79 0.35,-2.27 -0.03,-0.33 0.12,-0.19 0.2,0.2 0.22,1.07 -0.1,2.57 -0.76,3.58 -0.14,0.22 -0.26,0.4 -0.26,0.42 -0,0.03 0.24,0.18 0.32,0.2 0.02,0.01 0.22,-0.15 0.44,-0.35zm-3.24 -0.55c-0.01,-0.04 -0.23,-0.22 -0.48,-0.41 -0.73,-0.57 -1,-1.14 -1.25,-2.63 -0.19,-1.18 -0.46,-2.06 -0.75,-2.44 -0.2,-0.26 -0.27,-0.22 -0.11,0.07 0.22,0.4 0.34,0.99 0.47,2.28 0.07,0.75 0.16,1.49 0.2,1.64 0.11,0.42 0.69,1.07 1.19,1.34 0.27,0.15 0.75,0.25 0.71,0.15zm-0.35 -1.13c-0.46,-1 -0.58,-2.78 -0.26,-3.83 0.39,-1.3 1.22,-2.52 2,-3.62 -0.1,-0.33 -0.2,-0.67 -0.25,-1.01 -0.02,-0.15 -0.09,-0.52 -0.16,-0.82 -0.1,-0.48 -0.15,-0.57 -0.39,-0.79 -0.15,-0.14 -0.36,-0.35 -0.47,-0.49 -0.1,-0.13 -0.21,-0.23 -0.23,-0.21 -0.02,0.02 -0.06,0.41 -0.09,0.88 -0.09,1.55 -0.39,2.59 -1.45,4.9 -0.27,0.59 -0.28,0.8 -0.07,1.28 0.16,0.37 0.36,1.24 0.51,2.24 0.11,0.7 0.41,1.42 0.7,1.7 0.26,0.24 0.32,0.15 0.15,-0.22zm-2.08 -1.47l-0.05 -1.02c-0.01,-0.31 -0.14,-0.16 -0.2,0.24 -0.07,0.46 -0.03,1.06 0.11,1.55 0.14,0.49 0.19,0.23 0.14,-0.77zm10.52 -1.28c0.04,-0.29 -0.11,-0.17 -0.15,0.06 -0.04,0.29 0.11,0.17 0.15,-0.06zm-6.57 -2.9c0.77,-0.42 1.03,-0.68 1.99,-2.02 0.81,-1.13 1.09,-1.46 1.45,-1.74 0.23,-0.17 0.25,-0.22 0.11,-0.24 -0.26,-0.04 -0.9,0.26 -1.55,0.73 -0.79,0.56 -1.28,1.05 -1.92,1.91 -0.44,0.59 -1.26,1.85 -1.28,1.97 -0.01,0.1 1.11,-0.56 1.19,-0.61zm0.52 -2.61c0.14,-0.15 0.26,-0.31 0.27,-0.36 0.03,-0.18 -0.68,-0.84 -0.8,-0.75 -0.09,0.07 0.17,1.36 0.23,1.37 0.03,0 0.16,-0.11 0.3,-0.26zm1.15 -1.04c0.28,-0.22 0.44,-0.4 0.41,-0.44 -0.05,-0.07 -0.74,-0.45 -0.84,-0.47 -0.06,-0.01 -0.23,0.98 -0.2,1.15 0.04,0.19 0.16,0.14 0.63,-0.24zm-0.93 -1l0.19 -0.83c0.04,-0.16 0.03,-0.17 -0.39,-0.27 -0.31,-0.08 -0.55,-0.19 -0.83,-0.39 -0.61,-0.44 -0.92,-0.41 -1,0.1 -0.05,0.31 0.07,0.65 0.33,0.98 0.23,0.28 1.25,1.03 1.45,1.07 0.09,0.01 0.13,-0.09 0.25,-0.65zm2.3 -0.09c0.22,-0.15 0.39,-0.29 0.36,-0.32 -0.06,-0.08 -1,-0.46 -1.25,-0.5 -0.33,-0.05 -0.7,0.06 -0.73,0.22 -0.03,0.17 0.3,0.54 0.62,0.69 0.43,0.21 0.56,0.2 0.99,-0.09zm2.32 0.15c0.55,-0.08 1.07,-0.23 1.08,-0.32 0.01,-0.08 -1,-0.18 -1.75,-0.18 -0.55,0 -0.58,0.02 -0.51,0.36 0.04,0.18 0.06,0.19 0.38,0.2 0.19,0 0.55,-0.02 0.8,-0.06z"/>
    </g>
   </g>
   <g>
    <path fill="white" d="M70.55 242.21c-0.77,-0.43 -0.56,-0.02 -0.73,-1.24 -0.27,-1.96 -0.09,-12.6 0.15,-13.47l1.25 0.04 0.19 4.19c0.01,3.06 0.61,9.49 -0.87,10.49zm14.97 -20.93c0,-1.79 0,-3.57 0,-5.36 0,-1.28 -0.51,-4.12 0.54,-4.82 0.8,0.43 0.57,0.13 0.7,1.4 0.14,1.42 -0.22,3.87 0.01,5.56l6.14 -3.83c0.09,-1.31 0.09,-4.07 -0.08,-5.35 -0.26,-1.93 -0.85,-2.28 -2,-3l0.01 -18.17c0,-2.34 0.44,-4.9 -0.54,-5.29 -0.65,1.15 -0.18,20 -0.24,23.13 -4.41,-0.32 -9.08,-0.74 -10.66,2.87 -1.53,3.47 0.84,37.55 -0.67,39.7 -0.53,-0.35 -0.73,-0.45 -0.83,-2.02l-0.03 -8.18c-0.17,-8.82 0.24,-25.75 -0.3,-32.39 -1.93,0.99 -3.81,2.25 -5.76,3.45l-4.24 2.55c-0.2,0.12 -0.54,0.32 -0.69,0.43 -0.52,0.41 -0.29,0.23 -0.53,0.57 1,0.35 1.81,0.1 2.87,0.78 2.61,1.67 2.09,5.56 2.18,8.57 -10.24,-1.18 -8.01,1.49 -8.03,14.06 -0,2.1 -0.12,9.24 0.45,10.68 1.13,2.84 5.63,3.12 7.89,1.24 0.92,0.67 0.02,0.58 1.18,0.91l6.69 0.09c2.94,0.05 5.88,0.04 8.82,0.06 -0.25,-0.29 -0.13,-0.16 -0.47,-0.44 -0.87,-0.73 -1.67,-1.05 -2.02,-3.05l-0.29 -17.11 1.54 -0.56 -0.01 -5.92 -1.63 -0.57z"/>
    <path fill="white" d="M42.94 172.84c3.41,-0.44 4.3,1.31 4.44,4.42 0.18,4.08 0.71,24.75 -0.56,26.22 -0.53,0.62 -3.74,2.23 -3.74,-3.91l-0.14 -26.73zm-13.52 6.22c0.4,-0.92 1.59,-7.62 6.27,-6.12 -0.25,5.15 0.47,24.38 -0.07,27.25 -0.73,3.92 -3.84,3.65 -5,4.16l24.05 0.15c-0.52,-1.77 -0.84,0.13 -0.83,-4.67 0.01,-1.98 -0.02,-3.95 -0.03,-5.93l-0.09 -8.47c-0.03,-1.35 -0.13,-1.8 0.74,-2.26 1.27,0.73 0.68,7.41 0.76,10.17 0.07,2.35 -0.51,9.44 0.38,11 1.29,0.42 7.06,0.35 8.58,0.13 -2.92,-1.25 -2.61,-3.1 -2.64,-6.62 -0.03,-3.12 -0.04,-6.36 -0.13,-9.38 -0.19,-6.86 1.52,-13.6 -7.8,-10.38l0.06 -11.57 -24.28 -0.01 0.01 12.54z"/>
    <path fill="white" d="M109.76 248.4c-0.94,-0.25 -1.06,-0.39 -1.3,-1.55l-0.09 -18.53c1.45,-0.98 1.01,0.56 1.24,-1.36l-0.03 -4.57c-0.25,-1.14 -0.95,-0.81 -1.03,-1.04 -0.03,-0.09 -0.15,-0.04 -0.21,-0.08l-0.01 -11.55c-1.94,0.58 -4.7,3.23 -6.38,3.33 0,-2.2 0.44,-13.84 -0.38,-14.8 -0.74,0.86 -0.33,13.19 -0.34,15.44l-1.38 0.79c1.04,0.65 1.62,0.18 1.96,1.48l0.17 22.52c-0,5.21 -0.95,9.97 2.43,10.4 3.05,0.4 9.71,0.11 13.04,0.04 -1.52,-2.28 -1.01,-7.02 -1.01,-10.73 0,-1.45 -0.46,-9.87 0.42,-10.91 1.72,0.15 1.17,2.68 1.17,4.42 -0,3.46 -0.33,15.21 0.62,17.04 2.41,0.67 5.97,-0.08 8.53,0.28 -0.49,-0.55 -0.13,-0.12 -0.47,-0.44l-0.88 -0.83c-1.64,-1.76 -1.17,-3.37 -1.25,-6.19 -0.09,-2.99 0.04,-16.72 -0.87,-18.48 -1.55,-2.99 -6.16,-1.25 -7.44,-0.98l0.07 -17.11 -2.02 0.99c-0.15,-2.34 -0.05,-4.93 -0.05,-7.3 0,-2.25 0.42,-5.8 -0.57,-6.44 -0.69,1.6 0.19,11.44 -0.3,14.34 -1.47,0.86 -3.01,1.94 -4.53,2.56 2.13,1.93 1.22,6.35 1.28,9.27 0.08,5.03 0.74,28.4 -0.39,29.96z"/>
    <path fill="white" d="M51.64 212.66c1.79,0.04 6.89,-3.54 9.23,-5l2.1 -1.31c0.72,-0.59 0.16,0.08 0.68,-0.7l-23.86 -0.16c-3.61,-0 -10.62,-1.09 -10.6,7.32l-0.12 26.24c0,3.02 -0.51,6.56 1.13,8.46 1.65,1.9 5.08,1.55 8.17,1.57 6.31,0.03 6.02,-1.52 8.44,-0.09l0.06 -22.63c-0.03,-5.31 1.12,-3.52 2.2,-4.97l-11.66 0.07c1.63,1.07 1.87,1.59 1.93,4.33l0.08 12.7c0.01,1.71 0.16,4.87 -1.91,3.99 -0.88,-0.51 -0.77,-0.97 -0.77,-2.28l-0.01 -16.94c-0.02,-7.83 -1.32,-10.68 2.49,-10.71l12.41 0.11z"/>
    <path fill="white" d="M123.49 194.59c-0.76,-3.5 2.04,-2.73 2.93,-1.81l-1.23 1.05c-0.54,0.34 -0.91,0.58 -1.7,0.76zm4.61 -2.82c-1.02,-0.28 -1.05,-0.7 -2.26,-0.72 -1.18,-0.02 -1.39,0.43 -2.47,0.61 0.46,-1.25 1.71,-3.14 2.65,-3.79 0.96,-0.65 3.82,0.06 5.13,0.44 -0.56,1.37 -1.9,2.65 -3.04,3.45zm-29.34 -14.43l-6.9 -0.73c-0.91,1.63 -2.8,3.16 -3.52,4.86l10.14 1.67c1.24,2.15 0.34,2.1 2.86,3.12 1.15,0.46 2.79,1.46 3.57,2.29 -0.42,0.82 -7.51,6.84 -8.33,7.9 0.83,0.59 5.74,1.48 7.08,1.47 0.46,-0.75 3.41,-3.19 4.26,-3.89 1.19,-0.97 3.28,-3.25 4.38,-3.77 0.91,0.46 3,2.37 3.9,3.15 2.14,1.87 2.29,1.39 5.13,0.59 2.04,1.84 0.16,4.07 10.04,-3.3 4.8,-3.57 2.29,-1.25 10.55,-0.85 0.7,-0.7 3.05,-4.72 3.42,-5.53 -1.11,-0.75 -8.4,-1.42 -10.91,-2.09 -0.33,-1.95 -1.55,-7.71 -1.45,-9.22 0.12,-1.84 4.25,-3.97 5.09,-5.97 -1.54,-0.34 -2.92,-0.99 -4.45,-1.52 -2.24,-0.79 -1.87,0.86 -3.83,1.42 -2.13,-2.47 -1.13,-8.04 -1.21,-11.58l-2.63 -0.04c-0.98,15.2 2.49,11.33 5.74,19.21 0.84,2.03 1.3,4.99 0.86,7.51 -3.35,-0.46 -8.45,-2.41 -11.39,-0.52l-0.25 4.8c1.3,0.74 3.2,0.5 3.99,1.13 -1.06,1.81 -4.77,6.16 -7.24,5.47 -1.81,-1.16 -4.02,-3.51 -3.83,-5.64 0.2,-2.31 1.61,-7.01 1.01,-8.02 -0.65,0.36 -1.27,1.58 -1.97,2.27 -0.97,0.95 -1.4,1.42 -2.18,2.05 -1.13,0.91 -3.5,3.77 -4.76,3.75 -0.82,-2.96 4.83,-8.22 4.4,-9.48 -0.98,-0.48 -1.31,0.45 -1.89,1.22 -0.54,0.72 -1.01,1.28 -1.62,2.05 -0.55,0.7 -0.96,1.18 -1.55,2.11 -0.49,0.78 -0.83,1.8 -1.42,2.47 -0.71,-1.38 0.53,-4.98 1.12,-6.98 0.23,-0.78 0.62,-1.61 0.27,-2.34 -0.7,0.28 -0.36,0.03 -0.74,0.73l-1.09 3.42c-0.41,1.28 -0.93,3.42 -1.55,4.34l-1.41 -0.76c-0.06,-1.9 0.75,-7.35 1.57,-8.64 0.99,-1.58 9.12,-9.18 9.6,-10.72 0.32,-1.03 -0.6,-7.8 -0.75,-9.44l-2.08 -0.03c1.01,8.23 3.5,9.25 -6.39,16.9 -3.91,3.03 -2.57,3.2 -3.64,5.18z"/>
    <path fill="white" d="M131.84 232.47c-0.25,-1.22 -0.44,-4.23 0.2,-5.23l0.93 -0.06c1,2.06 0.14,4.07 -1.13,5.29zm7.2 3.66c-0.64,1.42 -0.42,3.06 -1.23,4.76 -1.34,2.81 -6.45,3.89 -6.02,-0.68 0.17,-1.82 1.36,-2.49 2.36,-3.27 2.39,-1.86 4.82,-2.56 4.91,-6.61 0.12,-5.1 0.46,-7.14 -2.73,-8.5 -0.28,-8.18 -0.06,-19.93 -0.03,-28.76l-0.07 -3.04c-0.13,-0.61 -0.01,-0.27 -0.24,-0.61 -0.71,0.41 -0.47,0.42 -0.47,1.64l0.03 30.56c-3.78,0 -5.8,-0.34 -9.1,0.76 -0.42,-3.99 0.42,-25.83 -0.26,-27.2 -1.02,0.64 -0.58,1.56 -0.58,4.38 0,8.11 -0.26,42.24 0.12,45.52 0.42,3.71 2.49,4.08 6.04,4.08 3.4,-0 6.17,-0.17 7.06,-3.03 0.56,-1.82 0.3,-7.72 0.22,-9.99z"/>
    <path fill="white" d="M54.5 242.63c-0.61,-1.32 -0.8,-14.05 -0.04,-15.14 1.21,0.02 1.03,-0.27 1.28,0.97 0.14,0.7 0.12,13.34 -0.21,14.23l-1.03 -0.06zm-6.43 2.91c0.51,3.55 3.29,3.31 6.95,3.31 3.39,0.01 6.66,-0.02 7.05,-3.32 0.35,-2.96 0.26,-17.55 -0.14,-20.47 -0.53,-3.87 -3.15,-3.58 -6.92,-3.58 -3.8,-0 -6.67,-0.58 -7.07,3.46l0.12 20.6z"/>
    <path fill="white" d="M94.34 242.72c-1.31,-0.16 -1.42,-0.21 -1.24,-3.96 0.07,-1.53 0.39,-2.9 1.38,-3.57 0.18,1.72 0.29,6.12 -0.14,7.52zm-6.73 -12.49c0.99,-0.53 1.06,-2.32 3.07,-2.93 1.43,-0.44 4.51,-0.33 3.63,1.64 -0.74,1.66 -5.38,2.03 -6.86,5.31 -0.69,1.54 -0.77,9.47 -0.37,11.41 0.78,3.79 5.05,3.79 8.01,2.46 1.49,1.32 4.83,0.85 7.11,0.81 -1.16,-2.32 -1.46,-1.58 -1.45,-5.08 0.06,-21.47 2.46,-22.92 -9.34,-22.28 -4.71,0.26 -3.99,3.29 -3.81,8.65z"/>
    <path fill="white" d="M68.96 188.73c-0.23,-1.28 -0.41,-4.18 0.17,-5.24 2.6,-0.14 1.23,4.39 -0.17,5.24zm7.61 3.91c0.47,4.3 -3.85,7.45 -6.72,5.64 -3.76,-2.37 4.43,-6.28 5.32,-7.08 2.45,-2.22 1.47,-10.71 0.88,-11.84 -1.64,-3.12 -10.8,-1.74 -11.53,-1.34 -2.86,1.57 -1.98,7.72 -1.99,11.66 -0.01,10.19 -1.57,14.89 5.74,14.97 8.59,0.1 8.88,-0.56 8.29,-12.01z"/>
    <path fill="white" d="M139.3 224.38c0.04,0.06 0.12,0.12 0.15,0.15 1.33,1.47 0.86,3 0.85,6.06 -0,2.35 -0.05,4.69 -0.05,7.05 0,2.8 0.5,8.19 -0.87,9.87 -0.54,0.66 -0.27,0.32 -0.95,0.74l-1.07 0.81c3.66,-0.66 10.06,0.54 13.43,-0.3 -4.7,-0.38 -3.87,-4.05 -3.86,-8.3 0,-2.46 -0.46,-10.32 0.24,-11.95 0.81,-1.08 2.24,-1.31 3.14,-0.41 0.71,0.7 0.77,2.2 1.06,3.25 0.15,-1.23 0.31,-7.59 0.02,-8.54 -0.34,-1.13 -1.49,-1.64 -2.96,-1.3 -1.14,0.26 -1.65,1.18 -2.28,1.94l-0.07 -2.93c-0.84,0.15 -0.66,0.33 -1.66,0.61l-0.05 -33.93c-1.03,1.17 -0.74,1.57 -0.73,3.63l0 13.26c0,23.12 1.39,15.64 -4.35,20.31z"/>
   </g>
  </g>
 </g>
</svg>
