<?xml version="1.0" encoding="UTF-8"?>
<!DOCTYPE svg PUBLIC "-//W3C//DTD SVG 1.1//EN" "http://www.w3.org/Graphics/SVG/1.1/DTD/svg11.dtd">
<!-- Creator: CorelDRAW 2021 (64-Bit) -->
<svg xmlns="http://www.w3.org/2000/svg" xml:space="preserve" width="2.9212mm" height="2.921mm" version="1.1" shape-rendering="geometricPrecision" text-rendering="geometricPrecision" image-rendering="optimizeQuality" fill-rule="evenodd" clip-rule="evenodd"
viewBox="0 0 9.21 9.21"
 xmlns:xlink="http://www.w3.org/1999/xlink"
 xmlns:xodm="http://www.corel.com/coreldraw/odm/2003">
 <g id="Слой_x0020_1">
  <metadata id="CorelCorpID_0Corel-Layer"/>
  <g id="home-icon-silhouette-svgrepo-com.svg">
   <g>
    <g>
     <g>
      <path fill="none" fill-rule="nonzero" stroke="white" stroke-width="0.4" stroke-miterlimit="22.9256" d="M8.86 4.18l-1.34 -1.43 0 -1.66c0,-0.3 -0.23,-0.54 -0.51,-0.54 -0.28,0 -0.5,0.24 -0.5,0.54l0 0.57 -0.99 -1.07c-0.49,-0.53 -1.35,-0.53 -1.84,0l-3.34 3.58c-0.2,0.21 -0.2,0.56 0,0.77 0.2,0.21 0.52,0.21 0.71,0l3.34 -3.59c0.11,-0.12 0.3,-0.12 0.41,-0l3.34 3.59c0.1,0.11 0.23,0.16 0.36,0.16 0.13,0 0.26,-0.05 0.36,-0.16 0.2,-0.21 0.2,-0.55 0,-0.77z"/>
      <path fill="none" fill-rule="nonzero" stroke="white" stroke-width="0.4" stroke-miterlimit="22.9256" d="M4.78 2.39c-0.1,-0.1 -0.25,-0.1 -0.35,0l-2.94 3.15c-0.05,0.05 -0.07,0.12 -0.07,0.19l0 2.3c0,0.54 0.41,0.98 0.91,0.98l1.45 0 0 -2.42 1.64 0 0 2.42 1.45 0c0.5,0 0.91,-0.44 0.91,-0.98l0 -2.3c0,-0.07 -0.03,-0.14 -0.07,-0.19l-2.94 -3.15z"/>
     </g>
    </g>
   </g>
  </g>
 </g>
</svg>
