<?xml version="1.0" encoding="UTF-8"?>
<!DOCTYPE svg PUBLIC "-//W3C//DTD SVG 1.1//EN" "http://www.w3.org/Graphics/SVG/1.1/DTD/svg11.dtd">
<!-- Creator: CorelDRAW 2021 (64-Bit) -->
<svg xmlns="http://www.w3.org/2000/svg" xml:space="preserve" width="4.0752mm" height="4.0752mm" version="1.1" shape-rendering="geometricPrecision" text-rendering="geometricPrecision" image-rendering="optimizeQuality" fill-rule="evenodd" clip-rule="evenodd"
viewBox="0 0 10.72 10.72"
 xmlns:xlink="http://www.w3.org/1999/xlink"
 xmlns:xodm="http://www.corel.com/coreldraw/odm/2003">
 <g id="Слой_x0020_1">
  <metadata id="CorelCorpID_0Corel-Layer"/>
  <rect fill="white" x="-0" y="-0" width="10.72" height="10.72"/>
  <g id="_1678910494512">
   <path fill="white" d="M4.87 5.1l0 -0 0.08 0.04c0.06,0.04 0.15,0.08 0.25,0.15 0.1,0.06 0.22,0.13 0.35,0.21 0.13,0.08 0.27,0.16 0.4,0.25 0.14,0.09 0.27,0.17 0.4,0.25 0.02,0.01 0.03,0.02 0.05,0.03 0.02,0.01 0.03,0.02 0.04,0.03 0.03,0.02 0.05,0.05 0.08,0.08 0.04,0.06 0.07,0.12 0.09,0.18 0.04,0.12 0.04,0.22 0.04,0.29 0,0.04 0,0.06 -0,0.08 -0,0.02 -0,0.03 -0,0.03 0,0 -0,-0.01 -0,-0.03 -0,-0.02 -0,-0.05 -0.01,-0.08 -0.01,-0.07 -0.02,-0.17 -0.06,-0.28 -0.02,-0.06 -0.05,-0.11 -0.09,-0.16 -0.04,-0.05 -0.1,-0.09 -0.16,-0.13 -0.13,-0.08 -0.26,-0.16 -0.4,-0.25 -0.14,-0.09 -0.27,-0.17 -0.4,-0.25 -0.13,-0.08 -0.24,-0.16 -0.35,-0.22 -0.1,-0.07 -0.18,-0.12 -0.24,-0.16l-0.07 -0.05zm2.66 4.8c0.01,0 0.01,0.01 0.02,0.01 0.07,0.04 0.14,0.07 0.21,0.11 0.07,0.04 0.14,0.07 0.21,0.11 -0.06,-0.05 -0.13,-0.1 -0.19,-0.14 -0.06,-0.05 -0.13,-0.09 -0.19,-0.14 -0.07,-0.04 -0.13,-0.09 -0.19,-0.13l-0.2 -0.13c-0.13,-0.09 -0.26,-0.17 -0.4,-0.26l-0.2 -0.13 -0.15 -0.09c0.05,-0.08 0.1,-0.16 0.15,-0.24 0.06,-0.1 0.12,-0.2 0.17,-0.3 0.03,-0.05 0.06,-0.1 0.09,-0.15 0.03,-0.05 0.06,-0.1 0.08,-0.15 0.06,-0.1 0.11,-0.21 0.16,-0.31 -0.07,0.09 -0.14,0.19 -0.21,0.28 -0.03,0.05 -0.07,0.09 -0.1,0.14 -0.03,0.05 -0.07,0.1 -0.1,0.14 -0.02,0.02 -0.03,0.05 -0.05,0.07 0.15,-0.25 0.32,-0.52 0.43,-0.7 0.19,-0.31 -0.21,-0.76 -0.38,-0.92l0.14 -0.23 1.81 -0.26c-0.03,0.04 -0.06,0.08 -0.09,0.13 -0.02,0.03 -0.04,0.06 -0.07,0.1 -0.01,0.02 -0.02,0.03 -0.04,0.05 -0.01,0.01 -0.01,0.03 -0.02,0.04 -0,0.01 -0,0.02 -0.01,0.04 -0.01,0.09 -0.01,0.19 -0,0.3 0,0.07 0,0.14 0.01,0.22 -0,-0.03 -0.01,-0.06 -0.01,-0.09 -0.01,-0.11 -0.02,-0.21 -0.04,-0.3 -0.02,-0.17 -0.05,-0.29 -0.05,-0.29 0,0 -0.01,0.12 -0,0.29 0,0.09 0,0.19 0.01,0.3 0,0.05 0.01,0.11 0.01,0.17 0,0.06 0.01,0.11 0.01,0.17 0.01,0.06 0.01,0.12 0.02,0.17 0,0.06 0.01,0.11 0.02,0.17 0.01,0.09 0.02,0.17 0.03,0.24 -0.01,0.11 -0.01,0.22 -0.03,0.32 -0.01,0.12 -0.03,0.23 -0.05,0.34 -0.04,0.22 -0.09,0.42 -0.15,0.59 -0.03,0.08 -0.06,0.16 -0.08,0.23 -0.03,0.07 -0.05,0.13 -0.07,0.17 -0.04,0.1 -0.07,0.15 -0.07,0.15 0,0 0.01,-0.01 0.03,-0.03 0.02,-0.02 0.04,-0.06 0.07,-0.1 0.06,-0.09 0.13,-0.22 0.21,-0.39 0.07,-0.17 0.14,-0.37 0.19,-0.59 0,-0 0,-0 0,-0.01 -0,0 -0,0 -0,0.01 -0.07,0.43 -0.22,0.89 -0.49,1.33l-0.46 -0.29zm-1.8 -5.29c-0.05,-0.04 -0.1,-0.07 -0.13,-0.09 -0.03,-0.02 -0.05,-0.04 -0.05,-0.04 0,0 0.02,0.01 0.05,0.03 0.03,0.02 0.08,0.04 0.14,0.08 0.06,0.03 0.12,0.07 0.19,0.11 0.07,0.04 0.15,0.09 0.22,0.13l0.01 0 0.01 0.01 0.01 0.01c0.01,0.01 0.02,0.02 0.03,0.03 0.02,0.02 0.03,0.04 0.04,0.06 0.02,0.04 0.02,0.09 0.01,0.14 -0,0.02 -0.01,0.04 -0.02,0.06 -0.01,0.02 -0.02,0.03 -0.03,0.05 -0.01,0.01 -0.01,0.02 -0.02,0.02 -0.01,0.01 -0.01,0.02 -0.02,0.02 -0.01,0.01 -0.03,0.02 -0.04,0.03 -0.06,0.03 -0.12,0.03 -0.16,0.01 -0.01,-0 -0.03,-0.01 -0.03,-0.02l-0.02 -0.01c0,0 0,0 0.01,0.01 0.01,0 0.02,0.01 0.04,0.01 0.04,0.01 0.09,0.01 0.15,-0.03 0.01,-0.01 0.03,-0.02 0.04,-0.03 0.01,-0.01 0.01,-0.01 0.02,-0.02 0,-0.01 0.01,-0.02 0.01,-0.02 0.02,-0.03 0.04,-0.06 0.05,-0.1 0.01,-0.04 0,-0.08 -0.01,-0.11 -0.01,-0.02 -0.02,-0.03 -0.03,-0.05 -0.01,-0.01 -0.01,-0.01 -0.02,-0.02l-0.01 -0.01 -0.01 -0 -0.01 -0c-0.07,-0.05 -0.15,-0.09 -0.22,-0.14 -0.07,-0.04 -0.13,-0.09 -0.19,-0.12zm0.72 0.09c0.01,-0.01 0.02,-0.02 0.03,-0.03 0,-0.01 0.01,-0.01 0.01,-0.02l0.01 -0.02c0.02,-0.03 0.03,-0.05 0.04,-0.08 0.01,-0.03 0,-0.06 -0,-0.09 -0.01,-0.03 -0.02,-0.05 -0.04,-0.07 -0.01,-0.01 -0.02,-0.02 -0.03,-0.03 -0.01,-0.01 -0.03,-0.02 -0.04,-0.02 -0.11,-0.07 -0.2,-0.13 -0.28,-0.19 -0.08,-0.05 -0.15,-0.1 -0.2,-0.13 -0.05,-0.03 -0.07,-0.05 -0.07,-0.05 0,0 0.03,0.02 0.08,0.04l0.03 -0.05c-0.01,-0.01 -0.02,-0.02 -0.03,-0.02 -0.03,-0.02 -0.04,-0.03 -0.04,-0.03 0,0 0.02,0.01 0.05,0.02 0.03,0.02 0.07,0.04 0.12,0.07 0.05,0.03 0.11,0.06 0.17,0.1 0.06,0.04 0.13,0.08 0.19,0.12 0.03,0.02 0.07,0.04 0.1,0.06 0.03,0.02 0.06,0.02 0.1,0.02 0.03,-0 0.06,-0.01 0.09,-0.02 0.01,-0.01 0.03,-0.02 0.04,-0.03 0.01,-0.01 0.02,-0.02 0.03,-0.03 0.01,-0.02 0.03,-0.04 0.04,-0.06 0.01,-0.02 0.02,-0.04 0.02,-0.05 0.01,-0.03 0,-0.05 0,-0.05 0,0 0,0 0,0.01 0,0.01 0,0.02 0,0.04 -0,0.01 -0,0.02 -0.01,0.04l0.5 0.31 0.14 0.08 -0.03 0.04 -0.63 -0.39c-0.01,0.01 -0.02,0.03 -0.03,0.05 -0.01,0.01 -0.02,0.02 -0.03,0.04 -0,0 -0,0 -0,0l0.63 0.39 -0.16 0.25 -0.65 -0.4c0,0.02 -0,0.03 -0,0.05 -0,0.02 -0.01,0.04 -0.02,0.05 -0.01,0.02 -0.02,0.03 -0.03,0.05l-0.01 0.02c-0.01,0.01 -0.01,0.01 -0.02,0.02 -0.01,0.01 -0.02,0.03 -0.04,0.04 -0,0 -0.01,0 -0.01,0.01l0.63 0.39 -0.04 0.06 -0.17 -0.1 -0.51 -0.32c-0,0 -0,0 -0,0 -0.04,0.01 -0.07,0 -0.1,-0.01 -0.02,-0 -0.03,-0.01 -0.05,-0.02 -0.01,-0.01 -0.03,-0.02 -0.04,-0.03 -0.1,-0.07 -0.2,-0.13 -0.28,-0.18 -0.08,-0.05 -0.15,-0.1 -0.2,-0.13 -0.05,-0.03 -0.07,-0.05 -0.07,-0.05 0,0 0.03,0.02 0.08,0.04 0.05,0.03 0.12,0.07 0.21,0.12 0.09,0.05 0.19,0.11 0.29,0.17 0.01,0.01 0.03,0.02 0.04,0.02 0.01,0.01 0.03,0.01 0.04,0.02 0.03,0.01 0.06,0.01 0.09,0 0.03,-0.01 0.06,-0.02 0.08,-0.04zm-1.38 0.02l0.07 -0.11 0.2 -0.02 -0.14 -0.09c0,0 -0.06,-0.06 -0.09,-0.14l0.29 0.18c0.03,-0.05 0.06,-0.1 0.09,-0.16 0.02,-0.04 0.05,-0.08 0.07,-0.12l-0.32 -0.2 0.13 -0.2 0.32 0.2c0.04,-0.06 0.07,-0.11 0.11,-0.17 0.02,-0.02 0.03,-0.05 0.05,-0.07l-0.32 -0.2 0.03 -0.04 0.32 0.2c0.02,-0.03 0.04,-0.06 0.06,-0.09l-0.32 -0.2 0.19 -0.31c0.05,-0.01 0.11,-0.01 0.2,0.05 0.16,0.1 0.82,0.51 0.82,0.51l0.97 0.6 -0.73 -0.56c0.03,0.01 0.07,0.03 0.11,0.05 0.18,0.11 0.69,0.43 0.69,0.43 0,0 -0.08,1.43 0.72,2.05 -0.34,0.02 -0.67,-0.05 -0.95,-0.14 0.04,0.01 0.09,0.01 0.13,0.02 0.04,0.01 0.09,0.01 0.13,0.01 0.04,0 0.08,0.01 0.12,0.01 0.04,0 0.08,0 0.11,0 0.03,0 0.07,0 0.09,0 0.03,-0 0.05,-0 0.07,-0 0.04,-0 0.06,-0 0.06,-0 0,0 -0.02,-0 -0.06,-0.01 -0.02,-0 -0.04,-0.01 -0.07,-0.01 -0.03,-0 -0.06,-0.01 -0.09,-0.02 -0.03,-0.01 -0.07,-0.01 -0.11,-0.02 -0.04,-0.01 -0.08,-0.02 -0.12,-0.03 -0.04,-0.01 -0.08,-0.02 -0.13,-0.03 -0.04,-0.01 -0.09,-0.02 -0.13,-0.04 -0.09,-0.03 -0.17,-0.06 -0.25,-0.09 -0.08,-0.03 -0.15,-0.06 -0.21,-0.09 -0.03,-0.01 -0.05,-0.02 -0.07,-0.04 0,-0 0.01,-0.01 0.01,-0.01 0.03,-0.03 0.06,-0.06 0.1,-0.1 0.03,-0.04 0.07,-0.08 0.1,-0.12 0.02,-0.02 0.03,-0.04 0.05,-0.06 0.02,-0.02 0.03,-0.05 0.04,-0.07 0.03,-0.05 0.06,-0.1 0.08,-0.14 0.01,-0.02 0.02,-0.05 0.03,-0.07 0.01,-0.03 0.02,-0.05 0.03,-0.08 0.02,-0.05 0.03,-0.1 0.05,-0.15 0.01,-0.05 0.02,-0.1 0.03,-0.14 0.01,-0.04 0.01,-0.09 0.02,-0.13 0,-0.04 0.01,-0.08 0.01,-0.11 0,-0.03 0,-0.06 0,-0.08 0,-0.05 0,-0.07 0,-0.07 0,0 -0.01,0.03 -0.02,0.07 -0,0.02 -0.01,0.05 -0.02,0.08 -0.01,0.03 -0.02,0.07 -0.03,0.1 -0.01,0.04 -0.02,0.08 -0.04,0.12 -0.02,0.04 -0.03,0.08 -0.06,0.13 -0.02,0.04 -0.05,0.09 -0.07,0.13 -0.01,0.02 -0.03,0.04 -0.04,0.06 -0.01,0.02 -0.03,0.04 -0.04,0.06 -0.03,0.04 -0.06,0.08 -0.1,0.12 -0.02,0.02 -0.03,0.04 -0.05,0.05 -0.02,0.02 -0.03,0.03 -0.05,0.05 -0.03,0.03 -0.07,0.06 -0.1,0.09 -0.03,0.02 -0.07,0.05 -0.1,0.07 -0.01,0.01 -0.02,0.01 -0.02,0.01l0.54 -0.87 0.06 -0.09 0.14 -0.22 -0.94 -0.58 -0.61 -0.38 -0.05 -0.03c0,0 -0.01,0.02 -0.03,0.06 -0.02,0.04 -0.05,0.09 -0.09,0.16 -0.04,0.06 -0.08,0.14 -0.13,0.22 -0.05,0.08 -0.1,0.17 -0.15,0.25 -0.05,0.08 -0.11,0.17 -0.16,0.25 -0.05,0.08 -0.1,0.15 -0.14,0.21 -0.04,0.06 -0.08,0.11 -0.1,0.15 -0.03,0.04 -0.04,0.06 -0.04,0.06l-0.18 -0.11zm-1.99 -2.3c-0.1,-0.06 -0.22,-0.13 -0.35,-0.21 -0.13,-0.08 -0.26,-0.16 -0.4,-0.24 -0.13,-0.08 -0.27,-0.17 -0.39,-0.25 -0.13,-0.08 -0.24,-0.16 -0.34,-0.22 -0.1,-0.06 -0.18,-0.12 -0.24,-0.16 -0.06,-0.04 -0.09,-0.06 -0.09,-0.06 0,0 0.03,0.02 0.09,0.05 0.06,0.04 0.15,0.08 0.25,0.14 0.1,0.06 0.22,0.13 0.35,0.21 0.13,0.08 0.26,0.16 0.4,0.24 0.13,0.08 0.27,0.17 0.39,0.25 0.13,0.08 0.24,0.16 0.34,0.22 0.1,0.06 0.18,0.12 0.24,0.16 0.06,0.04 0.09,0.06 0.09,0.06 0,0 -0.03,-0.02 -0.09,-0.05 -0.06,-0.04 -0.15,-0.08 -0.25,-0.14zm-1.67 -1.36l0.03 -0.04 4.02 2.5 -0.03 0.04 -4.02 -2.5zm0.18 -0.29l4.02 2.5 -0.1 0.16 -4.02 -2.5 0.1 -0.16zm0.06 -0.1l4.02 2.5 -0.02 0.03 -4.02 -2.5 0.02 -0.03zm6.88 5.72c0.05,-0 0.07,-0.01 0.07,-0.01 0,0 -0.03,0.01 -0.07,0.02 -0.05,0.01 -0.11,0.02 -0.19,0.04 -0.08,0.01 -0.17,0.03 -0.28,0.05 -0.1,0.02 -0.21,0.04 -0.32,0.05 -0.11,0.02 -0.22,0.03 -0.32,0.05 -0.1,0.01 -0.2,0.03 -0.28,0.04 -0.08,0.01 -0.15,0.02 -0.2,0.02 -0.05,0 -0.08,0.01 -0.08,0.01 0,0 0.03,-0.01 0.07,-0.02 0.05,-0.01 0.11,-0.02 0.19,-0.04 0.08,-0.01 0.17,-0.03 0.28,-0.05 0.1,-0.02 0.21,-0.04 0.32,-0.05 0.11,-0.02 0.22,-0.03 0.32,-0.05 0.1,-0.01 0.2,-0.03 0.28,-0.04 0.08,-0.01 0.15,-0.02 0.2,-0.02zm-1.71 2.54c-0.01,-0.06 -0.01,-0.13 -0.02,-0.17 -0.01,-0.05 -0.02,-0.08 -0.02,-0.08 0,0 -0,0.03 -0.01,0.08 -0,0.05 0,0.11 0,0.17 0.01,0.06 0.01,0.13 0.02,0.17 0.01,0.05 0.02,0.08 0.02,0.08 0,0 0,-0.03 0.01,-0.08 0,-0.05 0,-0.11 -0,-0.17zm0.26 0.09c-0,-0.06 -0.01,-0.13 -0.01,-0.2 -0.01,-0.07 -0.01,-0.13 -0.02,-0.2 -0.01,-0.06 -0.02,-0.12 -0.02,-0.17 -0.02,-0.1 -0.03,-0.17 -0.03,-0.17 0,0 -0.01,0.07 -0,0.17 -0,0.05 0,0.11 0,0.17 0,0.06 0.01,0.13 0.01,0.2 0.01,0.07 0.01,0.13 0.02,0.2 0.01,0.06 0.02,0.12 0.02,0.17 0.02,0.1 0.03,0.17 0.03,0.17 0,0 0.01,-0.07 0,-0.17 0,-0.05 -0,-0.11 -0,-0.17zm0.23 -0.35c-0.01,-0.08 -0.01,-0.16 -0.02,-0.25 -0.01,-0.08 -0.01,-0.17 -0.02,-0.26 -0.01,-0.09 -0.01,-0.17 -0.02,-0.25 -0.01,-0.08 -0.02,-0.17 -0.02,-0.25 -0.02,-0.16 -0.03,-0.31 -0.05,-0.44 -0.03,-0.26 -0.06,-0.43 -0.06,-0.43 0,0 -0,0.17 0.01,0.43 0,0.13 0.01,0.28 0.02,0.44 0.01,0.08 0.01,0.16 0.02,0.25 0.01,0.08 0.01,0.17 0.02,0.26 0.01,0.09 0.02,0.17 0.02,0.25 0.01,0.08 0.02,0.17 0.02,0.25 0.02,0.16 0.03,0.31 0.05,0.44 0.03,0.26 0.06,0.43 0.06,0.43 0,0 0,-0.17 -0.01,-0.43 -0,-0.13 -0.01,-0.28 -0.02,-0.44zm0.8 -1.26c0,0.07 0.01,0.14 0.01,0.21 0.01,0.07 0.01,0.14 0.02,0.21 0.01,0.07 0.01,0.14 0.02,0.21 0.01,0.07 0.01,0.14 0.02,0.21 0.01,0.13 0.03,0.26 0.04,0.37 0.03,0.21 0.05,0.36 0.05,0.36 0,0 0,-0.14 -0,-0.36 -0,-0.11 -0.01,-0.23 -0.02,-0.37 -0,-0.07 -0.01,-0.14 -0.01,-0.21 -0.01,-0.07 -0.01,-0.14 -0.02,-0.21 -0.01,-0.07 -0.01,-0.14 -0.02,-0.21 -0.01,-0.07 -0.01,-0.14 -0.02,-0.21 -0.01,-0.13 -0.03,-0.26 -0.04,-0.37 -0.03,-0.21 -0.05,-0.36 -0.05,-0.36 0,0 -0,0.14 0,0.36 0,0.11 0.01,0.23 0.02,0.37zm-0.23 0.18c0.01,0.08 0.01,0.17 0.02,0.25 0.01,0.09 0.01,0.17 0.02,0.26 0.01,0.09 0.02,0.17 0.02,0.26 0.01,0.09 0.02,0.17 0.02,0.25 0.02,0.16 0.03,0.31 0.05,0.44 0.03,0.26 0.06,0.43 0.06,0.43 0,0 0,-0.17 -0.01,-0.43 -0.01,-0.13 -0.01,-0.28 -0.02,-0.44 -0.01,-0.08 -0.01,-0.17 -0.02,-0.25 -0.01,-0.09 -0.01,-0.17 -0.02,-0.26 -0.01,-0.09 -0.01,-0.17 -0.02,-0.26 -0.01,-0.09 -0.02,-0.17 -0.02,-0.25 -0.02,-0.16 -0.03,-0.31 -0.05,-0.44 -0.03,-0.26 -0.06,-0.43 -0.06,-0.43 0,0 -0,0.17 0.01,0.43 0.01,0.13 0.01,0.28 0.02,0.44zm-0.29 1.7c-0.01,-0.14 -0.01,-0.3 -0.03,-0.48 -0.01,-0.09 -0.01,-0.18 -0.02,-0.27 -0.01,-0.09 -0.01,-0.19 -0.02,-0.28 -0.01,-0.09 -0.02,-0.19 -0.02,-0.28 -0.01,-0.09 -0.02,-0.18 -0.03,-0.27 -0.02,-0.17 -0.04,-0.34 -0.05,-0.48 -0.02,-0.14 -0.03,-0.26 -0.04,-0.34 -0.01,-0.08 -0.02,-0.13 -0.02,-0.13 0,0 0,0.05 0,0.13 0,0.08 0,0.2 0.01,0.34 0.01,0.14 0.01,0.3 0.03,0.48 0.01,0.09 0.01,0.18 0.02,0.27 0.01,0.09 0.01,0.19 0.02,0.28 0.01,0.09 0.02,0.19 0.02,0.28 0.01,0.09 0.02,0.18 0.03,0.27 0.02,0.17 0.04,0.34 0.05,0.48 0.02,0.14 0.03,0.26 0.04,0.34 0.01,0.08 0.02,0.13 0.02,0.13 0,0 0,-0.05 -0,-0.13 -0,-0.08 -0,-0.2 -0.01,-0.34zm0.25 0.08c-0.01,-0.15 -0.02,-0.32 -0.03,-0.51 -0.01,-0.09 -0.01,-0.19 -0.02,-0.29 -0.01,-0.1 -0.02,-0.2 -0.02,-0.29 -0.01,-0.1 -0.02,-0.2 -0.03,-0.29 -0.01,-0.1 -0.02,-0.19 -0.03,-0.28 -0.02,-0.18 -0.04,-0.36 -0.05,-0.5 -0.02,-0.15 -0.04,-0.27 -0.05,-0.36 -0.01,-0.09 -0.02,-0.13 -0.02,-0.13 0,0 0,0.05 0,0.14 0,0.09 0.01,0.21 0.01,0.36 0.01,0.15 0.02,0.32 0.03,0.51 0.01,0.09 0.01,0.19 0.02,0.29 0.01,0.1 0.01,0.2 0.02,0.29 0.01,0.1 0.02,0.2 0.03,0.29 0.01,0.1 0.02,0.19 0.03,0.28 0.02,0.18 0.04,0.36 0.05,0.5 0.02,0.15 0.04,0.27 0.05,0.36 0.01,0.09 0.02,0.13 0.02,0.13 0,0 -0,-0.05 -0,-0.14 -0,-0.09 -0.01,-0.21 -0.01,-0.36zm-0.09 -4.54c-0,0.03 -0,0.06 -0,0.09 0,0.02 0,0.03 0,0.05 0,0.02 0,0.04 0,0.06 0,0.04 0.01,0.08 0.01,0.12 0.01,0.04 0.01,0.09 0.02,0.13 0.01,0.04 0.02,0.09 0.03,0.13 0.01,0.04 0.03,0.09 0.04,0.13 0.01,0.04 0.03,0.08 0.05,0.12 0.02,0.04 0.04,0.08 0.05,0.11 0.02,0.03 0.04,0.07 0.05,0.1 0.07,0.12 0.13,0.18 0.13,0.18 0,0 -0.04,-0.08 -0.09,-0.21 -0.01,-0.03 -0.03,-0.06 -0.04,-0.1 -0.01,-0.04 -0.03,-0.07 -0.04,-0.11 -0.01,-0.04 -0.03,-0.08 -0.04,-0.12 -0.01,-0.04 -0.03,-0.08 -0.04,-0.13 -0.03,-0.08 -0.05,-0.17 -0.07,-0.25 -0.01,-0.04 -0.02,-0.08 -0.03,-0.12 -0.01,-0.04 -0.01,-0.07 -0.02,-0.11 -0,-0.03 -0.01,-0.06 -0.02,-0.09 -0,-0.03 -0.01,-0.05 -0.01,-0.07 -0.01,-0.04 -0.01,-0.06 -0.01,-0.06 0,0 -0,0.02 -0.01,0.06 -0,0.02 -0,0.04 -0.01,0.07z"/>
   <path fill="black" fill-rule="nonzero" d="M7.77 4.84c-0,0.03 -0,0.06 -0,0.09 0,0.02 0,0.03 0,0.05 0,0.02 0,0.04 0,0.06 0,0.04 0.01,0.08 0.01,0.12 0.01,0.04 0.01,0.09 0.02,0.13 0.01,0.04 0.02,0.09 0.03,0.13 0.01,0.04 0.03,0.09 0.04,0.13 0.01,0.04 0.03,0.08 0.05,0.12 0.02,0.04 0.04,0.08 0.05,0.11 0.02,0.03 0.04,0.07 0.05,0.1 0.07,0.12 0.13,0.19 0.13,0.19 0,0 -0.04,-0.08 -0.09,-0.21 -0.01,-0.03 -0.03,-0.06 -0.04,-0.1 -0.01,-0.04 -0.03,-0.07 -0.04,-0.11 -0.01,-0.04 -0.03,-0.08 -0.04,-0.12 -0.01,-0.04 -0.03,-0.08 -0.04,-0.13 -0.03,-0.08 -0.05,-0.17 -0.07,-0.25 -0.01,-0.04 -0.02,-0.08 -0.03,-0.12 -0.01,-0.04 -0.01,-0.07 -0.02,-0.11 -0.01,-0.03 -0.01,-0.06 -0.02,-0.09 -0,-0.03 -0.01,-0.05 -0.01,-0.07 -0.01,-0.04 -0.01,-0.06 -0.01,-0.06 0,0 -0,0.02 -0.01,0.06 -0,0.02 -0,0.04 -0.01,0.07z"/>
   <path fill="black" fill-rule="nonzero" d="M7.85 9.38c-0.01,-0.15 -0.02,-0.32 -0.03,-0.51 -0.01,-0.09 -0.01,-0.19 -0.02,-0.29 -0.01,-0.1 -0.01,-0.2 -0.02,-0.29 -0.01,-0.1 -0.02,-0.2 -0.03,-0.29 -0.01,-0.1 -0.02,-0.19 -0.03,-0.28 -0.02,-0.18 -0.04,-0.36 -0.05,-0.5 -0.02,-0.15 -0.04,-0.27 -0.05,-0.36 -0.01,-0.09 -0.02,-0.13 -0.02,-0.13 0,0 0,0.05 0,0.14 0,0.09 0.01,0.21 0.01,0.36 0.01,0.15 0.02,0.32 0.03,0.51 0.01,0.09 0.01,0.19 0.02,0.29 0.01,0.1 0.01,0.2 0.02,0.29 0.01,0.1 0.02,0.2 0.03,0.29 0.01,0.1 0.02,0.19 0.03,0.28 0.02,0.18 0.04,0.36 0.05,0.5 0.02,0.15 0.03,0.27 0.05,0.36 0.01,0.09 0.02,0.13 0.02,0.13 0,0 -0,-0.05 -0,-0.14 -0,-0.09 -0.01,-0.21 -0.01,-0.36z"/>
   <path fill="black" fill-rule="nonzero" d="M7.6 9.3c-0.01,-0.14 -0.01,-0.3 -0.03,-0.48 -0.01,-0.09 -0.01,-0.18 -0.02,-0.27 -0.01,-0.09 -0.01,-0.19 -0.02,-0.28 -0.01,-0.09 -0.02,-0.19 -0.02,-0.28 -0.01,-0.09 -0.02,-0.18 -0.03,-0.27 -0.02,-0.17 -0.04,-0.34 -0.05,-0.48 -0.02,-0.14 -0.03,-0.26 -0.04,-0.34 -0.01,-0.08 -0.02,-0.13 -0.02,-0.13 0,0 0,0.05 0,0.13 0,0.08 0,0.2 0.01,0.34 0.01,0.14 0.01,0.3 0.03,0.48 0.01,0.09 0.01,0.18 0.02,0.27 0.01,0.09 0.01,0.19 0.02,0.28 0.01,0.09 0.02,0.19 0.02,0.28 0.01,0.09 0.02,0.18 0.03,0.27 0.02,0.17 0.04,0.34 0.05,0.48 0.02,0.14 0.03,0.26 0.04,0.34 0.01,0.08 0.02,0.13 0.02,0.13 0,0 0,-0.05 -0,-0.13 -0,-0.08 -0,-0.2 -0.01,-0.34z"/>
   <path fill="black" fill-rule="nonzero" d="M7.89 7.6c0.01,0.08 0.01,0.17 0.02,0.25 0.01,0.09 0.01,0.17 0.02,0.26 0.01,0.09 0.01,0.17 0.02,0.26 0.01,0.09 0.02,0.17 0.02,0.25 0.02,0.16 0.03,0.31 0.05,0.44 0.03,0.26 0.06,0.43 0.06,0.43 0,0 0,-0.17 -0.01,-0.43 -0.01,-0.13 -0.01,-0.28 -0.02,-0.44 -0.01,-0.08 -0.01,-0.17 -0.02,-0.25 -0.01,-0.09 -0.01,-0.17 -0.02,-0.26 -0.01,-0.09 -0.02,-0.17 -0.02,-0.26 -0.01,-0.09 -0.02,-0.17 -0.02,-0.25 -0.02,-0.16 -0.03,-0.31 -0.05,-0.44 -0.03,-0.26 -0.06,-0.43 -0.06,-0.43 0,0 -0,0.17 0.01,0.43 0.01,0.13 0.01,0.28 0.02,0.44z"/>
   <path fill="black" fill-rule="nonzero" d="M8.12 7.42c0,0.07 0.01,0.14 0.01,0.21 0.01,0.07 0.01,0.14 0.02,0.21 0.01,0.07 0.01,0.14 0.02,0.21 0.01,0.07 0.01,0.14 0.02,0.21 0.01,0.13 0.03,0.26 0.04,0.37 0.03,0.21 0.05,0.36 0.05,0.36 0,0 0,-0.14 -0,-0.36 -0,-0.11 -0.01,-0.23 -0.02,-0.37 -0,-0.07 -0.01,-0.14 -0.01,-0.21 -0.01,-0.07 -0.01,-0.14 -0.02,-0.21 -0.01,-0.07 -0.01,-0.14 -0.02,-0.21 -0.01,-0.07 -0.01,-0.14 -0.02,-0.21 -0.01,-0.13 -0.03,-0.26 -0.04,-0.37 -0.03,-0.21 -0.05,-0.36 -0.05,-0.36 0,0 -0,0.14 0,0.36 0,0.11 0.01,0.23 0.02,0.37z"/>
   <path fill="black" fill-rule="nonzero" d="M7.31 8.68c-0.01,-0.08 -0.01,-0.16 -0.02,-0.25 -0.01,-0.08 -0.01,-0.17 -0.02,-0.25 -0.01,-0.09 -0.02,-0.17 -0.02,-0.26 -0.01,-0.08 -0.02,-0.17 -0.02,-0.25 -0.02,-0.16 -0.03,-0.31 -0.05,-0.44 -0.03,-0.26 -0.06,-0.43 -0.06,-0.43 0,0 -0,0.17 0.01,0.43 0,0.13 0.01,0.28 0.02,0.44 0.01,0.08 0.01,0.16 0.02,0.25 0.01,0.08 0.01,0.17 0.02,0.26 0.01,0.09 0.02,0.17 0.02,0.25 0.01,0.08 0.02,0.17 0.02,0.25 0.02,0.16 0.03,0.31 0.05,0.44 0.03,0.26 0.06,0.43 0.06,0.43 0,0 0,-0.17 -0.01,-0.43 -0,-0.13 -0.01,-0.28 -0.02,-0.44z"/>
   <path fill="black" fill-rule="nonzero" d="M7.09 9.03c-0,-0.06 -0.01,-0.13 -0.01,-0.2 -0.01,-0.07 -0.01,-0.13 -0.02,-0.2 -0.01,-0.06 -0.02,-0.12 -0.02,-0.17 -0.02,-0.1 -0.03,-0.17 -0.03,-0.17 0,0 -0.01,0.07 -0,0.17 -0,0.05 0,0.11 0,0.17 0,0.06 0.01,0.13 0.01,0.2 0.01,0.07 0.01,0.13 0.02,0.2 0.01,0.06 0.02,0.12 0.02,0.17 0.02,0.1 0.03,0.17 0.03,0.17 0,0 0.01,-0.07 0,-0.17 0,-0.05 -0,-0.11 -0,-0.17z"/>
   <path fill="black" fill-rule="nonzero" d="M6.83 8.94c-0.01,-0.06 -0.01,-0.13 -0.02,-0.17 -0.01,-0.05 -0.02,-0.08 -0.02,-0.08 0,0 -0,0.03 -0.01,0.08 -0,0.05 0,0.11 0,0.17 0.01,0.06 0.01,0.13 0.02,0.17 0.01,0.05 0.02,0.08 0.02,0.08 0,0 0,-0.03 0.01,-0.08 0,-0.05 0,-0.11 -0,-0.17z"/>
   <path fill="black" d="M5.76 3.08c0.08,-0.02 0.19,-0.02 0.32,0.06l0.79 0.49c0.07,0 0.22,0.02 0.38,0.12l0.69 0.43c0.04,0.03 0.06,0.07 0.06,0.12 -0,0 -0.01,0.11 0,0.28l0.21 0.13c-0.09,0.24 -0.07,0.45 -0.06,0.53 0.11,-0.01 0.22,-0.01 0.34,-0l0.03 0 0.01 0.01 0.44 0.27c0.03,0.02 0.04,0.06 0.02,0.09 -0.02,0.03 -0.06,0.04 -0.09,0.02l-0.42 -0.26c-0.11,0.02 -0.21,0.04 -0.32,0.06 -0,0 -0,0 -0.01,0 0.11,0.34 0.3,0.68 0.62,0.89 0.06,0.04 0.08,0.12 0.04,0.18l-0.21 0.34c-0.01,0.05 0.01,0.21 0.02,0.35 0.01,0.14 0.03,0.31 0.04,0.5 0.03,0.44 0.02,0.99 -0.13,1.57 -0.09,0.34 -0.22,0.68 -0.43,1.01 -0.04,0.06 -0.12,0.08 -0.18,0.04l-0.9 -0.56 -0.79 -0.49c-0.06,-0.04 -0.08,-0.12 -0.04,-0.18l0.45 -0.73 0.32 -0.52c0.15,-0.23 -0.27,-0.68 -0.42,-0.82 -0,-0 -0,-0 -0,-0 -0.04,0.03 -0.08,0.05 -0.12,0.08 -0.04,0.02 -0.09,0.04 -0.14,0.06 -0.05,0.02 -0.11,0.03 -0.16,0.03 -0.06,-0 -0.12,-0.02 -0.17,-0.05 -0.04,-0.03 -0.08,-0.05 -0.13,-0.08 -0.09,-0.05 -0.17,-0.11 -0.26,-0.16 -0.04,-0.03 -0.09,-0.05 -0.13,-0.08l-0.07 -0.04 -0.01 -0 -0 -0 -0.01 -0 -0 -0 -0.02 -0.01 -0.02 -0.01c-0.01,-0 -0.01,-0.01 -0.02,-0.02 -0.03,-0.02 -0.04,-0.05 -0.06,-0.07 -0.01,-0.03 -0.03,-0.05 -0.04,-0.08 -0,-0.01 -0.01,-0.03 -0.01,-0.04l-0.01 -0.04c-0.01,-0.03 -0.01,-0.05 -0.01,-0.08 -0,-0.11 0.01,-0.21 0.03,-0.3 0.02,-0.09 0.03,-0.18 0.05,-0.26 0.01,-0.08 0.03,-0.16 0.04,-0.23 0,-0.03 0.01,-0.05 0.01,-0.07l-0.51 -0.32c-0.06,-0.04 -0.08,-0.12 -0.04,-0.18l0.3 -0.49c-0.04,-0.06 -0.07,-0.13 -0.07,-0.2l-0.05 -0.03 0 -0.01 -0.92 -0.57 -0.02 -0.01 0 0 -0.09 -0.06 0 -0 -0.04 -0.03 -0 0c-0.11,-0.07 -0.22,-0.13 -0.32,-0.2l0.05 -0.13c0.01,-0.09 0.01,-0.2 -0.01,-0.29 -0.04,-0.08 -0.1,-0.17 -0.17,-0.24l-0.24 -0.15 -1.44 -0.9 -0.51 -0.32c-0.06,-0.04 -0.08,-0.12 -0.04,-0.18l0.37 -0.6c0.04,-0.06 0.12,-0.08 0.18,-0.04l0.15 0.09c0.02,-0.03 0.04,-0.04 0.07,-0.05 0.12,-0.05 0.25,0.15 0.34,0.3 1.16,0.72 2.32,1.44 3.48,2.17zm-1.91 0.55l0 -0 -0 0zm3.68 6.27c0.01,0 0.01,0.01 0.02,0.01 0.07,0.04 0.14,0.07 0.21,0.11 0.07,0.04 0.14,0.07 0.21,0.11 -0.06,-0.05 -0.13,-0.1 -0.19,-0.14 -0.06,-0.05 -0.13,-0.09 -0.19,-0.14 -0.07,-0.04 -0.13,-0.09 -0.19,-0.13l-0.2 -0.13c-0.13,-0.09 -0.26,-0.17 -0.4,-0.26l-0.2 -0.13 -0.15 -0.09c0.05,-0.08 0.1,-0.16 0.15,-0.24 0.06,-0.1 0.12,-0.2 0.17,-0.3 0.03,-0.05 0.06,-0.1 0.09,-0.15 0.03,-0.05 0.06,-0.1 0.08,-0.15 0.06,-0.1 0.11,-0.21 0.16,-0.31 -0.07,0.09 -0.14,0.19 -0.21,0.28 -0.03,0.05 -0.07,0.09 -0.1,0.14 -0.03,0.05 -0.07,0.1 -0.1,0.14 -0.02,0.02 -0.03,0.05 -0.05,0.07 0.15,-0.25 0.32,-0.52 0.43,-0.7 0.19,-0.31 -0.21,-0.76 -0.38,-0.92l0.14 -0.23 1.81 -0.26c-0.03,0.04 -0.06,0.08 -0.09,0.13 -0.02,0.03 -0.04,0.06 -0.07,0.1 -0.01,0.02 -0.02,0.03 -0.04,0.05 -0.01,0.01 -0.01,0.03 -0.02,0.04 -0,0.01 -0,0.02 -0.01,0.04 -0.01,0.09 -0.01,0.19 -0,0.3 0,0.07 0,0.14 0.01,0.22 -0,-0.03 -0.01,-0.06 -0.01,-0.09 -0.01,-0.11 -0.02,-0.21 -0.04,-0.3 -0.02,-0.17 -0.05,-0.29 -0.05,-0.29 0,0 -0.01,0.12 -0,0.29 0,0.09 0,0.19 0.01,0.3 0,0.05 0.01,0.11 0.01,0.17 0,0.06 0.01,0.11 0.01,0.17 0.01,0.06 0.01,0.12 0.02,0.17 0,0.06 0.01,0.11 0.02,0.17 0.01,0.09 0.02,0.17 0.03,0.24 -0.01,0.11 -0.01,0.22 -0.03,0.32 -0.01,0.12 -0.03,0.23 -0.05,0.34 -0.04,0.22 -0.09,0.42 -0.15,0.59 -0.03,0.08 -0.06,0.16 -0.08,0.23 -0.03,0.07 -0.05,0.13 -0.07,0.17 -0.04,0.1 -0.07,0.15 -0.07,0.15 0,0 0.01,-0.01 0.03,-0.03 0.02,-0.02 0.04,-0.06 0.07,-0.1 0.06,-0.09 0.13,-0.22 0.21,-0.39 0.07,-0.17 0.14,-0.37 0.19,-0.59 0,-0 0,-0 0,-0.01 -0,0 -0,0 -0,0.01 -0.07,0.43 -0.22,0.89 -0.49,1.33l-0.46 -0.29zm-1.41 -2.87c-0.04,0 -0.07,-0 -0.11,-0.02 -0.04,-0.02 -0.09,-0.05 -0.13,-0.08 -0.09,-0.05 -0.17,-0.1 -0.26,-0.16 -0.04,-0.03 -0.09,-0.05 -0.13,-0.08l-0.06 -0.04 -0.01 -0 -0 -0 -0 -0 -0.01 -0.01 -0.02 -0.01c-0,-0 -0.01,-0.01 -0.01,-0.01 -0.01,-0.01 -0.02,-0.03 -0.03,-0.05 -0.01,-0.02 -0.02,-0.04 -0.02,-0.06 -0,-0.01 -0.01,-0.02 -0.01,-0.03l-0 -0.03c-0,-0.02 -0,-0.04 -0,-0.06 0,-0.09 0.03,-0.17 0.06,-0.25 0.02,-0.04 0.04,-0.07 0.06,-0.11 0.02,-0.03 0.04,-0.07 0.07,-0.09 0.05,-0.06 0.1,-0.11 0.14,-0.15 0.01,-0.01 0.02,-0.02 0.03,-0.03l0.52 0.32c-0,0.11 -0.02,0.22 -0.08,0.31 -0.14,0.22 -0.47,0.08 -0.48,0.17 -0.01,0.08 0.26,0.14 0.4,0.09 0.14,-0.05 0.21,-0.12 0.28,-0.24 0.03,-0.05 0.07,-0.09 0.12,-0.13 0.09,0.15 0.1,0.35 0.09,0.48 -0.01,0.01 -0.01,0.02 -0.02,0.02 -0.05,0.05 -0.1,0.11 -0.17,0.16 -0.06,0.05 -0.14,0.09 -0.21,0.09zm-0.59 -1.5c-0.13,-0.08 -0.24,-0.16 -0.35,-0.22 -0.1,-0.07 -0.18,-0.12 -0.24,-0.16 -0.06,-0.04 -0.09,-0.06 -0.09,-0.06 0,0 0.03,0.02 0.1,0.05 0.06,0.04 0.15,0.08 0.25,0.15 0.1,0.06 0.22,0.13 0.35,0.21 0.13,0.08 0.27,0.16 0.4,0.25 0.14,0.09 0.27,0.17 0.4,0.25 0.02,0.01 0.03,0.02 0.05,0.03 0.02,0.01 0.03,0.02 0.04,0.03 0.03,0.02 0.05,0.05 0.08,0.08 0.04,0.06 0.07,0.12 0.09,0.18 0.04,0.12 0.04,0.22 0.04,0.29 0,0.04 0,0.06 -0,0.08 -0,0.02 -0,0.03 -0,0.03 0,0 -0,-0.01 -0,-0.03 -0,-0.02 -0,-0.05 -0.01,-0.08 -0.01,-0.07 -0.02,-0.17 -0.06,-0.28 -0.02,-0.06 -0.05,-0.11 -0.09,-0.16 -0.04,-0.05 -0.1,-0.09 -0.16,-0.13 -0.13,-0.08 -0.26,-0.16 -0.4,-0.25 -0.14,-0.09 -0.27,-0.17 -0.4,-0.25zm0.2 -0.92c-0.05,-0.04 -0.1,-0.07 -0.13,-0.09 -0.03,-0.02 -0.05,-0.04 -0.05,-0.04 0,0 0.02,0.01 0.05,0.03 0.03,0.02 0.08,0.04 0.14,0.08 0.06,0.03 0.12,0.07 0.19,0.11 0.07,0.04 0.15,0.09 0.22,0.13l0.01 0 0.01 0.01 0.01 0.01c0.01,0.01 0.02,0.02 0.03,0.03 0.02,0.02 0.03,0.04 0.04,0.06 0.02,0.04 0.02,0.09 0.01,0.14 -0,0.02 -0.01,0.04 -0.02,0.06 -0.01,0.02 -0.02,0.03 -0.03,0.05 -0.01,0.01 -0.01,0.02 -0.02,0.02 -0.01,0.01 -0.01,0.02 -0.02,0.02 -0.01,0.01 -0.03,0.02 -0.04,0.03 -0.06,0.03 -0.12,0.03 -0.16,0.01 -0.01,-0 -0.03,-0.01 -0.03,-0.02l-0.02 -0.01c0,0 0,0 0.01,0.01 0.01,0 0.02,0.01 0.04,0.01 0.04,0.01 0.09,0.01 0.15,-0.03 0.01,-0.01 0.03,-0.02 0.04,-0.03 0.01,-0.01 0.01,-0.01 0.02,-0.02 0,-0.01 0.01,-0.02 0.01,-0.02 0.02,-0.03 0.04,-0.06 0.05,-0.1 0.01,-0.04 0,-0.08 -0.01,-0.11 -0.01,-0.02 -0.02,-0.03 -0.03,-0.05 -0.01,-0.01 -0.01,-0.01 -0.02,-0.02l-0.01 -0.01 -0.01 -0 -0.01 -0c-0.07,-0.05 -0.15,-0.09 -0.22,-0.14 -0.07,-0.04 -0.13,-0.09 -0.19,-0.12zm0.72 0.09c0.01,-0.01 0.02,-0.02 0.03,-0.03 0,-0.01 0.01,-0.01 0.01,-0.02l0.01 -0.02c0.02,-0.03 0.03,-0.05 0.04,-0.08 0.01,-0.03 0,-0.06 -0,-0.09 -0.01,-0.03 -0.02,-0.05 -0.04,-0.07 -0.01,-0.01 -0.02,-0.02 -0.03,-0.03 -0.01,-0.01 -0.03,-0.02 -0.04,-0.02 -0.11,-0.07 -0.2,-0.13 -0.28,-0.19 -0.08,-0.05 -0.15,-0.1 -0.2,-0.13 -0.05,-0.03 -0.07,-0.05 -0.07,-0.05 0,0 0.03,0.02 0.08,0.04l0.03 -0.05c-0.01,-0.01 -0.02,-0.02 -0.03,-0.02 -0.03,-0.02 -0.04,-0.03 -0.04,-0.03 0,0 0.02,0.01 0.05,0.02 0.03,0.02 0.07,0.04 0.12,0.07 0.05,0.03 0.11,0.06 0.17,0.1 0.06,0.04 0.13,0.08 0.19,0.12 0.03,0.02 0.07,0.04 0.1,0.06 0.03,0.02 0.06,0.02 0.1,0.02 0.03,-0 0.06,-0.01 0.09,-0.02 0.01,-0.01 0.03,-0.02 0.04,-0.03 0.01,-0.01 0.02,-0.02 0.03,-0.03 0.01,-0.02 0.03,-0.04 0.04,-0.06 0.01,-0.02 0.02,-0.04 0.02,-0.05 0.01,-0.03 0,-0.05 0,-0.05 0,0 0,0 0,0.01 0,0.01 0,0.02 0,0.04 -0,0.01 -0,0.02 -0.01,0.04l0.5 0.31 0.14 0.08 -0.03 0.04 -0.63 -0.39c-0.01,0.01 -0.02,0.03 -0.03,0.05 -0.01,0.01 -0.02,0.02 -0.03,0.04 -0,0 -0,0 -0,0l0.63 0.39 -0.16 0.25 -0.65 -0.4c0,0.02 -0,0.03 -0,0.05 -0,0.02 -0.01,0.04 -0.02,0.05 -0.01,0.02 -0.02,0.03 -0.03,0.05l-0.01 0.02c-0.01,0.01 -0.01,0.01 -0.02,0.02 -0.01,0.01 -0.02,0.03 -0.04,0.04 -0,0 -0.01,0 -0.01,0.01l0.63 0.39 -0.04 0.06 -0.17 -0.1 -0.51 -0.32c-0,0 -0,0 -0,0 -0.04,0.01 -0.07,0 -0.1,-0.01 -0.02,-0 -0.03,-0.01 -0.05,-0.02 -0.01,-0.01 -0.03,-0.02 -0.04,-0.03 -0.1,-0.07 -0.2,-0.13 -0.28,-0.18 -0.08,-0.05 -0.15,-0.1 -0.2,-0.13 -0.05,-0.03 -0.07,-0.05 -0.07,-0.05 0,0 0.03,0.02 0.08,0.04 0.05,0.03 0.12,0.07 0.21,0.12 0.09,0.05 0.19,0.11 0.29,0.17 0.01,0.01 0.03,0.02 0.04,0.02 0.01,0.01 0.03,0.01 0.04,0.02 0.03,0.01 0.06,0.01 0.09,0 0.03,-0.01 0.06,-0.02 0.08,-0.04zm-1.38 0.02l0.07 -0.11 0.2 -0.02 -0.14 -0.09c0,0 -0.06,-0.06 -0.09,-0.14l0.29 0.18c0.03,-0.05 0.06,-0.1 0.09,-0.16 0.02,-0.04 0.05,-0.08 0.07,-0.12l-0.32 -0.2 0.13 -0.2 0.32 0.2c0.04,-0.06 0.07,-0.11 0.11,-0.17 0.02,-0.02 0.03,-0.05 0.05,-0.07l-0.32 -0.2 0.03 -0.04 0.32 0.2c0.02,-0.03 0.04,-0.06 0.06,-0.09l-0.32 -0.2 0.19 -0.31c0.05,-0.01 0.11,-0.01 0.2,0.05 0.16,0.1 0.82,0.51 0.82,0.51l0.97 0.6 -0.73 -0.56c0.03,0.01 0.07,0.03 0.11,0.05 0.18,0.11 0.69,0.43 0.69,0.43 0,0 -0.08,1.43 0.72,2.05 -0.34,0.02 -0.67,-0.05 -0.95,-0.14 0.04,0.01 0.09,0.01 0.13,0.02 0.04,0.01 0.09,0.01 0.13,0.01 0.04,0 0.08,0.01 0.12,0.01 0.04,0 0.08,0 0.11,0 0.03,0 0.07,0 0.09,0 0.03,-0 0.05,-0 0.07,-0 0.04,-0 0.06,-0 0.06,-0 0,0 -0.02,-0 -0.06,-0.01 -0.02,-0 -0.04,-0.01 -0.07,-0.01 -0.03,-0 -0.06,-0.01 -0.09,-0.02 -0.03,-0.01 -0.07,-0.01 -0.11,-0.02 -0.04,-0.01 -0.08,-0.02 -0.12,-0.03 -0.04,-0.01 -0.08,-0.02 -0.13,-0.03 -0.04,-0.01 -0.09,-0.02 -0.13,-0.04 -0.09,-0.03 -0.17,-0.06 -0.25,-0.09 -0.08,-0.03 -0.15,-0.06 -0.21,-0.09 -0.03,-0.01 -0.05,-0.02 -0.07,-0.04 0,-0 0.01,-0.01 0.01,-0.01 0.03,-0.03 0.06,-0.06 0.1,-0.1 0.03,-0.04 0.07,-0.08 0.1,-0.12 0.02,-0.02 0.03,-0.04 0.05,-0.06 0.02,-0.02 0.03,-0.05 0.04,-0.07 0.03,-0.05 0.06,-0.1 0.08,-0.14 0.01,-0.02 0.02,-0.05 0.03,-0.07 0.01,-0.03 0.02,-0.05 0.03,-0.08 0.02,-0.05 0.03,-0.1 0.05,-0.15 0.01,-0.05 0.02,-0.1 0.03,-0.14 0.01,-0.04 0.01,-0.09 0.02,-0.13 0,-0.04 0.01,-0.08 0.01,-0.11 0,-0.03 0,-0.06 0,-0.08 0,-0.05 0,-0.07 0,-0.07 0,0 -0.01,0.03 -0.02,0.07 -0,0.02 -0.01,0.05 -0.02,0.08 -0.01,0.03 -0.02,0.07 -0.03,0.1 -0.01,0.04 -0.02,0.08 -0.04,0.12 -0.02,0.04 -0.03,0.08 -0.06,0.13 -0.02,0.04 -0.05,0.09 -0.07,0.13 -0.01,0.02 -0.03,0.04 -0.04,0.06 -0.01,0.02 -0.03,0.04 -0.04,0.06 -0.03,0.04 -0.06,0.08 -0.1,0.12 -0.02,0.02 -0.03,0.04 -0.05,0.05 -0.02,0.02 -0.03,0.03 -0.05,0.05 -0.03,0.03 -0.07,0.06 -0.1,0.09 -0.03,0.02 -0.07,0.05 -0.1,0.07 -0.01,0.01 -0.02,0.01 -0.02,0.01l0.54 -0.87 0.06 -0.09 0.14 -0.22 -0.94 -0.58 -0.61 -0.38 -0.05 -0.03c0,0 -0.01,0.02 -0.03,0.06 -0.02,0.04 -0.05,0.09 -0.09,0.16 -0.04,0.06 -0.08,0.14 -0.13,0.22 -0.05,0.08 -0.1,0.17 -0.15,0.25 -0.05,0.08 -0.11,0.17 -0.16,0.25 -0.05,0.08 -0.1,0.15 -0.14,0.21 -0.04,0.06 -0.08,0.11 -0.1,0.15 -0.03,0.04 -0.04,0.06 -0.04,0.06l-0.18 -0.11zm-1.99 -2.3c-0.1,-0.06 -0.22,-0.13 -0.35,-0.21 -0.13,-0.08 -0.26,-0.16 -0.4,-0.24 -0.13,-0.08 -0.27,-0.17 -0.39,-0.25 -0.13,-0.08 -0.24,-0.16 -0.34,-0.22 -0.1,-0.06 -0.18,-0.12 -0.24,-0.16 -0.06,-0.04 -0.09,-0.06 -0.09,-0.06 0,0 0.03,0.02 0.09,0.05 0.06,0.04 0.15,0.08 0.25,0.14 0.1,0.06 0.22,0.13 0.35,0.21 0.13,0.08 0.26,0.16 0.4,0.24 0.13,0.08 0.27,0.17 0.39,0.25 0.13,0.08 0.24,0.16 0.34,0.22 0.1,0.06 0.18,0.12 0.24,0.16 0.06,0.04 0.09,0.06 0.09,0.06 0,0 -0.03,-0.02 -0.09,-0.05 -0.06,-0.04 -0.15,-0.08 -0.25,-0.14zm-1.67 -1.36l0.03 -0.04 4.02 2.5 -0.03 0.04 -4.02 -2.5zm0.18 -0.29l4.02 2.5 -0.1 0.16 -4.02 -2.5 0.1 -0.16zm0.06 -0.1l4.02 2.5 -0.02 0.03 -4.02 -2.5 0.02 -0.03zm6.88 5.72c0.05,-0 0.07,-0.01 0.07,-0.01 0,0 -0.03,0.01 -0.07,0.02 -0.05,0.01 -0.11,0.02 -0.19,0.04 -0.08,0.01 -0.17,0.03 -0.28,0.05 -0.1,0.02 -0.21,0.04 -0.32,0.05 -0.11,0.02 -0.22,0.03 -0.32,0.05 -0.1,0.01 -0.2,0.03 -0.28,0.04 -0.08,0.01 -0.15,0.02 -0.2,0.02 -0.05,0 -0.08,0.01 -0.08,0.01 0,0 0.03,-0.01 0.07,-0.02 0.05,-0.01 0.11,-0.02 0.19,-0.04 0.08,-0.01 0.17,-0.03 0.28,-0.05 0.1,-0.02 0.21,-0.04 0.32,-0.05 0.11,-0.02 0.22,-0.03 0.32,-0.05 0.1,-0.01 0.2,-0.03 0.28,-0.04 0.08,-0.01 0.15,-0.02 0.2,-0.02z"/>
  </g>
 </g>
</svg>
