<?xml version="1.0" encoding="UTF-8"?>
<!DOCTYPE svg PUBLIC "-//W3C//DTD SVG 1.1//EN" "http://www.w3.org/Graphics/SVG/1.1/DTD/svg11.dtd">
<!-- Creator: CorelDRAW 2021 (64-Bit) -->
<svg xmlns="http://www.w3.org/2000/svg" xml:space="preserve" width="8.4667mm" height="12.7mm" version="1.1" shape-rendering="geometricPrecision" text-rendering="geometricPrecision" image-rendering="optimizeQuality" fill-rule="evenodd" clip-rule="evenodd"
viewBox="0 0 194.35 291.52"
 xmlns:xlink="http://www.w3.org/1999/xlink"
 xmlns:xodm="http://www.corel.com/coreldraw/odm/2003">
 <g id="Слой_x0020_1">
  <metadata id="CorelCorpID_0Corel-Layer"/>
  <g id="_2488537708208">
   <rect fill="white" x="-0" y="-0" width="194.35" height="291.52"/>
   <rect fill="black" x="12.63" y="9.72" width="169.08" height="272.09" rx="14.54" ry="15.02"/>
   <g>
    <polygon fill="white" fill-rule="nonzero" points="99.9,148.43 102.03,145.16 98.04,136.82 98.03,136.95 96.93,134.68 96.93,134.64 96.92,134.66 96.89,134.61 96.89,134.7 95.78,136.98 95.78,136.85 91.79,145.19 93.92,148.45 92.61,191.61 96.89,201.1 96.89,201.14 96.9,201.12 96.93,201.17 96.93,201.07 101.2,191.58 "/>
    <path fill="white" fill-rule="nonzero" d="M97.47 127.83c0,0 6.6,4.21 5.89,13.19 0,0 15.72,-17.13 10.81,-25.27 0,0 -0.42,7.58 -16.7,12.07z"/>
    <path fill="white" fill-rule="nonzero" d="M141.58 153.76c-0.13,-0.58 -0.42,-1.16 -0.81,-1.71 -0.79,-1.1 -1.93,-2.06 -3.04,-3.12 -0.09,-0.09 -0.19,-0.18 -0.28,-0.27 -0.03,0.01 -0.06,0.01 -0.09,0.02 -0.53,0.08 -1.19,0.17 -1.95,0.18 -0.76,0.01 -1.63,-0.04 -2.56,-0.3 -0.46,-0.13 -0.94,-0.31 -1.41,-0.56 -0.47,-0.26 -0.92,-0.61 -1.31,-1.03 -0.4,-0.42 -0.72,-0.95 -0.95,-1.5 -0.13,-0.28 -0.21,-0.57 -0.29,-0.87 -0.04,-0.15 -0.06,-0.3 -0.09,-0.45 -0.03,-0.15 -0.06,-0.3 -0.07,-0.46 -0.03,-0.29 -0.06,-0.58 -0.09,-0.87 -0.02,-0.31 -0.08,-0.54 -0.12,-0.81 -0.12,-0.53 -0.28,-1.06 -0.5,-1.57 -0.45,-1.01 -1.14,-1.93 -1.99,-2.72 -0.83,-0.81 -1.79,-1.5 -2.78,-2.19 -0.49,-0.34 -0.99,-0.69 -1.47,-1.07 -0.48,-0.38 -0.95,-0.78 -1.36,-1.29 -0.4,-0.51 -0.74,-1.16 -0.72,-1.91 0,-0.14 0.01,-0.28 0.02,-0.41l0.01 -0.2 0.03 -0.22c0.05,-0.29 0.08,-0.59 0.16,-0.85 0.24,-1.07 0.6,-2.02 0.97,-2.87 0.08,-0.17 0.15,-0.34 0.22,-0.51l-5.4 -2.78c-0.72,2.54 -2.08,5.43 -4.09,8.63 -1.16,1.86 -2.4,3.59 -3.51,5.06l0 40.41c1.97,-8.37 9.35,-15.26 9.35,-15.26 -1.31,7.55 5.91,23.3 5.91,23.3 6.18,-3.3 9.72,-15.91 10.71,-19.93 -0.06,-0.12 -0.11,-0.25 -0.17,-0.37 -0.09,-0.18 -0.17,-0.36 -0.26,-0.55 -0.18,-0.36 -0.33,-0.75 -0.56,-1.1 -0.21,-0.36 -0.43,-0.72 -0.64,-1.08l-0.16 -0.27 -0.19 -0.26c-0.12,-0.17 -0.25,-0.34 -0.38,-0.52 -0.26,-0.34 -0.49,-0.71 -0.77,-1.04 -0.28,-0.33 -0.57,-0.66 -0.85,-1l-0.43 -0.5 -0.47 -0.47c-0.31,-0.31 -0.63,-0.62 -0.95,-0.94l-0.24 -0.23 -0.25 -0.22 -0.5 -0.43 -1.01 -0.87c-0.71,-0.56 -1.46,-1.1 -2.18,-1.65 -0.37,-0.27 -0.73,-0.55 -1.1,-0.82 -0.36,-0.28 -0.72,-0.59 -1.07,-0.88 -1.4,-1.2 -2.62,-2.56 -3.66,-3.97 -1.04,-1.41 -1.88,-2.89 -2.54,-4.35 -0.67,-1.46 -1.15,-2.89 -1.48,-4.24 -0.69,-2.7 -0.83,-5.02 -0.83,-6.62 0,-0.8 0.05,-1.43 0.09,-1.86 0.04,-0.43 0.08,-0.65 0.08,-0.65 0,0 -0.04,0.92 0.1,2.5 0.14,1.58 0.47,3.84 1.28,6.42 0.41,1.29 0.96,2.65 1.65,4.03 0.69,1.37 1.56,2.75 2.58,4.08 1.02,1.32 2.23,2.57 3.56,3.7 0.34,0.27 0.68,0.56 1.03,0.82 0.36,0.27 0.73,0.53 1.09,0.8 0.73,0.54 1.47,1.07 2.2,1.63l1.07 0.92 0.53 0.46 0.27 0.23 0.25 0.25c0.33,0.33 0.65,0.66 0.98,0.99l0.49 0.49 0.45 0.53c0.3,0.35 0.59,0.7 0.88,1.05 0.29,0.35 0.52,0.74 0.79,1.11 0.13,0.19 0.26,0.37 0.38,0.56l0.19 0.28 0.08 0.15c0.35,-0.1 0.83,-0.25 1.43,-0.47 0.63,-0.24 1.38,-0.58 2.19,-1.03 0.81,-0.46 1.66,-1.07 2.47,-1.86 0.79,-0.79 1.51,-1.79 2.02,-2.93 0.2,-0.53 0.28,-1.13 0.14,-1.71z"/>
    <path fill="white" fill-rule="nonzero" d="M96.98 127.83c0,0 -6.6,4.21 -5.9,13.19 0,0 -15.72,-17.13 -10.81,-25.27 0,0 0.42,7.58 16.71,12.07z"/>
    <path fill="white" fill-rule="nonzero" d="M36.45 145.23l36.91 -19.01c3.18,1.83 1.42,8.57 1.11,9.65 -0.37,1.36 -4.93,8.21 -5.53,9.62 -0.3,0.71 -2.96,3.78 -3.2,4.57 -0.11,0.41 -3.33,1.47 -3.34,1.95 -0.02,0.18 -1.24,-0.34 -1.04,-1.61 -1.02,-1.59 -0.33,1.24 -0.93,2.98 -0.1,0.27 -2.81,-3.45 -3.03,-3.17 -0.59,0.79 0.34,0.02 -0.9,1.2 -0.06,-0.01 -0.39,1.59 -0.39,1.59 0,0 0.48,1.51 0.18,1.95 -0.43,0.65 -1.92,-0.06 -2.05,0.73 -0.14,0.79 1.27,0.56 1.58,1.25 0.62,1.28 0.53,-0.6 1.45,0.19 0.91,0.79 0.56,0.85 1.44,1.25 0.87,0.4 1.02,0.65 1.69,0.83 0.61,0.17 0.35,2.52 0.71,2.58l-0.08 0.14c-0.22,0.39 -0.44,0.78 -0.65,1.16 -0.23,0.38 -0.38,0.79 -0.57,1.18 -0.15,0.36 -0.32,0.7 -0.45,1.06 -6.23,8.36 -5.32,30.17 -5.32,30.17 -16.74,-15.21 -21.83,-42.56 -21.83,-42.56 0,0 1.31,20.68 6.07,28.06 4.76,7.38 8.37,19.86 1.64,11.98 -6.73,-7.88 -14.6,-1.48 -14.6,-1.48 -1.97,-17.39 0.2,-29.12 2.41,-35.98 1.44,-4.44 4.56,-8.14 8.72,-10.28z"/>
    <path fill="white" fill-rule="nonzero" d="M52.87 153.76c0.13,-0.58 0.42,-1.16 0.81,-1.71 0.8,-1.1 1.93,-2.06 3.05,-3.12 0.09,-0.09 0.19,-0.18 0.28,-0.27 0.03,0.01 0.06,0.01 0.09,0.02 0.53,0.08 1.19,0.17 1.95,0.18 0.76,0.01 1.63,-0.04 2.56,-0.3 0.46,-0.13 0.94,-0.31 1.41,-0.56 0.47,-0.26 0.92,-0.61 1.31,-1.03 0.4,-0.42 0.72,-0.95 0.95,-1.5 0.13,-0.28 0.21,-0.57 0.29,-0.87 0.04,-0.15 0.06,-0.3 0.09,-0.45 0.03,-0.15 0.06,-0.3 0.07,-0.46 0.03,-0.29 0.06,-0.58 0.09,-0.87 0.02,-0.31 0.08,-0.54 0.12,-0.81 0.12,-0.53 0.28,-1.06 0.5,-1.57 0.45,-1.01 1.14,-1.93 1.99,-2.72 0.83,-0.81 1.8,-1.5 2.78,-2.19 0.49,-0.34 0.99,-0.69 1.47,-1.07 0.48,-0.38 0.95,-0.78 1.36,-1.29 0.4,-0.51 0.74,-1.16 0.72,-1.91 -0.01,-0.14 -0.01,-0.28 -0.02,-0.41l-0.01 -0.2 -0.03 -0.22c-0.05,-0.29 -0.08,-0.59 -0.15,-0.85 -0.25,-1.07 -0.6,-2.02 -0.97,-2.87 -0.08,-0.17 -0.15,-0.34 -0.22,-0.51l5.4 -2.78c0.72,2.54 2.08,5.43 4.09,8.63 1.17,1.86 2.4,3.59 3.51,5.06l0 40.41c-1.97,-8.37 -9.35,-15.26 -9.35,-15.26 1.31,7.55 -5.91,23.3 -5.91,23.3 -6.18,-3.3 -9.72,-15.91 -10.71,-19.93 0.05,-0.12 0.11,-0.25 0.17,-0.37 0.09,-0.18 0.17,-0.36 0.26,-0.55 0.18,-0.36 0.33,-0.75 0.56,-1.1 0.21,-0.36 0.43,-0.72 0.64,-1.08l0.16 -0.27 0.19 -0.26c0.13,-0.17 0.25,-0.34 0.38,-0.52 0.26,-0.34 0.49,-0.71 0.78,-1.04 0.28,-0.33 0.56,-0.66 0.85,-1l0.43 -0.5 0.47 -0.47c0.31,-0.31 0.63,-0.62 0.94,-0.94l0.24 -0.23 0.25 -0.22 0.5 -0.43 1.01 -0.87c0.71,-0.56 1.46,-1.1 2.18,-1.65 0.37,-0.27 0.74,-0.55 1.1,-0.82 0.37,-0.28 0.72,-0.59 1.07,-0.88 1.4,-1.2 2.63,-2.56 3.66,-3.97 1.04,-1.41 1.88,-2.89 2.54,-4.35 0.67,-1.46 1.15,-2.89 1.49,-4.24 0.68,-2.7 0.83,-5.02 0.82,-6.62 0,-0.8 -0.05,-1.43 -0.08,-1.86 -0.04,-0.43 -0.08,-0.65 -0.08,-0.65 0,0 0.04,0.92 -0.1,2.5 -0.14,1.58 -0.48,3.84 -1.29,6.42 -0.41,1.29 -0.95,2.65 -1.64,4.03 -0.69,1.37 -1.56,2.75 -2.58,4.08 -1.02,1.32 -2.23,2.57 -3.57,3.7 -0.34,0.27 -0.68,0.56 -1.03,0.82 -0.36,0.27 -0.73,0.53 -1.09,0.8 -0.73,0.54 -1.47,1.07 -2.2,1.63l-1.07 0.92 -0.53 0.46 -0.27 0.23 -0.25 0.25c-0.33,0.33 -0.65,0.66 -0.98,0.99l-0.49 0.49 -0.45 0.53c-0.3,0.35 -0.59,0.7 -0.88,1.05 -0.29,0.35 -0.53,0.74 -0.79,1.11 -0.13,0.19 -0.25,0.37 -0.38,0.56l-0.19 0.28 -0.08 0.15c-0.35,-0.1 -0.83,-0.25 -1.43,-0.47 -0.63,-0.24 -1.38,-0.58 -2.19,-1.03 -0.81,-0.46 -1.66,-1.07 -2.46,-1.86 -0.8,-0.79 -1.52,-1.79 -2.02,-2.93 -0.2,-0.53 -0.28,-1.13 -0.14,-1.71z"/>
    <path fill="#302D2C" fill-rule="nonzero" d="M103.47 89.18c0,0 4.62,-2.21 8.68,-4.77 4.06,-2.56 -3.24,-17.79 -2.85,-23.63 0.39,-5.84 -15.59,-1.67 -15.59,-1.67l8.07 -4.94 9.02 0.04 4.39 6.59 1.97 8.53c0,0 -3.89,11.4 6.77,15.68 10.66,4.28 -12.73,6.58 -12.73,6.58l-7.73 -2.41z"/>
    <path fill="white" fill-rule="nonzero" d="M119.76 76.24c0,0 15,-4.43 14.96,5.6 -0.04,10.04 -34.24,20.53 -55.2,18.8 0,0 10.05,-2.36 11.4,-4.3 1.35,-1.94 10.66,-5.13 13.96,-8.3 3.31,-3.16 18.28,-1.75 13.36,-6.42 -4.92,-4.66 -5.46,-19.19 -5.46,-19.19 0,0 0.2,-12.43 -17.81,-2.02 -18.02,10.41 -23.25,6.79 -24.12,1.55 -0.88,-5.25 11.42,-8.04 19.5,-7.41 8.08,0.63 14.86,-8.33 23.21,1.74 8.35,10.07 -0.23,18.72 6.19,24.29 0,0 -1.98,-3.87 0.02,-4.34z"/>
    <path fill="white" fill-rule="nonzero" d="M76.37 100.8c0,0 -15.58,1.26 -22.14,-6.85 -6.56,-8.12 17.86,-8.61 17.87,-11.01 0.01,-2.4 -1.59,-13.64 4.4,-13.31 5.99,0.32 20.36,-6.19 21.76,-8.9 0,0 -2.74,10.92 -19.97,12.05 0,0 -3.77,7.32 2.34,13.94 6.12,6.62 -13.19,1.29 -12.91,7.14 0.27,5.84 8.66,6.95 8.66,6.95z"/>
    <path fill="white" fill-rule="nonzero" d="M157.9 145.29l-36.91 -19.02c-3.18,1.83 -1.42,8.58 -1.11,9.65 0.37,1.36 4.93,8.21 5.52,9.62 0.3,0.71 2.96,3.78 3.2,4.57 0.11,0.41 3.33,1.47 3.34,1.95 0.03,0.18 1.25,-0.34 1.04,-1.61 1.02,-1.59 0.33,1.24 0.93,2.99 0.1,0.27 2.81,-3.45 3.02,-3.17 0.59,0.79 -0.34,0.02 0.91,1.2 0.06,-0.01 0.39,1.59 0.39,1.59 0,0 -0.49,1.51 -0.18,1.95 0.43,0.64 1.92,-0.07 2.05,0.73 0.14,0.79 -1.27,0.56 -1.58,1.25 -0.62,1.28 -0.53,-0.6 -1.45,0.19 -0.91,0.79 -0.56,0.85 -1.44,1.25 -0.88,0.41 -1.03,0.66 -1.69,0.84 -0.62,0.17 -0.35,2.52 -0.71,2.58l0.08 0.14c0.22,0.39 0.44,0.78 0.65,1.16 0.23,0.38 0.38,0.79 0.56,1.18 0.15,0.36 0.33,0.7 0.45,1.06 6.23,8.36 5.32,30.16 5.32,30.16 16.74,-15.21 21.83,-42.56 21.83,-42.56 0,0 -1.31,20.68 -6.07,28.06 -4.76,7.39 -8.37,19.86 -1.64,11.98 6.73,-7.88 14.61,-1.48 14.61,-1.48 1.97,-17.39 -0.2,-29.12 -2.41,-35.98 -1.44,-4.45 -4.56,-8.14 -8.71,-10.28z"/>
   </g>
  </g>
 </g>
</svg>
