<?xml version="1.0" encoding="UTF-8"?>
<!DOCTYPE svg PUBLIC "-//W3C//DTD SVG 1.1//EN" "http://www.w3.org/Graphics/SVG/1.1/DTD/svg11.dtd">
<!-- Creator: CorelDRAW 2021 (64-Bit) -->
<svg xmlns="http://www.w3.org/2000/svg" xml:space="preserve" width="8.4667mm" height="12.7mm" version="1.1" shape-rendering="geometricPrecision" text-rendering="geometricPrecision" image-rendering="optimizeQuality" fill-rule="evenodd" clip-rule="evenodd"
viewBox="0 0 404.08 606.12"
 xmlns:xlink="http://www.w3.org/1999/xlink"
 xmlns:xodm="http://www.corel.com/coreldraw/odm/2003">
 <g id="Слой_x0020_1">
  <metadata id="CorelCorpID_0Corel-Layer"/>
  <rect fill="white" x="-0.01" y="-0" width="404.08" height="606.12"/>
  <rect fill="red" x="26.26" y="20.2" width="351.55" height="565.71" rx="30.24" ry="31.23"/>
  <path fill="white" fill-rule="nonzero" d="M48.98 402.24c0.17,-0.57 1.26,-6.45 2.43,-13.06 4.2,-23.75 7.58,-32.42 16,-40.97 8.43,-8.56 17,-11.8 47.44,-17.94 23.51,-4.74 33.44,-7.77 40.09,-12.23 4.19,-2.81 6.51,-6.2 8.76,-12.79l1.43 -4.19 -3.04 -3.52c-3.73,-4.32 -7.92,-10.78 -10.95,-16.89 -2.08,-4.17 -2.7,-5.95 -3.84,-11.04 -0.31,-1.35 -0.7,-1.65 -2.18,-1.65 -2.18,0 -5.77,-1.75 -7.55,-3.68 -3.96,-4.31 -5.76,-11.23 -5.49,-21.17 0.19,-7.11 0.27,-7.48 2.02,-9.98 1.33,-1.89 2.51,-2.81 4.38,-3.41 2.46,-0.79 2.51,-0.85 1.33,-1.68 -1.13,-0.79 -1.24,-1.48 -1.24,-8.17 -0.01,-10.37 -1.01,-23.62 -2.15,-28.71 -1.99,-8.82 -6.56,-15.78 -11.73,-17.84 -1.09,-0.43 -2.09,-0.87 -2.21,-0.96 -0.44,-0.34 6.83,-8.82 13.81,-16.07 25.74,-26.79 49.48,-38.07 69.81,-33.18 4.36,1.05 12.01,4.83 16.18,7.99 2.07,1.57 5.54,4.81 7.7,7.2 3.73,4.12 4.09,4.36 7.01,4.66 9.54,0.99 19.63,7.64 26.14,17.22 14.23,20.95 13.09,50.94 -2.55,67.41 -2.22,2.34 -4.04,4.43 -4.04,4.64 0,0.21 1.78,0.38 3.95,0.38 6.9,0 10.18,2.77 10.83,9.14 0.28,2.73 -0.08,4.37 -2.52,11.54 -1.57,4.6 -3.36,9.36 -3.97,10.59 -1.35,2.71 -3.76,4.05 -7.26,4.05l-2.62 0 -0.72 3.92c-1.26,6.86 -4.42,12.74 -11.68,21.72 -2.19,2.71 -3.97,5.39 -3.97,5.96 0.02,1.72 3.83,10.41 6.15,14.05 1.99,3.1 2.67,3.64 7.74,6.09 7.56,3.66 16.45,6.23 37.47,10.85 33.04,7.26 38.47,9.34 46.81,17.87 8.48,8.67 11.7,16.92 15.92,40.76 1.16,6.61 2.26,12.49 2.43,13.06 0.3,1 -7.27,1.05 -153.06,1.05 -145.79,0 -153.36,-0.05 -153.06,-1.05zm140.15 -43.72l5.77 -13.33 -3.58 -4.16c-3.79,-4.4 -4.67,-6.72 -4.04,-10.61 0.19,-1.18 0.96,-2.82 1.72,-3.64 2.47,-2.68 4.53,-3.13 14.28,-3.13 10.16,0 12.42,0.6 14.38,3.82 2.71,4.46 1.93,8.3 -2.8,13.88l-3.28 3.87 5.8 13.53c3.9,9.12 5.96,13.25 6.28,12.67 0.73,-1.32 17.9,-47.78 17.9,-48.47 0,-0.33 -1.34,-2.64 -2.98,-5.14 -1.64,-2.5 -3.7,-6.38 -4.59,-8.63 -0.88,-2.25 -1.83,-4.09 -2.1,-4.09 -0.28,0 -1.78,0.92 -3.35,2.03 -9.82,7 -23.09,10.71 -33.55,9.4 -8.2,-1.03 -14.63,-3.5 -22.34,-8.61l-1.55 -1.03 -1.6 4.09c-0.89,2.25 -2.79,5.89 -4.23,8.08l-2.62 3.99 9.27 22.61c5.1,12.43 9.66,23.53 10.13,24.65 0.47,1.12 0.96,1.93 1.09,1.8 0.13,-0.14 2.83,-6.24 6,-13.57zm18.17 -50.19c9.78,-2 20.61,-8.77 28.29,-17.69 8.4,-9.77 11.96,-17.22 11.96,-25.14 0,-3.33 0.23,-4.36 1.19,-5.33 1.44,-1.44 2.48,-1.5 4.86,-0.26 0.99,0.52 2.51,0.85 3.38,0.75 1.43,-0.17 1.81,-0.84 4.15,-7.37 3.05,-8.51 3.63,-11.32 2.59,-12.57 -1.17,-1.41 -4.76,-1.04 -8.3,0.87 -2.29,1.23 -3.58,1.59 -4.49,1.26 -2,-0.73 -2.77,-2.9 -2.16,-6.13 2.22,-11.79 1.83,-26.41 -0.94,-35.17 -2.48,-7.84 -8.42,-15.38 -15.31,-19.41l-2.76 -1.61 -4.12 2.76c-9.13,6.13 -15.88,8.57 -28.8,10.42 -11.82,1.7 -15.61,2.62 -20.82,5.02 -8.99,4.15 -15.88,10.14 -18.66,16.2 -1.81,3.96 -2.55,9.7 -1.95,15.11 0.77,6.94 0.67,7.85 -0.96,8.92 -1.38,0.91 -1.76,0.87 -6.14,-0.59 -5.46,-1.82 -6.91,-1.91 -8.28,-0.54 -0.86,0.86 -0.97,2.01 -0.76,7.94 0.21,5.86 0.49,7.45 1.81,10.31 1.9,4.14 3.2,4.93 7.28,4.43 4.31,-0.54 5.12,0.21 5.77,5.37 0.84,6.65 3.5,12.8 9.16,21.23 11.47,17.07 27.19,24.65 43.99,21.21z"/>
 </g>
</svg>
