<?xml version="1.0" encoding="UTF-8"?>
<!DOCTYPE svg PUBLIC "-//W3C//DTD SVG 1.1//EN" "http://www.w3.org/Graphics/SVG/1.1/DTD/svg11.dtd">
<!-- Creator: CorelDRAW 2021 (64-Bit) -->
<svg xmlns="http://www.w3.org/2000/svg" xml:space="preserve" width="2.9208mm" height="2.9218mm" version="1.1" shape-rendering="geometricPrecision" text-rendering="geometricPrecision" image-rendering="optimizeQuality" fill-rule="evenodd" clip-rule="evenodd"
viewBox="0 0 9.27 9.27"
 xmlns:xlink="http://www.w3.org/1999/xlink"
 xmlns:xodm="http://www.corel.com/coreldraw/odm/2003">
 <g id="Слой_x0020_1">
  <metadata id="CorelCorpID_0Corel-Layer"/>
  <g id="_2488804630352">
   <path fill="none" stroke="white" stroke-width="0.4" stroke-miterlimit="22.9256" d="M2.89 2.37c0.03,-0 0.03,-0.02 0.08,-0.05l0.26 -0.16c0.28,-0.14 0.54,-0.24 0.86,-0.29 0.09,-0.01 0.3,-0.04 0.39,-0.04 0.03,0 0.07,0 0.1,-0.01 0,-0 0,-0 0.01,-0l0.02 -0.01c0.12,-0.03 0.09,-0.24 0.09,-0.35 0,-0.12 0.01,-1.07 -0,-1.12 -0.01,-0.06 -0.05,-0.11 -0.11,-0.12 -0.07,-0.02 -0.36,0 -0.45,0.01 -0.14,0.01 -0.28,0.03 -0.41,0.06 -0.27,0.05 -0.51,0.11 -0.74,0.2l-0.33 0.14 -0.38 0.2c-0.03,0.02 -0.05,0.03 -0.07,0.04 -0.05,0.03 -0.1,0.06 -0.14,0.09 -0.37,0.26 -0.43,0.31 -0.75,0.63 -0.08,0.08 -0.15,0.16 -0.22,0.24 -0.36,0.46 -0.61,0.92 -0.77,1.51 -0.13,0.48 -0.17,1.07 -0.07,1.63 0.07,0.4 0.16,0.67 0.33,1.04 0.07,0.17 0.23,0.43 0.33,0.58 0.11,0.15 0.18,0.25 0.3,0.38l0.31 0.32c0.02,0.02 0.01,0.02 0.04,0.03l0.02 0.03c0.03,0.02 0.07,0.07 0.11,0.08 0.01,0.02 0.02,0.02 0.03,0.04 -0.03,0.05 -0.17,0.16 -0.22,0.21l-0.45 0.43c-0.04,0.04 -0.08,0.06 -0.08,0.14 0,0.06 0.04,0.11 0.09,0.13 0,0 0,0.01 0,0 0,-0 0,0 0,0 0.04,0.02 0.62,0.01 0.67,0.01l2 0c0.05,0 0.05,0 0.08,-0.02 0.09,-0.03 0.1,-0.12 0.1,-0.19l0 -2.28c0,-0.09 0.01,-0.2 -0.03,-0.26 -0.04,-0.06 -0.13,-0.09 -0.2,-0.04 -0.03,0.02 -0.12,0.11 -0.15,0.14 -0.05,0.04 -0.57,0.55 -0.6,0.57l-0.3 -0.26c-0.13,-0.12 -0.32,-0.38 -0.41,-0.53 -0.47,-0.83 -0.43,-1.81 0.11,-2.58 0.05,-0.07 0.1,-0.15 0.16,-0.21 0.11,-0.12 0.2,-0.22 0.34,-0.33 0.03,-0.02 0.03,-0.02 0.05,-0.05z"/>
   <path fill="none" stroke="white" stroke-width="0.4" stroke-miterlimit="22.9256" d="M6.37 6.9c-0.03,0 -0.03,0.02 -0.08,0.05l-0.26 0.16c-0.28,0.14 -0.54,0.24 -0.86,0.29 -0.09,0.01 -0.3,0.04 -0.39,0.04 -0.03,-0 -0.07,-0 -0.1,0.01 -0,0 -0,0 -0.01,0l-0.02 0.01c-0.12,0.03 -0.09,0.24 -0.09,0.35 0,0.12 -0.01,1.07 0,1.12 0.01,0.06 0.05,0.11 0.11,0.12 0.07,0.02 0.36,-0 0.45,-0.01 0.14,-0.01 0.28,-0.03 0.41,-0.06 0.27,-0.05 0.51,-0.11 0.74,-0.2l0.33 -0.14 0.38 -0.2c0.03,-0.02 0.05,-0.03 0.07,-0.04 0.05,-0.03 0.1,-0.06 0.14,-0.09 0.37,-0.26 0.43,-0.31 0.75,-0.63 0.08,-0.08 0.15,-0.16 0.22,-0.24 0.36,-0.46 0.61,-0.92 0.77,-1.51 0.13,-0.48 0.17,-1.07 0.07,-1.63 -0.07,-0.4 -0.16,-0.67 -0.33,-1.04 -0.07,-0.17 -0.23,-0.43 -0.33,-0.58 -0.11,-0.15 -0.18,-0.25 -0.3,-0.38l-0.31 -0.32c-0.02,-0.02 -0.01,-0.02 -0.04,-0.03l-0.02 -0.03c-0.03,-0.02 -0.07,-0.07 -0.11,-0.08 -0.01,-0.02 -0.02,-0.02 -0.03,-0.04 0.03,-0.05 0.17,-0.16 0.22,-0.21l0.45 -0.43c0.04,-0.04 0.08,-0.06 0.08,-0.14 -0,-0.06 -0.04,-0.11 -0.09,-0.13 -0,-0 -0,-0.01 -0,-0 -0,0 -0,-0 -0,-0 -0.04,-0.02 -0.62,-0.01 -0.67,-0.01l-2 -0c-0.05,-0 -0.05,-0 -0.08,0.02 -0.09,0.03 -0.1,0.12 -0.1,0.19l0 2.28c0,0.09 -0.01,0.2 0.03,0.26 0.04,0.06 0.13,0.09 0.2,0.04 0.03,-0.02 0.12,-0.11 0.15,-0.14 0.05,-0.04 0.57,-0.55 0.6,-0.57l0.3 0.26c0.13,0.12 0.32,0.38 0.41,0.53 0.47,0.83 0.43,1.81 -0.11,2.58 -0.05,0.07 -0.1,0.15 -0.16,0.21 -0.11,0.12 -0.2,0.22 -0.34,0.33 -0.03,0.02 -0.03,0.02 -0.05,0.05z"/>
  </g>
 </g>
</svg>
