<?xml version="1.0" encoding="UTF-8"?>
<!DOCTYPE svg PUBLIC "-//W3C//DTD SVG 1.1//EN" "http://www.w3.org/Graphics/SVG/1.1/DTD/svg11.dtd">
<!-- Creator: CorelDRAW 2021 (64-Bit) -->
<svg xmlns="http://www.w3.org/2000/svg" xml:space="preserve" width="8.4667mm" height="12.7mm" version="1.1" shape-rendering="geometricPrecision" text-rendering="geometricPrecision" image-rendering="optimizeQuality" fill-rule="evenodd" clip-rule="evenodd"
viewBox="0 0 2079.63 3119.44"
 xmlns:xlink="http://www.w3.org/1999/xlink"
 xmlns:xodm="http://www.corel.com/coreldraw/odm/2003">
 <g id="Слой_x0020_1">
  <metadata id="CorelCorpID_0Corel-Layer"/>
  <rect fill="red" x="-0.03" y="-0.02" width="2079.63" height="3119.44"/>
  <rect fill="none" stroke="white" stroke-width="41.58" stroke-miterlimit="22.9256" x="135.17" y="103.99" width="1809.28" height="2911.47" rx="155.62" ry="160.72"/>
  <g id="_2488973371696">
   <circle fill="red" cx="1893.35" cy="1071.93" r="139.39"/>
   <circle fill="red" cx="1896.59" cy="2047.7" r="139.39"/>
   <circle fill="red" cx="188.79" cy="2051.85" r="139.39"/>
   <circle fill="red" cx="183.04" cy="1064.27" r="139.39"/>
   <g>
    <path fill="white" d="M1843.98 2000.32c32.5,-12.8 58.19,-26.16 89.92,-2.38 24.39,18.25 34.44,55.27 16.14,84.96 -34.68,56.27 -123.48,43.18 -123.8,-52.1l-513.33 -0.96c-11.3,30.48 -43.75,80.98 -61.87,110.85 -21.62,35.57 -41.88,74.11 -63.84,111.39 -42.49,72.14 -85.72,147.33 -125.2,218.46 20.31,21 49.96,23.09 47.5,73.49 -3.98,81.5 -122.69,81.62 -130.72,3.98 -5.45,-52.69 27.73,-56.08 47.21,-77.47l-187.61 -326.98c-17.98,-31.29 -50.72,-81.79 -62.95,-112.84l-513.5 -0.71c-0.79,97.27 -89.28,107.8 -123.67,52.37 -19.53,-31.44 -4.64,-70.15 14.76,-85.04 39.3,-30.14 62.51,-5.5 95.57,3.37l41.22 -74.5c8.87,-15.23 10.22,-11.81 13.39,-27.56l-41.51 -13.93 -32.18 56.32c-165.33,-10.27 -158.23,124.38 -125.86,171.18 55.63,80.42 171.57,56.69 200.33,-37.41l442.44 0.15c37.61,60.69 74.47,127.28 110.88,192.13 19.55,34.78 37.75,63.52 55.95,96.43 14.66,26.55 46.37,74.47 53.18,97.91 -73.07,63.03 -22.89,194.31 84.3,188.96 47.48,-2.38 83.71,-35.22 97.07,-69.22 24.91,-63.47 -9.14,-89.65 -25.45,-124.46 33.82,-59.64 73.1,-125.27 108.49,-189.11 35.98,-64.94 73.61,-131.31 111.22,-192.23l441.44 -0.34c67.94,176.24 288,53.08 200.41,-90.19 -32.67,-53.42 -93.17,-43.28 -126.57,-43.67l-37.46 -69.29 -48.02 1.5c1.15,14.98 61.53,116.75 72.12,126.94z"/>
    <path fill="white" d="M966.39 657.81c-4.32,19.28 -207.23,366.37 -219.83,386.59l-442.03 0.12c-58.56,-173.41 -290.75,-56.32 -199.94,88.94 23.24,37.19 65.9,47.5 126.52,43.92l16.38 35.66c15.72,-2.01 27.09,-6.83 42.81,-15.43 -10.51,-28.81 -32.74,-52.66 -41.66,-79.12 -32.59,8.57 -55,33.31 -95.33,3.19 -58.29,-43.52 -1.42,-145.02 70.59,-111.91 27.22,12.53 32.94,32.4 36.7,54.82 4.18,25.13 -4.47,15.25 10.64,24.91l504.46 -0.2c7.44,-25.47 223.37,-385.93 250.39,-440.55 -17.66,-21 -50.25,-24 -47.31,-73.25 2.01,-33.31 27.8,-60.35 62.71,-61.92 36.55,-1.67 64.85,23.51 68.19,57.4 5.26,53.25 -26.16,56.84 -47.65,77.76 30.73,60.74 238.62,406.61 250.93,438.96l513.38 1.74c1.18,-162.53 204.53,-56.94 109.97,29.7 -32.1,29.4 -63.52,12.48 -92.33,-0.17 -11.32,10.73 -70.69,114.49 -78.94,133.96 13.73,15.08 15.77,15.87 40.48,16.46 10.78,-13.78 46.08,-73.91 51.78,-91.3 61.6,1.11 91.03,0.52 124.78,-40.85 56.52,-69.29 -1.57,-198.71 -111.12,-176.31 -48.24,9.85 -72.16,39.99 -86.78,83.46l-442.76 0.12 -219.59 -381.75c20.71,-31.93 47.77,-62.81 27.19,-121.36 -13.29,-37.83 -49.44,-69.71 -98.32,-72.34 -103.24,-5.58 -154.77,113.01 -84.3,188.71z"/>
    <path fill="white" d="M993.58 1446.66l-0.88 27.68c-1.4,4.35 20.78,8.47 23.16,10.02 8.28,69.09 2.14,77.47 -19.9,110.38 31.02,14.74 21.96,30.26 21.47,68.7 -0.12,10.24 1.18,37.02 -0.66,45.27 -8.03,35.98 -23.9,-13.31 -23.87,53.91l121.07 -29.65c-2.21,-75.19 -13.8,-1.72 -15.97,-59.86 -0.56,-15.08 -0.2,-38.37 1.47,-53.18l20.19 -5.8c6.51,12.45 18,39.91 20.17,51.78 6.53,35.98 -8.38,-5.23 -9.33,60.94l118.47 -25.25c-1.4,-61.26 -9.46,-18.3 -29.75,-67.94 -8.87,-21.66 -21.22,-50.06 -27.56,-71.72 13.24,-21.12 32.69,-34.41 37.65,-75.38 4.77,-39.28 -9.46,-66.61 -40.38,-77.27 -39.55,-13.58 -104.07,10.02 -149.49,21.52 -7.69,1.94 -14.25,3.34 -21.71,5.53 -13.61,3.93 -14.57,3.95 -24.14,10.32zm105.03 27.68l0.49 90.68c42.32,-4.72 51.29,-94.37 24.34,-108.44 -21.25,-11.1 -24.83,-0.74 -24.83,17.76z"/>
    <path fill="white" d="M825.08 1397.29c5.82,-33.28 0.86,-59.27 -21.07,-77.47 -27.83,-23.11 -57.4,-14.93 -71.45,12.18 79.07,-30.85 89.8,58.95 31.59,77.74 -78.21,25.27 -294.16,39.2 -380.08,29.75 -81.11,-8.94 -132.56,-34.44 -166.98,-38.86 28.49,30.6 123.72,68.16 179.58,78.28 429.67,77.89 985.96,-346.68 1478.02,-53.67 14.37,8.55 27.88,19.13 42.91,25.84 -34.58,-46.99 -155.63,-102.11 -216.27,-120.16 -181.05,-53.87 -416.73,-46.3 -598.61,1.42 -81.65,21.44 -193.5,53.2 -277.63,64.94z"/>
    <path fill="white" d="M634.92 1520.57c0.96,72.48 11.15,10.98 15.77,59.44 1.25,13.12 -0.17,37.24 -0.44,51.31l-55.07 3.98c-0.34,-34.73 -7.93,-57.77 15.52,-77.94l-0.54 -34.09 -120.55 4.3 -1.72 37.24c19.55,0.25 15.23,-2.31 26.8,5.92 5.72,78.38 3.05,70.4 -22.01,102.18 32.91,19.97 25.86,74.52 21.96,119.3 -14.98,10.56 -11.37,2.87 -26.9,9.58l0.39 30.85c23.6,-0.2 46.28,0.47 69.09,0.34 24,-0.15 51.21,6.63 54.18,-13.31 5.5,-36.92 -14.86,-6.61 -16.21,-49.74 -0.64,-19.7 -1.74,-47.63 2.19,-66.02l53.23 -5.85c0.05,22.38 1.72,51.07 0.2,71.92 -3.44,46.99 -18.05,-0.05 -15.18,59.12l122.47 -14.61 0.07 -31.15c-24.59,-10.37 -28.22,22.89 -28.25,-60.01 0,-51.14 -2.01,-45.32 22.82,-75.6 -28.86,-9.11 -22.94,-28.3 -22.94,-58.16 -0.02,-53.2 -1.2,-33.36 27.95,-50.65l0.29 -34.76 -123.13 16.41z"/>
    <path fill="white" d="M208.73 1794.93c11.81,29.08 64.13,54.21 90.19,66.98 188.08,92.13 472.14,35.25 669.62,0.22 43.92,-7.81 91.91,-15.52 137.5,-16.41 63.99,-1.25 83.78,5.62 138.34,19.65 -23.31,-37.34 -76.56,-46.23 -130.94,-48.49 1.11,-0.79 2.9,-3.07 3.54,-2.01 0.64,1.03 2.65,-1.52 3.54,-1.92 47.38,-20.66 273.38,-59.93 313.57,-64.85 46.42,-5.67 327.76,-37.43 277.53,72.41 -15.62,-15.11 -6.34,-29.97 -38.44,-23.36 -17.29,51.53 39.94,51.75 54.87,36.35 26.18,-27.02 1.79,-66.88 -15.28,-79.56 55.14,3.71 115.86,45.37 158.72,57.38 -29.7,-31.22 -115,-65.19 -168.4,-80.93 -331.1,-97.56 -743.48,143.47 -1073.04,152.66 -79.8,2.21 -160.54,1.89 -237.13,-14.39 -117.14,-24.88 -125.42,-49.13 -184.19,-73.74z"/>
    <path fill="white" d="M280.92 1662.54c46.77,8.79 139.98,72.56 91.64,119.2 -30.51,0.07 -35.96,-24.61 -39.99,-54.41l-69.19 -18.08 -1.01 77.64c16.68,5.43 31.96,9.19 45.93,14.79 38.81,15.47 89.78,45.17 144.43,11 26.53,-16.6 41.14,-49.96 25.72,-88.82 -15.65,-39.37 -50.6,-32.08 -42.17,-72.63 -52.37,-3.24 -113.06,-46.79 -78.4,-94 33.82,-2.04 30.26,11.91 34.31,31.83l4.05 14.74 73.59 8.47 -0.32 -86.36c-48.31,-4.2 -230.81,-60.03 -215.04,67.13 4.79,38.69 36.87,33.92 26.45,69.49z"/>
    <path fill="white" d="M773.23 1500.48l-0.91 33.82c1.25,0.49 3.12,-0.47 3.66,0.81l10.05 1.62c10.12,1.97 15.5,-12.28 14.74,43.67 -0.49,34.85 2.28,51.8 -23.48,63.76 24.59,28.71 23.14,9.43 23.21,69.98 0.02,10.27 1.45,35.84 -1.28,44.19 -4.4,13.41 -0.93,5.72 -10.1,11.69 -0.86,0.56 -2.14,1.06 -3.07,1.6 -0.96,0.54 -2.26,1.08 -3.22,1.62l-10.02 37.51 207.18 -43.7 0.1 -110.88c-16.14,2.33 -40.11,8.03 -51.38,13.83 -4.4,53.45 6.66,76.93 -49.03,81.5l-1.65 -83.46 50.92 -15.28 0.52 -65.93 -49.1 10.44c-2.97,-32.82 -12.82,-103.83 40.72,-86.04 7.47,15.79 4.72,39.45 6.41,58.97l54.58 -11.79 0.37 -108.08 -209.22 50.13z"/>
    <path fill="white" d="M1402.79 1395.94c5.65,16.9 5.08,6.26 25.74,13.34 3.81,54.63 9.97,81.5 -21.81,102.77 21.44,24.76 27.31,9.55 23.68,96.04l-1.97 23.14 -25.15 8.72 -0.47 32.25 158.11 -13.36 0.56 -30.46 -49.13 -0.02c-9.58,-21.07 -3.81,-57.18 -3.91,-80.79l49.54 -0.47 1.6 -62.12 -50.01 -3.14 0.49 -71.35c61.36,-15.11 38.29,23.41 49.69,61.55l50.65 4.72 1.08 -96.53c-34.71,-8.06 -176.33,-17.24 -208.76,-11.47l0.05 27.19z"/>
    <path fill="white" d="M1624.71 1414.38c30.33,21.96 27.53,-12.72 27.53,69.17 0,20.04 -3.64,20.09 -18.45,34.56 -0.49,0.47 -1.67,1.47 -2.38,2.36 28,27.09 23.56,61.46 18.42,110.85 -30.26,9.65 -27.93,-13.76 -24.93,32.1 20.93,10.44 57.18,11.86 81.89,17.17 24.73,5.31 52.83,15.45 74.87,17.81l-0.42 -31.17c-60.35,-25.23 -47.87,0.2 -50.89,-91.5 19.23,-0.42 32.13,6.93 51.58,12.11l-0.91 -58.21 -50.16 -18.15c0.44,-19.87 -3.56,-50.7 3.71,-63.37 9.87,-6.53 29.94,-0.64 37.85,9.8 9.14,12.04 5.58,42.47 6.17,58.75l54.87 15.7 0.54 -96.26c-38.12,-13.24 -169.16,-51.8 -209.32,-52.24l0.02 30.53z"/>
    <path fill="white" d="M1259.62 1383.39l-0.12 37.95 25.84 -0.05c2.14,21.05 3.05,47.53 1.82,67.18 -1.67,26.7 -6.34,32.89 -24.61,39.84l11.45 8.72c21.84,19.75 14.96,91.4 10.59,117.19l-25.05 10.54 -0.07 33.6 134.38 -23.53c3.02,-81.4 -27.46,24.24 -27.39,-89.83 0.02,-37.78 -3.27,-48.04 19.48,-72.31 0.59,-0.66 1.84,-1.79 2.7,-2.75 -25.05,-8.6 -22.18,-27.49 -22.28,-53.99 -0.12,-39.72 -6.36,-44.16 28.59,-51.9l-0.22 -34.95c-26.18,-2.51 -108.2,7.66 -135.09,14.3z"/>
    <path fill="white" d="M637.25 1405.66c15.47,-32.99 3.49,-48.93 -35.89,-43.5l-10.54 27.63c-62.81,-0.02 -333.04,6.07 -331.08,-90.66 0.69,-33.6 26.77,-48.22 48.36,-59.64l25.15 -16.16c-137.13,8.33 -150.3,124.02 -13.48,156.86 66.96,16.06 175.74,26.16 246.36,18.86 58.39,-6.07 23.68,20.21 71.11,6.61z"/>
    <path fill="white" d="M405.75 1350.35c-19.45,-19.23 -36.7,-46.55 -12.13,-81.13 7.66,-10.81 18.3,-17.02 32.08,-23.06 17.71,-7.81 23.24,-5.43 38.81,-13.95l7.71 -5.16c-203.08,-9.11 -229.63,103.56 -66.47,123.3z"/>
    <path fill="white" d="M1041.48 2345.79c-20.36,-20.17 -65.12,-83.02 -85.13,-93.66 7.27,19.43 77.42,143.2 89.04,152.02 20.26,-29.72 76.07,-122.76 89.33,-156.32l-24.81 23.63c-9.43,10.07 -12.31,16.26 -20.49,25.86 -11.74,13.8 -33.77,41.58 -47.95,48.46z"/>
    <path fill="white" d="M956.32 867.23c18.69,-10.07 74.28,-80.88 82.82,-95.67 32.35,18.72 70.57,84.59 95.45,99.85 -11.84,-31.76 -69.98,-127.33 -89.11,-156.32 -11.27,9.19 -80.49,130.7 -89.16,152.14z"/>
    <path fill="white" d="M1727.36 1164.9l-19.75 59.61c23.56,14.93 9.97,16.11 38.66,-32.67 11.62,-19.75 21.71,-34.71 30.68,-56.71l-182.38 1.3 132.78 28.47z"/>
    <path fill="white" d="M1727.51 1953.53l-95.3 19.23c-3.71,0.69 -12.26,1.92 -15.65,2.8l160.27 8.5 -48.88 -89.11c-7.49,-13.26 -9.14,-18.72 -25.42,-17.59l24.98 76.17z"/>
   </g>
  </g>
 </g>
</svg>
